Radio-Canada-CondensedBold-slant-12.ufo
<glyph name="exclam" format="1">
  <advance width="308"/>
  <unicode hex="0021"/>
  <outline>
    <contour>
      <point x="21.579411810261718" y="78.0" type="curve" smooth="yes"/>
      <point x="11.164140288430644" y="29.0"/>
      <point x="42.44932125995973" y="-12.0"/>
      <point x="91.44932125995973" y="-12.0" type="curve" smooth="yes"/>
      <point x="140.44932125995973" y="-12.0"/>
      <point x="189.16414028843064" y="29.0"/>
      <point x="199.57941181026172" y="78.0" type="curve" smooth="yes"/>
      <point x="209.7821267704228" y="126.0"/>
      <point x="178.4969457988937" y="167.0"/>
      <point x="129.4969457988937" y="167.0" type="curve" smooth="yes"/>
      <point x="80.4969457988937" y="167.0"/>
      <point x="31.782126770422792" y="126.0"/>
    </contour>
    <contour>
      <point x="98.32748884255585" y="265.0" type="line"/>
      <point x="202.32748884255585" y="265.0" type="line"/>
      <point x="281.80475143843165" y="526.0" type="line"/>
      <point x="316.66402755231525" y="690.0" type="line"/>
      <point x="164.66402755231528" y="690.0" type="line"/>
      <point x="129.80475143843165" y="526.0" type="line"/>
    </contour>
  </outline>
</glyph>
<glyph name="quotedbl" format="1">
  <advance width="430"/>
  <unicode hex="0022"/>
  <outline>
    <contour>
      <point x="134.04072440241592" y="720.0" type="line"/>
      <point x="88.92126718792832" y="376.0" type="line"/>
      <point x="176.92126718792832" y="376.0" type="line"/>
      <point x="278.0407244024159" y="720.0" type="line"/>
    </contour>
    <contour>
      <point x="339.0407244024159" y="720.0" type="line"/>
      <point x="293.9212671879283" y="376.0" type="line"/>
      <point x="381.9212671879283" y="376.0" type="line"/>
      <point x="483.0407244024159" y="720.0" type="line"/>
    </contour>
  </outline>
</glyph>
<glyph name="numbersign" format="1">
  <advance width="691"/>
  <unicode hex="0023"/>
  <outline>
    <contour>
      <point x="14.820701442153208" y="145.0" type="line"/>
      <point x="562.8207014421532" y="145.0" type="line"/>
      <point x="588.7526019658959" y="267.0" type="line"/>
      <point x="40.752601965895906" y="267.0" type="line"/>
    </contour>
    <contour>
      <point x="31.0" y="0.0" type="line"/>
      <point x="159.0" y="0.0" type="line"/>
      <point x="446.66402755231525" y="690.0" type="line"/>
      <point x="318.66402755231525" y="690.0" type="line"/>
    </contour>
    <contour>
      <point x="128.91142558641934" y="423.0" type="line"/>
      <point x="676.9114255864193" y="423.0" type="line"/>
      <point x="702.843326110162" y="545.0" type="line"/>
      <point x="154.84332611016205" y="545.0" type="line"/>
    </contour>
    <contour>
      <point x="271.0" y="0.0" type="line"/>
      <point x="399.0" y="0.0" type="line"/>
      <point x="686.6640275523152" y="690.0" type="line"/>
      <point x="558.6640275523152" y="690.0" type="line"/>
    </contour>
  </outline>
</glyph>
<glyph name="dollar" format="1">
  <advance width="500"/>
  <unicode hex="0024"/>
  <outline>
    <contour>
      <point x="-35.6959275597584" y="72.0" type="line"/>
      <point x="23.251131233400443" y="20.0"/>
      <point x="93.44932125995973" y="-12.0"/>
      <point x="178.44932125995973" y="-12.0" type="curve"/>
      <point x="331.44932125995973" y="-12.0"/>
      <point x="440.8547511802819" y="84.0"/>
      <point x="466.1489820190145" y="203.0" type="curve" smooth="yes"/>
      <point x="485.06651600764644" y="292.0"/>
      <point x="442.7957015712281" y="366.0"/>
      <point x="312.91142558641934" y="423.0" type="curve" smooth="yes"/>
      <point x="244.50067899819004" y="454.0"/>
      <point x="224.02714960161063" y="480.0"/>
      <point x="230.82895957505133" y="512.0" type="curve" smooth="yes"/>
      <point x="237.84332611016202" y="545.0"/>
      <point x="272.00746639859267" y="574.0"/>
      <point x="325.00746639859267" y="574.0" type="curve" smooth="yes"/>
      <point x="378.00746639859267" y="574.0"/>
      <point x="423.9061089185122" y="550.0"/>
      <point x="459.6791858217314" y="516.0" type="curve"/>
      <point x="545.9734166604641" y="635.0" type="line"/>
      <point x="504.0505660039249" y="673.0"/>
      <point x="430.2147062923556" y="702.0"/>
      <point x="354.2147062923556" y="702.0" type="curve" smooth="yes"/>
      <point x="204.21470629235557" y="702.0"/>
      <point x="108.44694605704348" y="609.0"/>
      <point x="85.70339395835111" y="502.0" type="curve" smooth="yes"/>
      <point x="66.3607468463791" y="411.0"/>
      <point x="112.18224002283773" y="349.0"/>
      <point x="233.85395944597644" y="291.0" type="curve" smooth="yes"/>
      <point x="316.5642535408456" y="252.0"/>
      <point x="322.40011325241494" y="223.0"/>
      <point x="316.2359729639843" y="194.0" type="curve"/>
      <point x="307.3085973738434" y="152.0"/>
      <point x="270.29423083873263" y="119.0"/>
      <point x="210.29423083873263" y="119.0" type="curve" smooth="yes"/>
      <point x="153.29423083873263" y="119.0"/>
      <point x="92.6709276888333" y="149.0"/>
      <point x="55.59830327897423" y="191.0" type="curve"/>
    </contour>
    <contour>
      <point x="115.7443438329978" y="-100.0" type="line"/>
      <point x="240.7443438329978" y="-100.0" type="line"/>
      <point x="279.4296380569418" y="82.0" type="line"/>
      <point x="154.42963805694183" y="82.0" type="line"/>
    </contour>
    <contour>
      <point x="263.8962673170032" y="597.0" type="line"/>
      <point x="388.8962673170032" y="597.0" type="line"/>
      <point x="429.9196837193175" y="790.0" type="line"/>
      <point x="304.9196837193175" y="790.0" type="line"/>
    </contour>
  </outline>
</glyph>
<glyph name="ampersand" format="1">
  <advance width="554"/>
  <unicode hex="0026"/>
  <outline>
    <contour>
      <point x="7.772285168913825" y="173.0" type="curve" smooth="yes"/>
      <point x="-16.03404973812865" y="61.0"/>
      <point x="49.59606039039451" y="-12.0"/>
      <point x="157.44932125995973" y="-12.0" type="curve" smooth="yes"/>
      <point x="328.66976854430476" y="-12.0"/>
      <point x="441.7579186338031" y="140.0"/>
      <point x="531.5544119393367" y="299.0" type="curve"/>
      <point x="430.4817875294775" y="341.0" type="line"/>
      <point x="371.65807360568454" y="214.80434782608697"/>
      <point x="276.6565611537226" y="116.0"/>
      <point x="202.65656115372258" y="116.0" type="curve" smooth="yes"/>
      <point x="157.65656115372258" y="116.0"/>
      <point x="135.82070144215322" y="145.0"/>
      <point x="144.5355204706241" y="186.0" type="curve" smooth="yes"/>
      <point x="151.8845057513342" y="220.5742574257426"/>
      <point x="178.9265838558355" y="249.0"/>
      <point x="232.15350695261628" y="283.0" type="curve" smooth="yes"/>
      <point x="329.5445703378276" y="346.0" type="line"/>
      <point x="411.3453211994373" y="406.2227979274611"/>
      <point x="467.5103192688555" y="472.86387434554973"/>
      <point x="482.418212986822" y="543.0" type="curve" smooth="yes"/>
      <point x="501.73049487569835" y="633.8571428571429"/>
      <point x="451.00988701524716" y="702.0"/>
      <point x="352.2147062923556" y="702.0" type="curve" smooth="yes"/>
      <point x="247.21470629235557" y="702.0"/>
      <point x="161.6980772904439" y="629.0"/>
      <point x="139.80475143843165" y="526.0" type="curve" smooth="yes"/>
      <point x="123.86300931317999" y="451.0"/>
      <point x="146.89104572064042" y="400.0"/>
      <point x="178.48178752947754" y="341.0" type="curve"/>
      <point x="347.0" y="0.0" type="line"/>
      <point x="505.0" y="0.0" type="line"/>
      <point x="307.935633723039" y="409.0" type="line" smooth="yes"/>
      <point x="282.2011314915502" y="462.0"/>
      <point x="262.15271521831085" y="490.0"/>
      <point x="271.93031705513187" y="536.0" type="curve" smooth="yes"/>
      <point x="278.51957046690256" y="567.0"/>
      <point x="299.8334845086531" y="592.0"/>
      <point x="328.8334845086531" y="592.0" type="curve"/>
      <point x="356.8334845086531" y="592.0"/>
      <point x="367.51957046690256" y="567.0"/>
      <point x="360.93031705513187" y="536.0" type="curve" smooth="yes"/>
      <point x="351.5778283416509" y="492.0"/>
      <point x="319.81374461489025" y="464.0"/>
      <point x="280.67466088812967" y="436.0" type="curve"/>
      <point x="179.28359750291827" y="373.0" type="line"/>
      <point x="81.01809973440709" y="320.0"/>
      <point x="24.564253540845584" y="252.0"/>
    </contour>
  </outline>
</glyph>
<glyph name="quotesingle" format="1">
  <advance width="236"/>
  <unicode hex="0027"/>
  <outline>
    <contour>
      <point x="139.04072440241592" y="720.0" type="line"/>
      <point x="93.92126718792832" y="376.0" type="line"/>
      <point x="181.92126718792832" y="376.0" type="line"/>
      <point x="283.0407244024159" y="720.0" type="line"/>
    </contour>
  </outline>
</glyph>
<glyph name="parenleft" format="1">
  <advance width="246"/>
  <unicode hex="0028"/>
  <outline>
    <contour>
      <point x="48.54004540422588" y="266.0" type="curve" smooth="yes"/>
      <point x="1.139932151810953" y="43.0"/>
      <point x="35.855542914587275" y="-123.0"/>
      <point x="102.58552021247434" y="-256.0" type="curve"/>
      <point x="191.6384614193155" y="-204.0" type="line"/>
      <point x="142.6089366147886" y="-63.0"/>
      <point x="140.61798648199215" y="97.0"/>
      <point x="176.54004540422588" y="266.0" type="curve" smooth="yes"/>
      <point x="211.82443464144956" y="432.0"/>
      <point x="283.1088238786732" y="598.0"/>
      <point x="392.50441219748643" y="741.0" type="curve"/>
      <point x="325.55735340432756" y="793.0" type="line"/>
      <point x="201.86221757887455" y="658.0"/>
      <point x="94.23970616328063" y="481.0"/>
    </contour>
  </outline>
</glyph>
<glyph name="parenright" format="1">
  <advance width="246"/>
  <unicode hex="0029"/>
  <outline>
    <contour>
      <point x="-152.57409514235454" y="-205.0" type="curve"/>
      <point x="-85.62703634919569" y="-257.0" type="line"/>
      <point x="38.0680994762573" y="-122.0"/>
      <point x="145.6906108918512" y="55.0"/>
      <point x="191.39027165090596" y="270.0" type="curve" smooth="yes"/>
      <point x="238.7903849033209" y="493.0"/>
      <point x="204.0747741405446" y="659.0"/>
      <point x="137.34479684265753" y="792.0" type="curve"/>
      <point x="48.291855635816376" y="740.0" type="line"/>
      <point x="97.32138044034326" y="599.0"/>
      <point x="99.31233057313972" y="439.0"/>
      <point x="63.39027165090597" y="270.0" type="curve" smooth="yes"/>
      <point x="28.10588241368231" y="104.0"/>
      <point x="-43.17850682354137" y="-62.0"/>
    </contour>
  </outline>
</glyph>
<glyph name="asterisk" format="1">
  <advance width="524"/>
  <unicode hex="002A"/>
  <outline>
    <contour>
      <point x="69.96436679326052" y="475.0" type="line"/>
      <point x="226.95000025814977" y="442.0" type="line"/>
      <point x="88.01809973440709" y="320.0" type="line"/>
      <point x="179.22613136247534" y="241.0" type="line"/>
      <point x="292.4719459279686" y="388.0" type="line"/>
      <point x="342.2261313624753" y="241.0" type="line"/>
      <point x="468.0180997344071" y="320.0" type="line"/>
      <point x="380.95000025814977" y="442.0" type="line"/>
      <point x="550.9643667932605" y="475.0" type="line"/>
      <point x="537.1716066870233" y="603.0" type="line"/>
      <point x="370.08009080845176" y="532.0" type="line"/>
      <point x="424.1519234840054" y="697.0" type="line"/>
      <point x="291.1519234840054" y="697.0" type="line"/>
      <point x="276.08009080845176" y="532.0" type="line"/>
      <point x="139.17160668702334" y="603.0" type="line"/>
    </contour>
  </outline>
</glyph>
<glyph name="plus" format="1">
  <advance width="500"/>
  <unicode hex="002B"/>
  <outline>
    <contour>
      <point x="30.612669814084953" y="224.0" type="line"/>
      <point x="445.61266981408494" y="224.0" type="line"/>
      <point x="473.67013595452784" y="356.0" type="line"/>
      <point x="58.67013595452788" y="356.0" type="line"/>
    </contour>
    <contour>
      <point x="137.47805433018118" y="54.0" type="line"/>
      <point x="265.4780543301812" y="54.0" type="line"/>
      <point x="365.80475143843165" y="526.0" type="line"/>
      <point x="237.80475143843165" y="526.0" type="line"/>
    </contour>
  </outline>
</glyph>
<glyph name="comma" format="1">
  <advance width="244"/>
  <unicode hex="002C"/>
  <outline>
    <contour>
      <point x="-49.17319015563418" y="-189.0" type="line"/>
      <point x="30.826809844365812" y="-189.0" type="line"/>
      <point x="106.15961535482887" y="-51.0" type="line" smooth="yes"/>
      <point x="136.99788004142798" y="4.694656488549619"/>
      <point x="159.68236764500983" y="40.847328244274806"/>
      <point x="167.36685524859172" y="77.0" type="curve" smooth="yes"/>
      <point x="178.80093235911704" y="130.79310344827587"/>
      <point x="146.0475075966465" y="167.0"/>
      <point x="96.4969457988937" y="167.0" type="curve" smooth="yes"/>
      <point x="48.04750759664651" y="167.0"/>
      <point x="-0.2178732295772079" y="126.0"/>
      <point x="-10.420588189738275" y="78.0" type="curve" smooth="yes"/>
      <point x="-18.774692980073823" y="38.69702706564919"/>
      <point x="1.9848270255753064" y="5.47124915296782"/>
      <point x="30.51210406830984" y="-7.0" type="curve"/>
    </contour>
  </outline>
</glyph>
<glyph name="hyphen" format="1">
  <advance width="338"/>
  <unicode hex="002D"/>
  <outline>
    <contour>
      <point x="31.337330444064833" y="218.0" type="line"/>
      <point x="279.33733044406483" y="218.0" type="line"/>
      <point x="305.90690065281757" y="343.0" type="line"/>
      <point x="57.90690065281758" y="343.0" type="line"/>
    </contour>
  </outline>
</glyph>
<glyph name="period" format="1">
  <advance width="244"/>
  <unicode hex="002E"/>
  <outline>
    <contour>
      <point x="-10.420588189738275" y="78.0" type="curve" smooth="yes"/>
      <point x="-20.835859711569356" y="29.0"/>
      <point x="10.449321259959731" y="-12.0"/>
      <point x="59.44932125995973" y="-12.0" type="curve" smooth="yes"/>
      <point x="108.44932125995973" y="-12.0"/>
      <point x="157.16414028843064" y="29.0"/>
      <point x="167.57941181026172" y="78.0" type="curve" smooth="yes"/>
      <point x="177.7821267704228" y="126.0"/>
      <point x="146.4969457988937" y="167.0"/>
      <point x="97.4969457988937" y="167.0" type="curve" smooth="yes"/>
      <point x="48.496945798893705" y="167.0"/>
      <point x="-0.2178732295772079" y="126.0"/>
    </contour>
  </outline>
</glyph>
<glyph name="slash" format="1">
  <advance width="342"/>
  <unicode hex="002F"/>
  <outline>
    <contour>
      <point x="-66.37669685010066" y="-30.0" type="line"/>
      <point x="65.62330314989934" y="-30.0" type="line"/>
      <point x="435.0407244024159" y="720.0" type="line"/>
      <point x="303.0407244024159" y="720.0" type="line"/>
    </contour>
  </outline>
</glyph>
<glyph name="zero" format="1">
  <advance width="500"/>
  <unicode hex="0030"/>
  <outline>
    <contour>
      <point x="33.33201377615764" y="345.0" type="curve" smooth="yes"/>
      <point x="-22.995475066398228" y="80.0"/>
      <point x="55.44932125995973" y="-12.0"/>
      <point x="187.44932125995973" y="-12.0" type="curve" smooth="yes"/>
      <point x="320.44932125995973" y="-12.0"/>
      <point x="437.0045249336018" y="80.0"/>
      <point x="493.3320137761576" y="345.0" type="curve" smooth="yes"/>
      <point x="549.6595026187135" y="610.0"/>
      <point x="472.2147062923556" y="702.0"/>
      <point x="339.2147062923556" y="702.0" type="curve" smooth="yes"/>
      <point x="207.21470629235557" y="702.0"/>
      <point x="89.6595026187135" y="610.0"/>
    </contour>
    <contour>
      <point x="173.33201377615762" y="345.0" type="curve" smooth="yes"/>
      <point x="208.82895957505133" y="512.0"/>
      <point x="260.3931336852934" y="567.0"/>
      <point x="310.51957046690256" y="567.0" type="curve" smooth="yes"/>
      <point x="360.64600724851175" y="567.0"/>
      <point x="388.82895957505133" y="512.0"/>
      <point x="353.3320137761576" y="345.0" type="curve" smooth="yes"/>
      <point x="317.8350679772639" y="178.0"/>
      <point x="266.2708938670219" y="123.0"/>
      <point x="216.14445708541274" y="123.0" type="curve" smooth="yes"/>
      <point x="166.01802030380352" y="123.0"/>
      <point x="137.83506797726395" y="178.0"/>
    </contour>
  </outline>
</glyph>
<glyph name="one" format="1">
  <advance width="500"/>
  <unicode hex="0031"/>
  <outline>
    <contour>
      <point x="7.0" y="0.0" type="line"/>
      <point x="395.0" y="0.0" type="line"/>
      <point x="420.9319005237427" y="122.0" type="line"/>
      <point x="32.9319005237427" y="122.0" type="line"/>
    </contour>
    <contour>
      <point x="118.29717230372356" y="613.0" type="line"/>
      <point x="135.7903849033209" y="493.0" type="line"/>
      <point x="311.0316745352124" y="560.0" type="line"/>
      <point x="326.66402755231525" y="690.0" type="line"/>
    </contour>
    <contour>
      <point x="134.0" y="0.0" type="line"/>
      <point x="274.0" y="0.0" type="line"/>
      <point x="420.66402755231525" y="690.0" type="line"/>
      <point x="326.66402755231525" y="690.0" type="line"/>
      <point x="269.39852978380407" y="637.0" type="line"/>
    </contour>
  </outline>
</glyph>
<glyph name="two" format="1">
  <advance width="500"/>
  <unicode hex="0032"/>
  <outline>
    <contour>
      <point x="91.25859763199315" y="594.0" type="curve"/>
      <point x="145.7903849033209" y="493.0" type="line"/>
      <point x="195.71776049346184" y="535.0"/>
      <point x="244.66934422022246" y="563.0"/>
      <point x="287.66934422022246" y="563.0" type="curve" smooth="yes"/>
      <point x="337.36165191253014" y="563.0"/>
      <point x="356.2298645617717" y="528.0"/>
      <point x="347.08993240996074" y="485.0" type="curve" smooth="yes"/>
      <point x="337.3123305731397" y="439.0"/>
      <point x="301.5975115446688" y="398.0"/>
      <point x="225.65576941941714" y="323.0" type="curve" smooth="yes"/>
      <point x="0.04309960533218771" y="99.0" type="line"/>
      <point x="57.0" y="0.0" type="line"/>
      <point x="291.1005657457751" y="231.0" type="line" smooth="yes"/>
      <point x="408.69434409114757" y="342.0"/>
      <point x="472.5733034080491" y="412.0"/>
      <point x="491.70339395835117" y="502.0" type="curve" smooth="yes"/>
      <point x="516.9976247970837" y="621.0"/>
      <point x="448.2147062923556" y="702.0"/>
      <point x="333.2147062923556" y="702.0" type="curve" smooth="yes"/>
      <point x="246.21470629235557" y="702.0"/>
      <point x="161.43710445553452" y="656.0"/>
    </contour>
    <contour>
      <point x="-21.0" y="0.0" type="line"/>
      <point x="395.0" y="0.0" type="line"/>
      <point x="423.0574661404429" y="132.0" type="line"/>
      <point x="84.05746614044293" y="132.0" type="line"/>
      <point x="0.04309960533218771" y="99.0" type="line"/>
    </contour>
  </outline>
</glyph>
<glyph name="three" format="1">
  <advance width="500"/>
  <unicode hex="0033"/>
  <outline>
    <contour>
      <point x="-24.483370998088382" y="73.0" type="line"/>
      <point x="15.88880091841051" y="23.0"/>
      <point x="81.6829661197728" y="-12.0"/>
      <point x="168.44932125995973" y="-12.0" type="curve" smooth="yes"/>
      <point x="296.1145194978452" y="-12.0"/>
      <point x="415.2412896318915" y="67.0"/>
      <point x="447.54988700573483" y="219.0" type="curve" smooth="yes"/>
      <point x="474.75712689949773" y="347.0"/>
      <point x="398.48631246307934" y="421.0"/>
      <point x="273.48631246307934" y="421.0" type="curve"/>
      <point x="214.48631246307934" y="421.0" type="line"/>
      <point x="162.89705905130864" y="390.0" type="line"/>
      <point x="145.46742099436682" y="308.0" type="line"/>
      <point x="206.46742099436682" y="308.0" type="line" smooth="yes"/>
      <point x="288.5013192994516" y="308.0"/>
      <point x="319.602828212576" y="271.0"/>
      <point x="308.1247738823948" y="217.0" type="curve" smooth="yes"/>
      <point x="295.15882362052344" y="156.0"/>
      <point x="248.29423083873263" y="119.0"/>
      <point x="186.29423083873263" y="119.0" type="curve" smooth="yes"/>
      <point x="137.29423083873263" y="119.0"/>
      <point x="96.39558831881317" y="143.0"/>
      <point x="70.26018110060397" y="180.0" type="curve"/>
    </contour>
    <contour>
      <point x="107.60656141187235" y="558.0" type="line"/>
      <point x="451.60656141187235" y="558.0" type="line"/>
      <point x="499.6209279469831" y="591.0" type="line"/>
      <point x="520.6640275523152" y="690.0" type="line"/>
      <point x="135.66402755231528" y="690.0" type="line"/>
    </contour>
    <contour>
      <point x="162.89705905130864" y="390.0" type="line"/>
      <point x="302.89705905130864" y="390.0" type="line"/>
      <point x="499.6209279469831" y="591.0" type="line"/>
      <point x="449.66402755231525" y="690.0" type="line"/>
    </contour>
  </outline>
</glyph>
<glyph name="four" format="1">
  <advance width="500"/>
  <unicode hex="0034"/>
  <outline>
    <contour>
      <point x="-1.5128958026152617" y="214.0" type="line"/>
      <point x="73.50678740040266" y="120.0" type="line"/>
      <point x="435.66402755231525" y="690.0" type="line"/>
      <point x="326.66402755231525" y="690.0" type="line"/>
    </contour>
    <contour>
      <point x="-21.493212599597342" y="120.0" type="line"/>
      <point x="453.5067874004027" y="120.0" type="line"/>
      <point x="480.5014707324955" y="247.0" type="line"/>
      <point x="43.50147073249546" y="247.0" type="line"/>
      <point x="-1.5128958026152617" y="214.0" type="line"/>
    </contour>
    <contour>
      <point x="227.0" y="0.0" type="line"/>
      <point x="361.0" y="0.0" type="line"/>
      <point x="507.66402755231525" y="690.0" type="line"/>
      <point x="373.66402755231525" y="690.0" type="line"/>
    </contour>
  </outline>
</glyph>
<glyph name="five" format="1">
  <advance width="500"/>
  <unicode hex="0035"/>
  <outline>
    <contour>
      <point x="-14.270814436418362" y="74.0" type="line"/>
      <point x="28.55286038601612" y="19.0"/>
      <point x="93.63979745043594" y="-12.0"/>
      <point x="179.44932125995973" y="-12.0" type="curve" smooth="yes"/>
      <point x="292.45801691213364" y="-12.0"/>
      <point x="423.6036199468814" y="64.0"/>
      <point x="456.76244356740483" y="220.0" type="curve" smooth="yes"/>
      <point x="485.88269251619795" y="357.0"/>
      <point x="415.42002288083205" y="439.0"/>
      <point x="306.3123305731397" y="439.0" type="curve" smooth="yes"/>
      <point x="241.16394347636555" y="439.0"/>
      <point x="181.35331135205834" y="413.0289855072464"/>
      <point x="139.7087106262583" y="375.0" type="curve"/>
      <point x="116.54004540422588" y="266.0" type="line"/>
      <point x="154.86379293661406" y="297.75471698113205"/>
      <point x="196.38043004939703" y="317.0"/>
      <point x="237.38043004939703" y="317.0" type="curve" smooth="yes"/>
      <point x="306.38043004939703" y="317.0"/>
      <point x="328.80035552241077" y="271.92929292929296"/>
      <point x="317.7624435674049" y="220.0" type="curve" smooth="yes"/>
      <point x="304.5345549164048" y="157.76767676767676"/>
      <point x="254.4823496506138" y="119.0"/>
      <point x="193.29423083873263" y="119.0" type="curve" smooth="yes"/>
      <point x="142.29423083873263" y="119.0"/>
      <point x="106.6081448804832" y="144.0"/>
      <point x="80.04762453893397" y="179.0" type="curve"/>
    </contour>
    <contour>
      <point x="67.67997755603683" y="309.0" type="line"/>
      <point x="116.54004540422588" y="266.0" type="line"/>
      <point x="194.84411784446746" y="338.0" type="line"/>
      <point x="286.66402755231525" y="690.0" type="line"/>
      <point x="167.66402755231528" y="690.0" type="line"/>
    </contour>
    <contour>
      <point x="167.66402755231528" y="690.0" type="line"/>
      <point x="193.81911797354235" y="559.0" type="line"/>
      <point x="488.81911797354235" y="559.0" type="line"/>
      <point x="516.6640275523152" y="690.0" type="line"/>
    </contour>
  </outline>
</glyph>
<glyph name="six" format="1">
  <advance width="500"/>
  <unicode hex="0036"/>
  <outline>
    <contour>
      <point x="30.979525062676657" y="301.0" type="curve" smooth="yes"/>
      <point x="-11.106674147987718" y="103.0"/>
      <point x="56.44932125995973" y="-12.0"/>
      <point x="200.44932125995973" y="-12.0" type="curve"/>
      <point x="320.44932125995973" y="-12.0"/>
      <point x="435.61798648199215" y="97.0"/>
      <point x="464.95079199245515" y="235.0" type="curve" smooth="yes"/>
      <point x="493.64592781790816" y="370.0"/>
      <point x="431.52368216960633" y="448.0"/>
      <point x="325.2253396281699" y="448.0" type="curve" smooth="yes"/>
      <point x="268.9187702851042" y="448.0"/>
      <point x="211.72718837548803" y="421.0"/>
      <point x="177.98404999627843" y="381.0" type="curve"/>
      <point x="156.5158372676062" y="280.0" type="line"/>
      <point x="190.2548644326968" y="307.0"/>
      <point x="226.09110878943727" y="329.0"/>
      <point x="268.9311087894373" y="329.0" type="curve" smooth="yes"/>
      <point x="319.3311087894373" y="329.0"/>
      <point x="346.97952506267666" y="301.0"/>
      <point x="331.25033949909505" y="227.0" type="curve" smooth="yes"/>
      <point x="318.7095023605637" y="168.0"/>
      <point x="280.6565611537226" y="116.0"/>
      <point x="226.65656115372258" y="116.0" type="curve"/>
      <point x="169.65656115372258" y="116.0"/>
      <point x="140.472737662274" y="181.0"/>
      <point x="160.87816758259612" y="277.0" type="curve" smooth="yes"/>
      <point x="206.15271521831085" y="490.0"/>
      <point x="312.79490983692267" y="573.0"/>
      <point x="374.79490983692267" y="573.0" type="curve" smooth="yes"/>
      <point x="396.79490983692267" y="573.0"/>
      <point x="423.8511587031078" y="568.56"/>
      <point x="448.33122204185224" y="552.0" type="curve"/>
      <point x="531.5626700722347" y="666.0" type="line"/>
      <point x="496.25660713512434" y="690.6315789473684"/>
      <point x="466.2147062923556" y="702.0"/>
      <point x="410.2147062923556" y="702.0" type="curve"/>
      <point x="252.21470629235557" y="702.0"/>
      <point x="81.99309986348197" y="541.0"/>
    </contour>
  </outline>
</glyph>
<glyph name="seven" format="1">
  <advance width="500"/>
  <unicode hex="0037"/>
  <outline>
    <contour>
      <point x="85.26843923350211" y="547.0" type="line"/>
      <point x="459.26843923350214" y="547.0" type="line"/>
      <point x="508.3455885769629" y="585.0" type="line"/>
      <point x="530.6640275523152" y="690.0" type="line"/>
      <point x="115.66402755231528" y="690.0" type="line"/>
    </contour>
    <contour>
      <point x="39.0" y="0.0" type="line"/>
      <point x="190.0" y="0.0" type="line"/>
      <point x="508.3455885769629" y="585.0" type="line"/>
      <point x="422.66402755231525" y="690.0" type="line"/>
    </contour>
  </outline>
</glyph>
<glyph name="eight" format="1">
  <advance width="500"/>
  <unicode hex="0038"/>
  <outline>
    <contour>
      <point x="2.9848417305838524" y="174.0" type="curve" smooth="yes"/>
      <point x="-20.183823491448564" y="65.0"/>
      <point x="55.44932125995973" y="-12.0"/>
      <point x="184.44932125995973" y="-12.0" type="curve" smooth="yes"/>
      <point x="306.9074710396954" y="-12.0"/>
      <point x="425.5408371385313" y="59.0"/>
      <point x="453.5983032789742" y="191.0" type="curve" smooth="yes"/>
      <point x="473.3660635142862" y="284.0"/>
      <point x="434.4391720104714" y="357.4666666666667"/>
      <point x="300.84864277806923" y="418.0" type="curve" smooth="yes"/>
      <point x="238.43856724756216" y="446.38947368421054"/>
      <point x="225.38947991660052" y="477.0"/>
      <point x="232.61640301338127" y="511.0" type="curve" smooth="yes"/>
      <point x="240.26843923350214" y="547.0"/>
      <point x="273.3364903205243" y="582.0"/>
      <point x="316.7079188919529" y="582.0" type="curve" smooth="yes"/>
      <point x="360.359434043468" y="582.0"/>
      <point x="376.9061089185122" y="550.0"/>
      <point x="368.6164030133813" y="511.0" type="curve" smooth="yes"/>
      <point x="359.47647086157036" y="468.0"/>
      <point x="323.381854814531" y="430.8247422680413"/>
      <point x="269.1481902847091" y="410.0" type="curve"/>
      <point x="344.52036220120794" y="360.0" type="line"/>
      <point x="411.04683280462854" y="386.0"/>
      <point x="484.5876699431599" y="445.0"/>
      <point x="503.0800908084518" y="532.0" type="curve" smooth="yes"/>
      <point x="524.7608600987941" y="634.0"/>
      <point x="458.3899640243143" y="702.0"/>
      <point x="343.2147062923556" y="702.0" type="curve" smooth="yes"/>
      <point x="215.4491560531211" y="702.0"/>
      <point x="117.93484198873364" y="616.0"/>
      <point x="96.67918582173144" y="516.0" type="curve" smooth="yes"/>
      <point x="78.1867649564395" y="429.0"/>
      <point x="112.8573657818987" y="359.1588785046729"/>
      <point x="241.91674225432655" y="296.0" type="curve" smooth="yes"/>
      <point x="313.7942247022812" y="261.6666666666667"/>
      <point x="323.8880091841051" y="230.0"/>
      <point x="316.0234164023143" y="193.0" type="curve" smooth="yes"/>
      <point x="306.88348425050333" y="150.0"/>
      <point x="269.59377834537247" y="111.0"/>
      <point x="214.59377834537247" y="111.0" type="curve" smooth="yes"/>
      <point x="162.59377834537247" y="111.0"/>
      <point x="134.09604081217333" y="151.0"/>
      <point x="143.2359729639843" y="194.0" type="curve" smooth="yes"/>
      <point x="153.65124448581537" y="243.0"/>
      <point x="194.70756100667032" y="283.0"/>
      <point x="239.6171947476867" y="304.0" type="curve"/>
      <point x="185.22081469456816" y="368.0" type="line"/>
      <point x="114.21040411333797" y="339.68648648648644"/>
      <point x="23.815384774246013" y="272.0"/>
    </contour>
  </outline>
</glyph>
<glyph name="nine" format="1">
  <advance width="500"/>
  <unicode hex="0039"/>
  <outline>
    <contour>
      <point x="60.65045275150996" y="450.0" type="curve" smooth="yes"/>
      <point x="34.037545768047764" y="324.79611650485435"/>
      <point x="96.43868792414537" y="242.0"/>
      <point x="203.43868792414537" y="242.0" type="curve" smooth="yes"/>
      <point x="259.43868792414537" y="242.0"/>
      <point x="316.1306261534652" y="268.0"/>
      <point x="350.25486443269676" y="307.0" type="curve"/>
      <point x="373.2109730930592" y="415.0" type="line"/>
      <point x="344.04683280462854" y="386.0"/>
      <point x="301.732918762878" y="361.0"/>
      <point x="257.732918762878" y="361.0" type="curve" smooth="yes"/>
      <point x="208.732918762878" y="361.0"/>
      <point x="183.85683054990625" y="399.22"/>
      <point x="196.56346180654015" y="459.0" type="curve" smooth="yes"/>
      <point x="209.75889791375437" y="521.0796460176991"/>
      <point x="256.8309958103574" y="574.0"/>
      <point x="308.00746639859267" y="574.0" type="curve" smooth="yes"/>
      <point x="358.93530145013904" y="574.0"/>
      <point x="393.01730800010165" y="527.0"/>
      <point x="360.70871062625827" y="375.0" type="curve" smooth="yes"/>
      <point x="316.4969457988937" y="167.0"/>
      <point x="229.39505354310148" y="115.0"/>
      <point x="160.44400459205255" y="115.0" type="curve" smooth="yes"/>
      <point x="129.44400459205255" y="115.0"/>
      <point x="101.14445708541271" y="123.0"/>
      <point x="74.39558831881317" y="143.0" type="curve"/>
      <point x="-4.985633464889268" y="33.0" type="line"/>
      <point x="32.850226246680094" y="3.9999999999999964"/>
      <point x="81.44932125995973" y="-12.0"/>
      <point x="138.44932125995973" y="-12.0" type="curve" smooth="yes"/>
      <point x="281.50117311181157" y="-12.0"/>
      <point x="436.3812217837024" y="110.0"/>
      <point x="493.1338237495984" y="377.0" type="curve" smooth="yes"/>
      <point x="536.9204754536229" y="583.0"/>
      <point x="477.9839370615863" y="702.0"/>
      <point x="343.2147062923556" y="702.0" type="curve" smooth="yes"/>
      <point x="202.9900366888313" y="702.0"/>
      <point x="91.43935439309837" y="594.8503937007874"/>
    </contour>
  </outline>
</glyph>
<glyph name="colon" format="1">
  <advance width="244"/>
  <unicode hex="003A"/>
  <outline>
    <contour>
      <point x="-10.420588189738275" y="78.0" type="curve" smooth="yes"/>
      <point x="-20.835859711569356" y="29.0"/>
      <point x="10.449321259959731" y="-12.0"/>
      <point x="59.44932125995973" y="-12.0" type="curve" smooth="yes"/>
      <point x="108.44932125995973" y="-12.0"/>
      <point x="157.16414028843064" y="29.0"/>
      <point x="167.57941181026172" y="78.0" type="curve" smooth="yes"/>
      <point x="177.7821267704228" y="126.0"/>
      <point x="146.4969457988937" y="167.0"/>
      <point x="97.4969457988937" y="167.0" type="curve" smooth="yes"/>
      <point x="48.496945798893705" y="167.0"/>
      <point x="-0.2178732295772079" y="126.0"/>
    </contour>
    <contour>
      <point x="68.43789618983993" y="449.0" type="curve" smooth="yes"/>
      <point x="58.022624668008845" y="400.0"/>
      <point x="89.30780563953795" y="359.0"/>
      <point x="138.30780563953795" y="359.0" type="curve" smooth="yes"/>
      <point x="187.30780563953795" y="359.0"/>
      <point x="236.02262466800886" y="400.0"/>
      <point x="246.43789618983993" y="449.0" type="curve" smooth="yes"/>
      <point x="256.640611150001" y="497.0"/>
      <point x="225.35543017847192" y="538.0"/>
      <point x="176.35543017847192" y="538.0" type="curve" smooth="yes"/>
      <point x="127.35543017847192" y="538.0"/>
      <point x="78.640611150001" y="497.0"/>
    </contour>
  </outline>
</glyph>
<glyph name="semicolon" format="1">
  <advance width="244"/>
  <unicode hex="003B"/>
  <outline>
    <contour>
      <point x="-49.17319015563418" y="-189.0" type="line"/>
      <point x="30.826809844365812" y="-189.0" type="line"/>
      <point x="106.15961535482887" y="-51.0" type="line" smooth="yes"/>
      <point x="137.0627828083501" y="5.0"/>
      <point x="159.7148190284709" y="41.0"/>
      <point x="167.36685524859172" y="77.0" type="curve" smooth="yes"/>
      <point x="178.8449095787729" y="131.0"/>
      <point x="146.4969457988937" y="167.0"/>
      <point x="96.4969457988937" y="167.0" type="curve" smooth="yes"/>
      <point x="48.496945798893705" y="167.0"/>
      <point x="-0.2178732295772079" y="126.0"/>
      <point x="-10.420588189738275" y="78.0" type="curve" smooth="yes"/>
      <point x="-18.71029409486914" y="39.0"/>
      <point x="2.062782808350107" y="5.0"/>
      <point x="30.51210406830984" y="-7.0" type="curve"/>
    </contour>
    <contour>
      <point x="68.43789618983993" y="449.0" type="curve" smooth="yes"/>
      <point x="58.022624668008845" y="400.0"/>
      <point x="89.30780563953795" y="359.0"/>
      <point x="138.30780563953795" y="359.0" type="curve" smooth="yes"/>
      <point x="187.30780563953795" y="359.0"/>
      <point x="236.02262466800886" y="400.0"/>
      <point x="246.43789618983993" y="449.0" type="curve" smooth="yes"/>
      <point x="256.640611150001" y="497.0"/>
      <point x="225.35543017847192" y="538.0"/>
      <point x="176.35543017847192" y="538.0" type="curve" smooth="yes"/>
      <point x="127.35543017847192" y="538.0"/>
      <point x="78.640611150001" y="497.0"/>
    </contour>
  </outline>
</glyph>
<glyph name="less" format="1">
  <advance width="500"/>
  <unicode hex="003C"/>
  <outline>
    <contour>
      <point x="41.61266981408495" y="224.0" type="line"/>
      <point x="376.8645927817908" y="37.0" type="line"/>
      <point x="410.87364264899435" y="197.0" type="line"/>
      <point x="160.0180997344071" y="320.0" type="line"/>
      <point x="62.01809973440709" y="320.0" type="line"/>
    </contour>
    <contour>
      <point x="49.47726259587577" y="261.0" type="line"/>
      <point x="147.47726259587577" y="261.0" type="line"/>
      <point x="450.1966065579485" y="382.0" type="line"/>
      <point x="483.3554301784719" y="538.0" type="line"/>
      <point x="68.60735314617779" y="351.0" type="line"/>
    </contour>
  </outline>
</glyph>
<glyph name="greater" format="1">
  <advance width="500"/>
  <unicode hex="003E"/>
  <outline>
    <contour>
      <point x="18.86459278179082" y="37.0" type="line"/>
      <point x="433.61266981408494" y="224.0" type="line"/>
      <point x="454.0180997344071" y="320.0" type="line"/>
      <point x="356.0180997344071" y="320.0" type="line"/>
      <point x="52.87364264899435" y="197.0" type="line"/>
    </contour>
    <contour>
      <point x="92.19660655794846" y="382.0" type="line"/>
      <point x="343.4772625958758" y="261.0" type="line"/>
      <point x="441.4772625958758" y="261.0" type="line"/>
      <point x="460.60735314617773" y="351.0" type="line"/>
      <point x="125.35543017847192" y="538.0" type="line"/>
    </contour>
  </outline>
</glyph>
<glyph name="question" format="1">
  <advance width="437"/>
  <unicode hex="003F"/>
  <outline>
    <contour>
      <point x="77.57941181026172" y="78.0" type="curve" smooth="yes"/>
      <point x="67.16414028843064" y="29.0"/>
      <point x="98.44932125995973" y="-12.0"/>
      <point x="147.44932125995973" y="-12.0" type="curve" smooth="yes"/>
      <point x="196.44932125995973" y="-12.0"/>
      <point x="245.16414028843064" y="29.0"/>
      <point x="255.57941181026172" y="78.0" type="curve" smooth="yes"/>
      <point x="265.7821267704228" y="126.0"/>
      <point x="234.4969457988937" y="167.0"/>
      <point x="185.4969457988937" y="167.0" type="curve" smooth="yes"/>
      <point x="136.4969457988937" y="167.0"/>
      <point x="87.78212677042279" y="126.0"/>
    </contour>
    <contour>
      <point x="62.68371075533318" y="596.0" type="curve"/>
      <point x="127.94015865664082" y="489.0" type="line"/>
      <point x="172.5052039317918" y="534.0"/>
      <point x="207.33122204185224" y="552.0"/>
      <point x="240.33122204185224" y="552.0" type="curve" smooth="yes"/>
      <point x="279.33122204185224" y="552.0"/>
      <point x="295.80475143843165" y="526.0"/>
      <point x="289.853167711671" y="498.0" type="curve" smooth="yes"/>
      <point x="283.47647086157036" y="468.0"/>
      <point x="259.8002265048299" y="446.0"/>
      <point x="208.6602943530189" y="403.0" type="curve" smooth="yes"/>
      <point x="164.58314500955808" y="365.0"/>
      <point x="147.50599566609725" y="327.0"/>
      <point x="146.2790725693165" y="293.0" type="curve" smooth="yes"/>
      <point x="144.71402729416548" y="248.0" type="line"/>
      <point x="252.71402729416548" y="248.0" type="line"/>
      <point x="261.027941335916" y="273.0" type="line" smooth="yes"/>
      <point x="266.85395944597644" y="291.0"/>
      <point x="274.31764724104687" y="312.0"/>
      <point x="304.63156128279746" y="337.0" type="curve" smooth="yes"/>
      <point x="368.89705905130864" y="390.0"/>
      <point x="427.2253396281699" y="448.0"/>
      <point x="443.80475143843165" y="526.0" type="curve" smooth="yes"/>
      <point x="465.27296416710385" y="627.0"/>
      <point x="403.2147062923556" y="702.0"/>
      <point x="287.2147062923556" y="702.0" type="curve" smooth="yes"/>
      <point x="210.21470629235557" y="702.0"/>
      <point x="122.43710445553452" y="656.0"/>
    </contour>
  </outline>
</glyph>
<glyph name="at" format="1">
  <advance width="856"/>
  <unicode hex="0040"/>
  <outline>
    <contour>
      <point x="25.13914041750553" y="250.0" type="curve" smooth="yes"/>
      <point x="-31.35953491767048" y="-15.80536912751677"/>
      <point x="91.5514704743457" y="-195.0"/>
      <point x="338.5514704743457" y="-195.0" type="curve" smooth="yes"/>
      <point x="423.5514704743457" y="-195.0"/>
      <point x="481.1021492143859" y="-183.0"/>
      <point x="536.7783935711265" y="-161.0" type="curve"/>
      <point x="524.6717194231387" y="-58.0" type="line"/>
      <point x="482.4833709980884" y="-73.0"/>
      <point x="427.29502257303807" y="-88.0"/>
      <point x="360.29502257303807" y="-88.0" type="curve" smooth="yes"/>
      <point x="186.29502257303807" y="-88.0"/>
      <point x="99.05294120684115" y="52.0"/>
      <point x="141.35169697917556" y="251.0" type="curve" smooth="yes"/>
      <point x="181.95000025814977" y="442.0"/>
      <point x="321.3513033736042" y="591.0"/>
      <point x="508.6209279469831" y="591.0" type="curve" smooth="yes"/>
      <point x="675.6209279469831" y="591.0"/>
      <point x="744.2639142999003" y="467.0"/>
      <point x="702.602828212576" y="271.0" type="curve" smooth="yes"/>
      <point x="674.9704751954731" y="141.0"/>
      <point x="638.4682127286723" y="101.0"/>
      <point x="609.4682127286723" y="101.0" type="curve"/>
      <point x="582.4682127286723" y="101.0"/>
      <point x="575.3570136470828" y="124.0"/>
      <point x="584.7095023605638" y="168.0" type="curve"/>
      <point x="627.6459278179082" y="370.0" type="line" smooth="yes"/>
      <point x="633.5975115446688" y="398.0"/>
      <point x="639.6360862163992" y="417.0"/>
      <point x="649.8002265048299" y="446.0" type="curve"/>
      <point x="667.215498026661" y="495.0" type="line"/>
      <point x="533.215498026661" y="495.0" type="line"/>
      <point x="495.9598418596587" y="395.0" type="line"/>
      <point x="438.9946833320928" y="127.0" type="line"/>
      <point x="441.2798643036219" y="86.0" type="line"/>
      <point x="453.58925341177064" y="31.0"/>
      <point x="495.4493212599598" y="-12.0"/>
      <point x="567.4493212599598" y="-12.0" type="curve" smooth="yes"/>
      <point x="697.4493212599598" y="-12.0"/>
      <point x="781.9561086603624" y="108.0"/>
      <point x="816.602828212576" y="271.0" type="curve" smooth="yes"/>
      <point x="874.630769548492" y="544.0"/>
      <point x="752.2147062923556" y="702.0"/>
      <point x="530.2147062923556" y="702.0" type="curve" smooth="yes"/>
      <point x="298.2147062923556" y="702.0"/>
      <point x="85.08009080845176" y="532.0"/>
    </contour>
    <contour>
      <point x="200.8395929108657" y="258.0" type="curve" smooth="yes"/>
      <point x="169.16866522203242" y="109.0"/>
      <point x="216.70045249336016" y="8.0"/>
      <point x="307.70045249336016" y="8.0" type="curve" smooth="yes"/>
      <point x="361.70045249336016" y="8.0"/>
      <point x="407.43947965845075" y="35.0"/>
      <point x="445.5166290019116" y="73.0" type="curve"/>
      <point x="460.28438923722365" y="166.0" type="line"/>
      <point x="439.6709276888333" y="149.0"/>
      <point x="408.54536207213306" y="139.0"/>
      <point x="384.54536207213306" y="139.0" type="curve" smooth="yes"/>
      <point x="342.54536207213306" y="139.0"/>
      <point x="323.260181100604" y="180.0"/>
      <point x="341.9651585275659" y="268.0" type="curve" smooth="yes"/>
      <point x="358.1194572144876" y="344.0"/>
      <point x="397.83427624295854" y="385.0"/>
      <point x="436.83427624295854" y="385.0" type="curve" smooth="yes"/>
      <point x="474.8342762429585" y="385.0"/>
      <point x="488.30780563953795" y="359.0"/>
      <point x="476.40463818601665" y="303.0" type="curve"/>
      <point x="526.6557694194171" y="323.0" type="line"/>
      <point x="551.5248871348098" y="440.0"/>
      <point x="511.76617676670116" y="507.0"/>
      <point x="424.7661767667012" y="507.0" type="curve" smooth="yes"/>
      <point x="330.7661767667012" y="507.0"/>
      <point x="234.21097309305918" y="415.0"/>
    </contour>
  </outline>
</glyph>
<glyph name="A" format="1">
  <advance width="551"/>
  <unicode hex="0041"/>
  <outline>
    <contour>
      <point x="-62.0" y="0.0" type="line"/>
      <point x="83.0" y="0.0" type="line"/>
      <point x="338.630769548492" y="544.0" type="line"/>
      <point x="362.66402755231525" y="690.0" type="line"/>
      <point x="281.66402755231525" y="690.0" type="line"/>
    </contour>
    <contour>
      <point x="114.82070144215322" y="145.0" type="line"/>
      <point x="384.8207014421532" y="145.0" type="line"/>
      <point x="410.5400454042259" y="266.0" type="line"/>
      <point x="140.54004540422588" y="266.0" type="line"/>
    </contour>
    <contour>
      <point x="320.630769548492" y="544.0" type="line"/>
      <point x="345.0" y="0.0" type="line"/>
      <point x="493.0" y="0.0" type="line"/>
      <point x="442.66402755231525" y="690.0" type="line"/>
      <point x="354.66402755231525" y="690.0" type="line"/>
    </contour>
    <contour>
      <point x="361.66402755231525" y="690.0" type="move" name="top"/>
    </contour>
    <contour>
      <point x="343.0" y="0.0" type="move" name="ogonek"/>
    </contour>
    <contour>
      <point x="215.0" y="0.0" type="move" name="bottom"/>
    </contour>
  </outline>
</glyph>
<glyph name="B" format="1">
  <advance width="550"/>
  <unicode hex="0042"/>
  <outline>
    <contour>
      <point x="10.0" y="0.0" type="line"/>
      <point x="152.0" y="0.0" type="line"/>
      <point x="298.66402755231525" y="690.0" type="line"/>
      <point x="156.66402755231528" y="690.0" type="line"/>
    </contour>
    <contour>
      <point x="75.0" y="0.0" type="line"/>
      <point x="238.0" y="0.0" type="line" smooth="yes"/>
      <point x="363.0" y="0.0"/>
      <point x="472.8789593169015" y="70.0"/>
      <point x="500.7238688956744" y="201.0" type="curve" smooth="yes"/>
      <point x="525.167873487727" y="316.0"/>
      <point x="470.2593893662986" y="387.0"/>
      <point x="320.2593893662986" y="387.0" type="curve" smooth="yes"/>
      <point x="157.25938936629856" y="387.0" type="line"/>
      <point x="137.91674225432655" y="296.0" type="line"/>
      <point x="287.91674225432655" y="296.0" type="line" smooth="yes"/>
      <point x="349.91674225432655" y="296.0"/>
      <point x="372.5400454042259" y="266.0"/>
      <point x="360.4243213890346" y="209.0" type="curve" smooth="yes"/>
      <point x="348.5211539355134" y="153.0"/>
      <point x="313.14445708541274" y="123.0"/>
      <point x="251.14445708541274" y="123.0" type="curve" smooth="yes"/>
      <point x="101.14445708541271" y="123.0" type="line"/>
    </contour>
    <contour>
      <point x="144.93110878943727" y="329.0" type="line"/>
      <point x="285.9311087894373" y="329.0" type="line" smooth="yes"/>
      <point x="416.9311087894373" y="329.0"/>
      <point x="518.4477377913489" y="402.0"/>
      <point x="541.4038464517113" y="510.0" type="curve" smooth="yes"/>
      <point x="565.4227379204237" y="623.0"/>
      <point x="493.66402755231525" y="690.0"/>
      <point x="362.66402755231525" y="690.0" type="curve" smooth="yes"/>
      <point x="221.66402755231525" y="690.0" type="line"/>
      <point x="195.51957046690256" y="567.0" type="line"/>
      <point x="327.51957046690256" y="567.0" type="line" smooth="yes"/>
      <point x="388.51957046690256" y="567.0"/>
      <point x="409.3554301784719" y="538.0"/>
      <point x="398.30248897163074" y="486.0" type="curve" smooth="yes"/>
      <point x="387.2495477647896" y="434.0"/>
      <point x="354.29796403802897" y="406.0"/>
      <point x="293.29796403802897" y="406.0" type="curve" smooth="yes"/>
      <point x="161.29796403802897" y="406.0" type="line"/>
    </contour>
  </outline>
</glyph>
<glyph name="C" format="1">
  <advance width="550"/>
  <unicode hex="0043"/>
  <outline>
    <contour>
      <point x="49.75712689949768" y="347.0" type="curve" smooth="yes"/>
      <point x="-1.894117586317698" y="104.0"/>
      <point x="98.36445041125125" y="-12.0"/>
      <point x="246.44932125995973" y="-12.0" type="curve" smooth="yes"/>
      <point x="336.60280963205275" y="-12.0"/>
      <point x="408.8619586424548" y="22.0"/>
      <point x="478.1542986869217" y="76.0" type="curve"/>
      <point x="425.53552047062414" y="186.0" type="line"/>
      <point x="383.4441905941824" y="152.0"/>
      <point x="337.8843855374281" y="130.0"/>
      <point x="292.6323530171029" y="130.0" type="curve" smooth="yes"/>
      <point x="213.5337614678071" y="130.0"/>
      <point x="164.99920826569456" y="207.0"/>
      <point x="193.26923096780752" y="340.0" type="curve" smooth="yes"/>
      <point x="223.66481928662068" y="483.0"/>
      <point x="304.45678765855246" y="562.0"/>
      <point x="381.45678765855246" y="562.0" type="curve" smooth="yes"/>
      <point x="427.45678765855246" y="562.0"/>
      <point x="462.20565642515203" y="542.0"/>
      <point x="491.8289595750514" y="512.0" type="curve"/>
      <point x="591.485520728774" y="628.0" type="line"/>
      <point x="541.059963437626" y="676.0"/>
      <point x="489.2147062923556" y="702.0"/>
      <point x="414.2147062923556" y="702.0" type="curve" smooth="yes"/>
      <point x="240.21470629235557" y="702.0"/>
      <point x="95.0316745352124" y="560.0"/>
    </contour>
    <contour>
      <point x="404.66402755231525" y="690.0" type="move" name="top"/>
    </contour>
    <contour>
      <point x="258.0" y="0.0" type="move" name="bottom"/>
    </contour>
  </outline>
</glyph>
<glyph name="D" format="1">
  <advance width="611"/>
  <unicode hex="0044"/>
  <outline>
    <contour>
      <point x="10.0" y="0.0" type="line"/>
      <point x="152.0" y="0.0" type="line"/>
      <point x="298.66402755231525" y="690.0" type="line"/>
      <point x="156.66402755231528" y="690.0" type="line"/>
    </contour>
    <contour>
      <point x="75.0" y="0.0" type="line"/>
      <point x="234.0" y="0.0" type="line" smooth="yes"/>
      <point x="393.0" y="0.0"/>
      <point x="540.2942308387327" y="119.0"/>
      <point x="589.3947965845077" y="350.0" type="curve" smooth="yes"/>
      <point x="637.2200229602627" y="575.0"/>
      <point x="539.6640275523152" y="690.0"/>
      <point x="380.66402755231525" y="690.0" type="curve" smooth="yes"/>
      <point x="221.66402755231525" y="690.0" type="line"/>
      <point x="193.60656141187235" y="558.0" type="line"/>
      <point x="339.60656141187235" y="558.0" type="line" smooth="yes"/>
      <point x="429.60656141187235" y="558.0"/>
      <point x="475.42805458833095" y="496.0"/>
      <point x="443.3320137761576" y="345.0" type="curve" smooth="yes"/>
      <point x="411.2359729639843" y="194.0"/>
      <point x="339.0574661404429" y="132.0"/>
      <point x="249.0574661404429" y="132.0" type="curve" smooth="yes"/>
      <point x="103.05746614044293" y="132.0" type="line"/>
    </contour>
    <contour>
      <point x="358.66402755231525" y="690.0" type="move" name="top"/>
    </contour>
  </outline>
</glyph>
<glyph name="E" format="1">
  <advance width="521"/>
  <unicode hex="0045"/>
  <outline>
    <contour>
      <point x="10.0" y="0.0" type="line"/>
      <point x="152.0" y="0.0" type="line"/>
      <point x="298.66402755231525" y="690.0" type="line"/>
      <point x="156.66402755231528" y="690.0" type="line"/>
    </contour>
    <contour>
      <point x="75.0" y="0.0" type="line"/>
      <point x="416.0" y="0.0" type="line"/>
      <point x="444.0574661404429" y="132.0" type="line"/>
      <point x="103.05746614044293" y="132.0" type="line"/>
    </contour>
    <contour>
      <point x="135.79117663762634" y="286.0" type="line"/>
      <point x="432.79117663762634" y="286.0" type="line"/>
      <point x="459.36074684637913" y="411.0" type="line"/>
      <point x="162.3607468463791" y="411.0" type="line"/>
    </contour>
    <contour>
      <point x="193.60656141187235" y="558.0" type="line"/>
      <point x="530.6065614118723" y="558.0" type="line"/>
      <point x="558.6640275523152" y="690.0" type="line"/>
      <point x="221.66402755231525" y="690.0" type="line"/>
    </contour>
    <contour>
      <point x="357.66402755231525" y="690.0" type="move" name="top"/>
    </contour>
    <contour>
      <point x="320.0" y="0.0" type="move" name="ogonek"/>
    </contour>
    <contour>
      <point x="211.0" y="0.0" type="move" name="bottom"/>
    </contour>
  </outline>
</glyph>
<glyph name="F" format="1">
  <advance width="494"/>
  <unicode hex="0046"/>
  <outline>
    <contour>
      <point x="10.0" y="0.0" type="line"/>
      <point x="152.0" y="0.0" type="line"/>
      <point x="298.66402755231525" y="690.0" type="line"/>
      <point x="156.66402755231528" y="690.0" type="line"/>
    </contour>
    <contour>
      <point x="128.77681010251558" y="253.0" type="line"/>
      <point x="418.7768101025156" y="253.0" type="line"/>
      <point x="446.6217196812885" y="384.0" type="line"/>
      <point x="156.62171968128848" y="384.0" type="line"/>
    </contour>
    <contour>
      <point x="193.60656141187235" y="558.0" type="line"/>
      <point x="517.6065614118723" y="558.0" type="line"/>
      <point x="545.6640275523152" y="690.0" type="line"/>
      <point x="221.66402755231525" y="690.0" type="line"/>
    </contour>
  </outline>
</glyph>
<glyph name="G" format="1">
  <advance width="591"/>
  <unicode hex="0047"/>
  <outline>
    <contour>
      <point x="49.11945721448761" y="344.0" type="curve" smooth="yes"/>
      <point x="-2.531787271327765" y="101.0"/>
      <point x="99.44932125995973" y="-12.0"/>
      <point x="259.44932125995973" y="-12.0" type="curve" smooth="yes"/>
      <point x="340.44932125995973" y="-12.0"/>
      <point x="415.2421277960753" y="15.253012048192772"/>
      <point x="497.0287330702215" y="66.0" type="curve"/>
      <point x="375.27002270211295" y="133.0" type="line"/>
      <point x="347.9319005237427" y="122.0"/>
      <point x="316.8691177153926" y="117.0"/>
      <point x="297.8691177153926" y="117.0" type="curve" smooth="yes"/>
      <point x="200.86911771539258" y="117.0"/>
      <point x="161.3857467173042" y="190.0"/>
      <point x="194.33201377615762" y="345.0" type="curve" smooth="yes"/>
      <point x="223.87737584829074" y="484.0"/>
      <point x="298.88190078189245" y="564.0"/>
      <point x="392.88190078189245" y="564.0" type="curve" smooth="yes"/>
      <point x="440.88190078189245" y="564.0"/>
      <point x="479.48099579517213" y="548.0"/>
      <point x="512.1042989450715" y="518.0" type="curve"/>
      <point x="602.2487560304842" y="641.0" type="line"/>
      <point x="546.0198400311618" y="682.2647058823529"/>
      <point x="488.2147062923556" y="702.0"/>
      <point x="415.2147062923556" y="702.0" type="curve" smooth="yes"/>
      <point x="250.21470629235557" y="702.0"/>
      <point x="98.0074663985927" y="574.0"/>
    </contour>
    <contour>
      <point x="293.13914041750553" y="250.0" type="line"/>
      <point x="476.1391404175056" y="250.0" type="line"/>
      <point x="502.9212671879284" y="376.0" type="line"/>
      <point x="319.9212671879283" y="376.0" type="line"/>
    </contour>
    <contour>
      <point x="358.75339370020134" y="60.0" type="line"/>
      <point x="497.0287330702215" y="66.0" type="line"/>
      <point x="562.9212671879284" y="376.0" type="line"/>
      <point x="425.9212671879283" y="376.0" type="line"/>
    </contour>
    <contour>
      <point x="404.66402755231525" y="690.0" type="move" name="top"/>
    </contour>
    <contour>
      <point x="257.0" y="0.0" type="move" name="bottom"/>
    </contour>
  </outline>
</glyph>
<glyph name="H" format="1">
  <advance width="635"/>
  <unicode hex="0048"/>
  <outline>
    <contour>
      <point x="10.0" y="0.0" type="line"/>
      <point x="152.0" y="0.0" type="line"/>
      <point x="298.66402755231525" y="690.0" type="line"/>
      <point x="156.66402755231528" y="690.0" type="line"/>
    </contour>
    <contour>
      <point x="134.94095039094623" y="282.0" type="line"/>
      <point x="500.9409503909462" y="282.0" type="line"/>
      <point x="528.9984165313891" y="414.0" type="line"/>
      <point x="162.99841653138915" y="414.0" type="line"/>
    </contour>
    <contour>
      <point x="364.0" y="0.0" type="line"/>
      <point x="506.0" y="0.0" type="line"/>
      <point x="652.6640275523152" y="690.0" type="line"/>
      <point x="510.66402755231525" y="690.0" type="line"/>
    </contour>
    <contour>
      <point x="404.66402755231525" y="690.0" type="move" name="top"/>
    </contour>
  </outline>
</glyph>
<glyph name="I" format="1">
  <advance width="396"/>
  <unicode hex="0049"/>
  <outline>
    <contour>
      <point x="-2.0" y="0.0" type="line"/>
      <point x="279.0" y="0.0" type="line"/>
      <point x="304.29423083873263" y="119.0" type="line"/>
      <point x="23.29423083873263" y="119.0" type="line"/>
    </contour>
    <contour>
      <point x="119.36979671358262" y="571.0" type="line"/>
      <point x="400.3697967135826" y="571.0" type="line"/>
      <point x="425.66402755231525" y="690.0" type="line"/>
      <point x="144.66402755231528" y="690.0" type="line"/>
    </contour>
    <contour>
      <point x="67.0" y="0.0" type="line"/>
      <point x="209.0" y="0.0" type="line"/>
      <point x="355.66402755231525" y="690.0" type="line"/>
      <point x="213.66402755231525" y="690.0" type="line"/>
    </contour>
    <contour>
      <point x="284.66402755231525" y="690.0" type="move" name="top"/>
    </contour>
    <contour>
      <point x="65.0" y="0.0" type="move" name="ogonek"/>
    </contour>
    <contour>
      <point x="138.0" y="0.0" type="move" name="bottom"/>
    </contour>
  </outline>
</glyph>
<glyph name="J" format="1">
  <advance width="477"/>
  <unicode hex="004A"/>
  <outline>
    <contour>
      <point x="-35.396380053118584" y="64.0" type="line"/>
      <point x="0.8260181100603958" y="18.0"/>
      <point x="52.44932125995973" y="-12.0"/>
      <point x="125.44932125995973" y="-12.0" type="curve" smooth="yes"/>
      <point x="253.44932125995973" y="-12.0"/>
      <point x="372.7919683719318" y="79.0"/>
      <point x="407.86380104748537" y="244.0" type="curve" smooth="yes"/>
      <point x="502.66402755231525" y="690.0" type="line"/>
      <point x="360.66402755231525" y="690.0" type="line"/>
      <point x="269.6898191575458" y="262.0" type="line" smooth="yes"/>
      <point x="249.92205892223376" y="169.0"/>
      <point x="205.71934396207268" y="121.0"/>
      <point x="143.71934396207268" y="121.0" type="curve" smooth="yes"/>
      <point x="101.71934396207268" y="121.0"/>
      <point x="74.18303175714314" y="142.0"/>
      <point x="58.859276113883624" y="164.0" type="curve"/>
    </contour>
    <contour>
      <point x="200.43257952193278" y="576.0" type="line"/>
      <point x="431.4325795219328" y="576.0" type="line"/>
      <point x="455.66402755231525" y="690.0" type="line"/>
      <point x="224.66402755231525" y="690.0" type="line"/>
    </contour>
    <contour>
      <point x="363.66402755231525" y="690.0" type="move" name="top"/>
    </contour>
  </outline>
</glyph>
<glyph name="K" format="1">
  <advance width="571"/>
  <unicode hex="004B"/>
  <outline>
    <contour>
      <point x="10.0" y="0.0" type="line"/>
      <point x="152.0" y="0.0" type="line"/>
      <point x="298.66402755231525" y="690.0" type="line"/>
      <point x="156.66402755231528" y="690.0" type="line"/>
    </contour>
    <contour>
      <point x="119.86911771539258" y="117.0" type="line"/>
      <point x="309.9938915977874" y="334.0" type="line"/>
      <point x="338.1194572144876" y="344.0" type="line"/>
      <point x="651.6640275523152" y="690.0" type="line"/>
      <point x="492.66402755231525" y="690.0" type="line"/>
      <point x="164.71855222776725" y="328.0" type="line"/>
    </contour>
    <contour>
      <point x="260.3418553776666" y="298.0" type="line"/>
      <point x="352.0" y="0.0" type="line"/>
      <point x="513.0" y="0.0" type="line"/>
      <point x="373.97420839476945" y="428.0" type="line"/>
    </contour>
  </outline>
</glyph>
<glyph name="L" format="1">
  <advance width="500"/>
  <unicode hex="004C"/>
  <outline>
    <contour>
      <point x="10.0" y="0.0" type="line"/>
      <point x="152.0" y="0.0" type="line"/>
      <point x="298.66402755231525" y="690.0" type="line"/>
      <point x="156.66402755231528" y="690.0" type="line"/>
    </contour>
    <contour>
      <point x="75.0" y="0.0" type="line"/>
      <point x="411.0" y="0.0" type="line"/>
      <point x="439.0574661404429" y="132.0" type="line"/>
      <point x="103.05746614044293" y="132.0" type="line"/>
    </contour>
    <contour>
      <point x="227.66402755231525" y="690.0" type="move" name="top"/>
    </contour>
    <contour>
      <point x="396.53846193561503" y="680.0" type="move" name="caron.alt"/>
    </contour>
    <contour>
      <point x="214.0" y="0.0" type="move" name="bottom"/>
    </contour>
  </outline>
</glyph>
<glyph name="M" format="1">
  <advance width="719"/>
  <unicode hex="004D"/>
  <outline>
    <contour>
      <point x="10.0" y="0.0" type="line"/>
      <point x="145.0" y="0.0" type="line"/>
      <point x="291.66402755231525" y="690.0" type="line"/>
      <point x="156.66402755231528" y="690.0" type="line"/>
    </contour>
    <contour>
      <point x="225.66402755231525" y="690.0" type="line"/>
      <point x="277.39558831881317" y="143.0" type="line"/>
      <point x="336.39558831881317" y="143.0" type="line"/>
      <point x="378.44321285774714" y="322.0" type="line"/>
      <point x="329.66402755231525" y="690.0" type="line"/>
    </contour>
    <contour>
      <point x="324.39558831881317" y="143.0" type="line"/>
      <point x="383.39558831881317" y="143.0" type="line"/>
      <point x="667.6640275523152" y="690.0" type="line"/>
      <point x="563.6640275523152" y="690.0" type="line"/>
      <point x="358.44321285774714" y="322.0" type="line"/>
    </contour>
    <contour>
      <point x="455.0" y="0.0" type="line"/>
      <point x="590.0" y="0.0" type="line"/>
      <point x="736.6640275523152" y="690.0" type="line"/>
      <point x="601.6640275523152" y="690.0" type="line"/>
    </contour>
  </outline>
</glyph>
<glyph name="N" format="1">
  <advance width="639"/>
  <unicode hex="004E"/>
  <outline>
    <contour>
      <point x="10.0" y="0.0" type="line"/>
      <point x="136.0" y="0.0" type="line"/>
      <point x="282.66402755231525" y="690.0" type="line"/>
      <point x="156.66402755231528" y="690.0" type="line"/>
    </contour>
    <contour>
      <point x="194.66402755231528" y="690.0" type="line"/>
      <point x="351.0" y="0.0" type="line"/>
      <point x="482.0" y="0.0" type="line"/>
      <point x="325.66402755231525" y="690.0" type="line"/>
    </contour>
    <contour>
      <point x="383.0" y="0.0" type="line"/>
      <point x="509.0" y="0.0" type="line"/>
      <point x="655.6640275523152" y="690.0" type="line"/>
      <point x="529.6640275523152" y="690.0" type="line"/>
    </contour>
    <contour>
      <point x="420.66402755231525" y="690.0" type="move" name="top"/>
    </contour>
    <contour>
      <point x="241.0" y="0.0" type="move" name="bottom"/>
    </contour>
  </outline>
</glyph>
<glyph name="O" format="1">
  <advance width="627"/>
  <unicode hex="004F"/>
  <outline>
    <contour>
      <point x="49.33201377615764" y="345.0" type="curve" smooth="yes"/>
      <point x="-0.40622165462754367" y="111.0"/>
      <point x="88.44932125995973" y="-12.0"/>
      <point x="251.44932125995973" y="-12.0" type="curve"/>
      <point x="413.44932125995973" y="-12.0"/>
      <point x="554.5937783453725" y="111.0"/>
      <point x="604.3320137761576" y="345.0" type="curve" smooth="yes"/>
      <point x="654.0702492069428" y="579.0"/>
      <point x="565.2147062923556" y="702.0"/>
      <point x="403.2147062923556" y="702.0" type="curve" smooth="yes"/>
      <point x="240.21470629235557" y="702.0"/>
      <point x="99.0702492069428" y="579.0"/>
    </contour>
    <contour>
      <point x="194.33201377615762" y="345.0" type="curve" smooth="yes"/>
      <point x="228.12850708169117" y="504.0"/>
      <point x="291.51957046690256" y="567.0"/>
      <point x="374.51957046690256" y="567.0" type="curve" smooth="yes"/>
      <point x="456.51957046690256" y="567.0"/>
      <point x="493.12850708169117" y="504.0"/>
      <point x="459.3320137761576" y="345.0" type="curve" smooth="yes"/>
      <point x="425.53552047062414" y="186.0"/>
      <point x="362.14445708541274" y="123.0"/>
      <point x="280.14445708541274" y="123.0" type="curve"/>
      <point x="197.14445708541274" y="123.0"/>
      <point x="160.5355204706241" y="186.0"/>
    </contour>
    <contour>
      <point x="400.66402755231525" y="690.0" type="move" name="top"/>
    </contour>
    <contour>
      <point x="266.0" y="0.0" type="move" name="ogonek"/>
    </contour>
    <contour>
      <point x="254.0" y="0.0" type="move" name="bottom"/>
    </contour>
  </outline>
</glyph>
<glyph name="P" format="1">
  <advance width="552"/>
  <unicode hex="0050"/>
  <outline>
    <contour>
      <point x="10.0" y="0.0" type="line"/>
      <point x="152.0" y="0.0" type="line"/>
      <point x="298.66402755231525" y="690.0" type="line"/>
      <point x="156.66402755231528" y="690.0" type="line"/>
    </contour>
    <contour>
      <point x="117.72386889567446" y="201.0" type="line"/>
      <point x="246.72386889567446" y="201.0" type="line" smooth="yes"/>
      <point x="398.72386889567446" y="201.0"/>
      <point x="521.0037331992963" y="287.0"/>
      <point x="554.1625568198198" y="443.0" type="curve" smooth="yes"/>
      <point x="589.4469460570435" y="609.0"/>
      <point x="513.6640275523152" y="690.0"/>
      <point x="360.66402755231525" y="690.0" type="curve" smooth="yes"/>
      <point x="221.66402755231525" y="690.0" type="line"/>
      <point x="193.60656141187235" y="558.0" type="line"/>
      <point x="318.60656141187235" y="558.0" type="line" smooth="yes"/>
      <point x="398.60656141187235" y="558.0"/>
      <point x="425.5294120684115" y="520.0"/>
      <point x="409.16255681981977" y="443.0" type="curve" smooth="yes"/>
      <point x="392.7957015712281" y="366.0"/>
      <point x="349.71855222776725" y="328.0"/>
      <point x="269.71855222776725" y="328.0" type="curve" smooth="yes"/>
      <point x="144.71855222776725" y="328.0" type="line"/>
    </contour>
  </outline>
</glyph>
<glyph name="Q" format="1">
  <advance width="627"/>
  <unicode hex="0051"/>
  <outline>
    <contour>
      <point x="290.1255656167002" y="10.0" type="line"/>
      <point x="294.9811085312875" y="-113.0"/>
      <point x="354.86538451609624" y="-170.0"/>
      <point x="477.65282795442624" y="-171.0" type="curve"/>
      <point x="507.83585971156936" y="-29.0" type="line"/>
      <point x="445.83585971156936" y="-29.0"/>
      <point x="413.51210406830984" y="-7.0"/>
      <point x="410.90316745352123" y="56.0" type="curve"/>
    </contour>
    <contour>
      <point x="49.33201377615764" y="345.0" type="curve" smooth="yes"/>
      <point x="-0.40622165462754367" y="111.0"/>
      <point x="88.44932125995973" y="-12.0"/>
      <point x="251.44932125995973" y="-12.0" type="curve"/>
      <point x="413.44932125995973" y="-12.0"/>
      <point x="554.5937783453725" y="111.0"/>
      <point x="604.3320137761576" y="345.0" type="curve" smooth="yes"/>
      <point x="654.0702492069428" y="579.0"/>
      <point x="565.2147062923556" y="702.0"/>
      <point x="403.2147062923556" y="702.0" type="curve" smooth="yes"/>
      <point x="240.21470629235557" y="702.0"/>
      <point x="99.0702492069428" y="579.0"/>
    </contour>
    <contour>
      <point x="194.33201377615762" y="345.0" type="curve" smooth="yes"/>
      <point x="228.12850708169117" y="504.0"/>
      <point x="291.51957046690256" y="567.0"/>
      <point x="374.51957046690256" y="567.0" type="curve" smooth="yes"/>
      <point x="456.51957046690256" y="567.0"/>
      <point x="493.12850708169117" y="504.0"/>
      <point x="459.3320137761576" y="345.0" type="curve" smooth="yes"/>
      <point x="425.53552047062414" y="186.0"/>
      <point x="362.14445708541274" y="123.0"/>
      <point x="280.14445708541274" y="123.0" type="curve"/>
      <point x="197.14445708541274" y="123.0"/>
      <point x="160.5355204706241" y="186.0"/>
    </contour>
  </outline>
</glyph>
<glyph name="R" format="1">
  <advance width="555"/>
  <unicode hex="0052"/>
  <outline>
    <contour>
      <point x="10.0" y="0.0" type="line"/>
      <point x="152.0" y="0.0" type="line"/>
      <point x="298.66402755231525" y="690.0" type="line"/>
      <point x="156.66402755231528" y="690.0" type="line"/>
    </contour>
    <contour>
      <point x="126.65124448581537" y="243.0" type="line"/>
      <point x="284.65124448581537" y="243.0" type="line" smooth="yes"/>
      <point x="407.65124448581537" y="243.0"/>
      <point x="519.8683259810872" y="324.0"/>
      <point x="549.2011314915502" y="462.0" type="curve" smooth="yes"/>
      <point x="579.5967198103634" y="605.0"/>
      <point x="502.66402755231525" y="690.0"/>
      <point x="379.66402755231525" y="690.0" type="curve" smooth="yes"/>
      <point x="221.66402755231525" y="690.0" type="line"/>
      <point x="193.60656141187235" y="558.0" type="line"/>
      <point x="327.60656141187235" y="558.0" type="line"/>
      <point x="393.60656141187235" y="558.0"/>
      <point x="418.01730800010165" y="527.0"/>
      <point x="404.2011314915502" y="462.0" type="curve" smooth="yes"/>
      <point x="390.5975115446688" y="398.0"/>
      <point x="353.7957015712281" y="366.0"/>
      <point x="286.7957015712281" y="366.0" type="curve"/>
      <point x="152.7957015712281" y="366.0" type="line"/>
    </contour>
    <contour>
      <point x="253.64140288430644" y="290.0" type="line"/>
      <point x="315.0" y="0.0" type="line"/>
      <point x="468.0" y="0.0" type="line"/>
      <point x="389.64140288430644" y="290.0" type="line"/>
    </contour>
    <contour>
      <point x="357.66402755231525" y="690.0" type="move" name="top"/>
    </contour>
    <contour>
      <point x="227.0" y="0.0" type="move" name="bottom"/>
    </contour>
  </outline>
</glyph>
<glyph name="S" format="1">
  <advance width="538"/>
  <unicode hex="0053"/>
  <outline>
    <contour>
      <point x="-16.695927559758402" y="72.0" type="line"/>
      <point x="42.25113123340044" y="20.0"/>
      <point x="112.44932125995973" y="-12.0"/>
      <point x="197.44932125995973" y="-12.0" type="curve"/>
      <point x="350.44932125995973" y="-12.0"/>
      <point x="459.8547511802818" y="84.0"/>
      <point x="485.1489820190145" y="203.0" type="curve" smooth="yes"/>
      <point x="504.06651600764644" y="292.0"/>
      <point x="461.79570157122805" y="366.0"/>
      <point x="331.91142558641934" y="423.0" type="curve" smooth="yes"/>
      <point x="263.56374523077346" y="454.2967032967033"/>
      <point x="242.9687549418112" y="479.72527472527474"/>
      <point x="249.82895957505133" y="512.0" type="curve" smooth="yes"/>
      <point x="256.85749654760673" y="545.0666666666666"/>
      <point x="291.2347391258654" y="574.0"/>
      <point x="344.00746639859267" y="574.0" type="curve" smooth="yes"/>
      <point x="396.63709602822235" y="574.0"/>
      <point x="443.2829674246782" y="550.1176470588234"/>
      <point x="478.6791858217314" y="516.0" type="curve"/>
      <point x="564.9734166604641" y="635.0" type="line"/>
      <point x="523.3198272558035" y="673.2857142857142"/>
      <point x="449.36636506012803" y="702.0"/>
      <point x="373.2147062923556" y="702.0" type="curve" smooth="yes"/>
      <point x="222.88891443715193" y="702.0"/>
      <point x="127.44694605704348" y="609.0"/>
      <point x="104.70339395835111" y="502.0" type="curve" smooth="yes"/>
      <point x="85.3607468463791" y="411.0"/>
      <point x="131.18224002283773" y="349.0"/>
      <point x="252.85395944597644" y="291.0" type="curve" smooth="yes"/>
      <point x="335.5642535408456" y="252.0"/>
      <point x="341.40011325241494" y="223.0"/>
      <point x="335.2359729639843" y="194.0" type="curve"/>
      <point x="326.3085973738434" y="152.0"/>
      <point x="289.29423083873263" y="119.0"/>
      <point x="229.29423083873263" y="119.0" type="curve" smooth="yes"/>
      <point x="172.29423083873263" y="119.0"/>
      <point x="111.94870546661107" y="149.0"/>
      <point x="74.59830327897424" y="191.0" type="curve"/>
    </contour>
    <contour>
      <point x="365.66402755231525" y="690.0" type="move" name="top"/>
    </contour>
    <contour>
      <point x="198.0" y="0.0" type="move" name="bottom"/>
    </contour>
  </outline>
</glyph>
<glyph name="T" format="1">
  <advance width="493"/>
  <unicode hex="0054"/>
  <outline>
    <contour>
      <point x="78.60656141187235" y="558.0" type="line"/>
      <point x="531.6065614118723" y="558.0" type="line"/>
      <point x="559.6640275523152" y="690.0" type="line"/>
      <point x="106.66402755231528" y="690.0" type="line"/>
    </contour>
    <contour>
      <point x="116.0" y="0.0" type="line"/>
      <point x="258.0" y="0.0" type="line"/>
      <point x="404.66402755231525" y="690.0" type="line"/>
      <point x="262.66402755231525" y="690.0" type="line"/>
    </contour>
    <contour>
      <point x="333.66402755231525" y="690.0" type="move" name="top"/>
    </contour>
    <contour>
      <point x="187.0" y="0.0" type="move" name="bottom"/>
    </contour>
  </outline>
</glyph>
<glyph name="U" format="1">
  <advance width="610"/>
  <unicode hex="0055"/>
  <outline>
    <contour>
      <point x="58.602828212575986" y="271.0" type="line" smooth="yes"/>
      <point x="16.941742125251665" y="75.0"/>
      <point x="95.44932125995973" y="-12.0"/>
      <point x="242.44932125995973" y="-12.0" type="curve" smooth="yes"/>
      <point x="389.44932125995973" y="-12.0"/>
      <point x="504.9417421252516" y="75.0"/>
      <point x="546.602828212576" y="271.0" type="curve" smooth="yes"/>
      <point x="635.6640275523152" y="690.0" type="line"/>
      <point x="497.66402755231525" y="690.0" type="line"/>
      <point x="412.64140288430644" y="290.0" type="line" smooth="yes"/>
      <point x="386.07183267555365" y="165.0"/>
      <point x="342.14445708541274" y="123.0"/>
      <point x="273.14445708541274" y="123.0" type="curve" smooth="yes"/>
      <point x="204.14445708541274" y="123.0"/>
      <point x="178.07183267555365" y="165.0"/>
      <point x="204.64140288430644" y="290.0" type="curve" smooth="yes"/>
      <point x="289.66402755231525" y="690.0" type="line"/>
      <point x="147.66402755231528" y="690.0" type="line"/>
    </contour>
    <contour>
      <point x="393.66402755231525" y="690.0" type="move" name="top"/>
    </contour>
    <contour>
      <point x="269.0" y="0.0" type="move" name="ogonek"/>
    </contour>
    <contour>
      <point x="245.0" y="0.0" type="move" name="bottom"/>
    </contour>
  </outline>
</glyph>
<glyph name="V" format="1">
  <advance width="553"/>
  <unicode hex="0056"/>
  <outline>
    <contour>
      <point x="84.66402755231528" y="690.0" type="line"/>
      <point x="138.0" y="0.0" type="line"/>
      <point x="229.0" y="0.0" type="line"/>
      <point x="261.907692387123" y="136.0" type="line"/>
      <point x="234.66402755231525" y="690.0" type="line"/>
    </contour>
    <contour>
      <point x="232.907692387123" y="136.0" type="line"/>
      <point x="212.0" y="0.0" type="line"/>
      <point x="296.0" y="0.0" type="line"/>
      <point x="642.6640275523152" y="690.0" type="line"/>
      <point x="494.66402755231525" y="690.0" type="line"/>
    </contour>
  </outline>
</glyph>
<glyph name="W" format="1">
  <advance width="802"/>
  <unicode hex="0057"/>
  <outline>
    <contour>
      <point x="89.66402755231528" y="690.0" type="line"/>
      <point x="93.0" y="0.0" type="line"/>
      <point x="193.0" y="0.0" type="line"/>
      <point x="220.907692387123" y="136.0" type="line"/>
      <point x="232.66402755231525" y="690.0" type="line"/>
    </contour>
    <contour>
      <point x="188.907692387123" y="136.0" type="line"/>
      <point x="159.0" y="0.0" type="line"/>
      <point x="244.0" y="0.0" type="line"/>
      <point x="496.2828057686129" y="580.0" type="line"/>
      <point x="519.6640275523152" y="690.0" type="line"/>
      <point x="419.66402755231525" y="690.0" type="line"/>
    </contour>
    <contour>
      <point x="432.28280576861283" y="580.0" type="line"/>
      <point x="437.0" y="0.0" type="line"/>
      <point x="525.0" y="0.0" type="line"/>
      <point x="553.907692387123" y="136.0" type="line"/>
      <point x="557.6640275523152" y="690.0" type="line"/>
      <point x="455.66402755231525" y="690.0" type="line"/>
    </contour>
    <contour>
      <point x="521.907692387123" y="136.0" type="line"/>
      <point x="492.0" y="0.0" type="line"/>
      <point x="588.0" y="0.0" type="line"/>
      <point x="886.6640275523152" y="690.0" type="line"/>
      <point x="746.6640275523152" y="690.0" type="line"/>
    </contour>
    <contour>
      <point x="487.66402755231525" y="690.0" type="move" name="top"/>
    </contour>
  </outline>
</glyph>
<glyph name="X" format="1">
  <advance width="522"/>
  <unicode hex="0058"/>
  <outline>
    <contour>
      <point x="-53.0" y="0.0" type="line"/>
      <point x="99.0" y="0.0" type="line"/>
      <point x="279.9023757192158" y="263.0" type="line"/>
      <point x="339.2934391044272" y="326.0" type="line"/>
      <point x="592.6640275523152" y="690.0" type="line"/>
      <point x="438.66402755231525" y="690.0" type="line"/>
      <point x="286.28812243652004" y="453.0" type="line"/>
      <point x="220.2593893662986" y="387.0" type="line"/>
    </contour>
    <contour>
      <point x="93.66402755231528" y="690.0" type="line"/>
      <point x="218.4916291309865" y="294.0" type="line"/>
      <point x="297.0" y="0.0" type="line"/>
      <point x="462.0" y="0.0" type="line"/>
      <point x="329.1239821480894" y="424.0" type="line"/>
      <point x="257.66402755231525" y="690.0" type="line"/>
    </contour>
  </outline>
</glyph>
<glyph name="Y" format="1">
  <advance width="556"/>
  <unicode hex="0059"/>
  <outline>
    <contour>
      <point x="88.66402755231528" y="690.0" type="line"/>
      <point x="213.4772625958758" y="261.0" type="line"/>
      <point x="285.4772625958758" y="261.0" type="line"/>
      <point x="316.6845024896386" y="389.0" type="line"/>
      <point x="238.66402755231525" y="690.0" type="line"/>
    </contour>
    <contour>
      <point x="147.0" y="0.0" type="line"/>
      <point x="289.0" y="0.0" type="line"/>
      <point x="351.4916291309865" y="294.0" type="line"/>
      <point x="209.4916291309865" y="294.0" type="line"/>
    </contour>
    <contour>
      <point x="288.6845024896386" y="389.0" type="line"/>
      <point x="268.4772625958758" y="261.0" type="line"/>
      <point x="332.4772625958758" y="261.0" type="line"/>
      <point x="640.6640275523152" y="690.0" type="line"/>
      <point x="494.66402755231525" y="690.0" type="line"/>
    </contour>
    <contour>
      <point x="365.66402755231525" y="690.0" type="move" name="top"/>
    </contour>
  </outline>
</glyph>
<glyph name="Z" format="1">
  <advance width="546"/>
  <unicode hex="005A"/>
  <outline>
    <contour>
      <point x="7.043099605332188" y="99.0" type="line"/>
      <point x="81.0" y="0.0" type="line"/>
      <point x="557.6209279469831" y="591.0" type="line"/>
      <point x="483.66402755231525" y="690.0" type="line"/>
    </contour>
    <contour>
      <point x="-14.0" y="0.0" type="line"/>
      <point x="441.0" y="0.0" type="line"/>
      <point x="467.9946833320928" y="127.0" type="line"/>
      <point x="63.994683332092805" y="127.0" type="line"/>
      <point x="7.043099605332188" y="99.0" type="line"/>
    </contour>
    <contour>
      <point x="113.66934422022246" y="563.0" type="line"/>
      <point x="502.66934422022246" y="563.0" type="line"/>
      <point x="557.6209279469831" y="591.0" type="line"/>
      <point x="578.6640275523152" y="690.0" type="line"/>
      <point x="140.66402755231528" y="690.0" type="line"/>
    </contour>
    <contour>
      <point x="359.66402755231525" y="690.0" type="move" name="top"/>
    </contour>
  </outline>
</glyph>
<glyph name="bracketleft" format="1">
  <advance width="269"/>
  <unicode hex="005B"/>
  <outline>
    <contour>
      <point x="-54.76696850100664" y="-300.0" type="line"/>
      <point x="73.23303149899337" y="-300.0" type="line"/>
      <point x="314.48472899446847" y="835.0" type="line"/>
      <point x="186.48472899446847" y="835.0" type="line"/>
    </contour>
    <contour>
      <point x="-54.76696850100664" y="-300.0" type="line"/>
      <point x="192.23303149899337" y="-300.0" type="line"/>
      <point x="218.80260170774613" y="-175.0" type="line"/>
      <point x="-28.197398292253872" y="-175.0" type="line"/>
    </contour>
    <contour>
      <point x="159.9151587857157" y="710.0" type="line"/>
      <point x="406.9151587857157" y="710.0" type="line"/>
      <point x="433.48472899446847" y="835.0" type="line"/>
      <point x="186.48472899446847" y="835.0" type="line"/>
    </contour>
  </outline>
</glyph>
<glyph name="backslash" format="1">
  <advance width="342"/>
  <unicode hex="005C"/>
  <outline>
    <contour>
      <point x="93.04072440241592" y="720.0" type="line"/>
      <point x="140.62330314989933" y="-30.0" type="line"/>
      <point x="275.62330314989936" y="-30.0" type="line"/>
      <point x="228.0407244024159" y="720.0" type="line"/>
    </contour>
  </outline>
</glyph>
<glyph name="bracketright" format="1">
  <advance width="269"/>
  <unicode hex="005D"/>
  <outline>
    <contour>
      <point x="-170.76696850100663" y="-300.0" type="line"/>
      <point x="76.23303149899337" y="-300.0" type="line"/>
      <point x="102.80260170774613" y="-175.0" type="line"/>
      <point x="-144.19739829225387" y="-175.0" type="line"/>
    </contour>
    <contour>
      <point x="43.915158785715704" y="710.0" type="line"/>
      <point x="290.9151587857157" y="710.0" type="line"/>
      <point x="317.48472899446847" y="835.0" type="line"/>
      <point x="70.48472899446847" y="835.0" type="line"/>
    </contour>
    <contour>
      <point x="-51.76696850100664" y="-300.0" type="line"/>
      <point x="76.23303149899337" y="-300.0" type="line"/>
      <point x="317.48472899446847" y="835.0" type="line"/>
      <point x="189.48472899446847" y="835.0" type="line"/>
    </contour>
  </outline>
</glyph>
<glyph name="asciicircum" format="1">
  <advance width="500"/>
  <unicode hex="005E"/>
  <outline>
    <contour>
      <point x="18.71402729416549" y="248.0" type="line"/>
      <point x="152.71402729416548" y="248.0" type="line"/>
      <point x="329.4953623302829" y="581.0" type="line"/>
      <point x="355.66402755231525" y="690.0" type="line"/>
      <point x="275.66402755231525" y="690.0" type="line"/>
    </contour>
    <contour>
      <point x="309.66402755231525" y="690.0" type="line"/>
      <point x="291.28280576861283" y="580.0" type="line"/>
      <point x="328.7140272941655" y="248.0" type="line"/>
      <point x="466.7140272941655" y="248.0" type="line"/>
      <point x="397.66402755231525" y="690.0" type="line"/>
    </contour>
  </outline>
</glyph>
<glyph name="underscore" format="1">
  <advance width="388"/>
  <unicode hex="005F"/>
  <outline>
    <contour>
      <point x="-86.56957020875276" y="-125.0" type="line"/>
      <point x="301.4304297912472" y="-125.0" type="line"/>
      <point x="328.0" y="0.0" type="line"/>
      <point x="-60.0" y="0.0" type="line"/>
    </contour>
  </outline>
</glyph>
<glyph name="grave" format="1">
  <advance width="500"/>
  <unicode hex="0060"/>
  <outline>
    <contour>
      <point x="196.62997781418665" y="751.0" type="line"/>
      <point x="266.7464935636833" y="601.0" type="line"/>
      <point x="376.7464935636833" y="601.0" type="line"/>
      <point x="341.62997781418665" y="751.0" type="line"/>
    </contour>
    <contour>
      <point x="301.80475143843165" y="526.0" type="move" name="_top"/>
    </contour>
  </outline>
</glyph>
<glyph name="a" format="1">
  <advance width="467"/>
  <unicode hex="0061"/>
  <outline>
    <contour>
      <point x="-10.02952480452688" y="141.0" type="curve"/>
      <point x="-29.79728503983894" y="48.0"/>
      <point x="24.26750307814156" y="-12.0"/>
      <point x="104.44932125995973" y="-12.0" type="curve" smooth="yes"/>
      <point x="158.08841900432066" y="-12.0"/>
      <point x="210.28060423484072" y="16.0"/>
      <point x="242.1157240151913" y="57.0" type="curve"/>
      <point x="260.60814488048317" y="144.0" type="line"/>
      <point x="232.84312050489473" y="120.34426229508198"/>
      <point x="196.3184389753523" y="105.0"/>
      <point x="162.3184389753523" y="105.0" type="curve" smooth="yes"/>
      <point x="132.3184389753523" y="105.0"/>
      <point x="113.19547066021352" y="123.24000000000001"/>
      <point x="119.52115393551338" y="153.0" type="curve" smooth="yes"/>
      <point x="127.17319015563419" y="189.0"/>
      <point x="164.91221732072478" y="216.0"/>
      <point x="225.7624435674049" y="220.0" type="curve" smooth="yes"/>
      <point x="297.825226375755" y="225.0" type="line"/>
      <point x="317.59298661106703" y="318.0" type="line"/>
      <point x="235.95531692605698" y="315.0" type="line" smooth="yes"/>
      <point x="96.66531848281821" y="308.9310344827586"/>
      <point x="11.651244485815369" y="243.0"/>
    </contour>
    <contour>
      <point x="95.27828083501106" y="500.0" type="curve"/>
      <point x="105.83427624295854" y="385.0" type="line"/>
      <point x="136.89509073100683" y="399.4"/>
      <point x="185.21097309305918" y="415.0"/>
      <point x="220.21097309305918" y="415.0" type="curve" smooth="yes"/>
      <point x="283.2109730930592" y="415.0"/>
      <point x="298.36717388795347" y="378.0978260869565"/>
      <point x="285.59298661106703" y="318.0" type="curve" smooth="yes"/>
      <point x="239.2556561670022" y="100.0" type="line"/>
      <point x="233.0" y="0.0" type="line"/>
      <point x="362.0" y="0.0" type="line"/>
      <point x="365.4152715218311" y="49.0" type="line" smooth="yes"/>
      <point x="367.5794118102617" y="78.0"/>
      <point x="370.61798648199215" y="97.0"/>
      <point x="376.5695702087528" y="125.0" type="curve"/>
      <point x="420.9938915977874" y="334.0" type="line" smooth="yes"/>
      <point x="450.3266971082504" y="472.0"/>
      <point x="397.14287361680186" y="537.0"/>
      <point x="267.14287361680186" y="537.0" type="curve" smooth="yes"/>
      <point x="206.14287361680186" y="537.0"/>
      <point x="138.9648087014755" y="517.34375"/>
    </contour>
    <contour>
      <point x="273.80475143843165" y="526.0" type="move" name="top"/>
    </contour>
    <contour>
      <point x="233.0" y="0.0" type="move" name="ogonek"/>
    </contour>
    <contour>
      <point x="162.0" y="0.0" type="move" name="bottom"/>
    </contour>
  </outline>
</glyph>
<glyph name="b" format="1">
  <advance width="517"/>
  <unicode hex="0062"/>
  <outline>
    <contour>
      <point x="-12.0" y="0.0" type="line"/>
      <point x="122.0" y="0.0" type="line"/>
      <point x="158.2556561670022" y="100.0" type="line"/>
      <point x="293.22907282746627" y="735.0" type="line"/>
      <point x="151.9779415940658" y="715.0" type="line"/>
      <point x="26.569570208752765" y="125.0" type="line"/>
      <point x="20.617986481992148" y="97.0"/>
      <point x="14.579411810261718" y="78.0"/>
      <point x="4.415271521831087" y="49.0" type="curve" smooth="yes"/>
    </contour>
    <contour>
      <point x="130.74807703229413" y="187.0" type="line"/>
      <point x="106.09151587857156" y="71.0"/>
      <point x="145.44932125995973" y="-12.0"/>
      <point x="238.44932125995973" y="-12.0" type="curve"/>
      <point x="331.44932125995973" y="-12.0"/>
      <point x="445.8547511802819" y="84.0"/>
      <point x="486.6656110209261" y="276.0" type="curve" smooth="yes"/>
      <point x="522.1625568198198" y="443.0"/>
      <point x="465.1428736168019" y="537.0"/>
      <point x="371.14287361680186" y="537.0" type="curve" smooth="yes"/>
      <point x="316.14287361680186" y="537.0"/>
      <point x="264.7661767667012" y="507.0"/>
      <point x="224.47647086157036" y="468.0" type="curve"/>
      <point x="203.64592781790816" y="370.0" type="line"/>
      <point x="230.89705905130864" y="390.0"/>
      <point x="269.08540747635897" y="405.0"/>
      <point x="301.08540747635897" y="405.0" type="curve" smooth="yes"/>
      <point x="347.08540747635897" y="405.0"/>
      <point x="369.37058844788805" y="364.0"/>
      <point x="348.7526019658959" y="267.0" type="curve"/>
      <point x="325.5839367438635" y="158.0"/>
      <point x="279.3812217837024" y="110.0"/>
      <point x="232.38122178370241" y="110.0" type="curve" smooth="yes"/>
      <point x="185.38122178370244" y="110.0"/>
      <point x="168.03325800382322" y="146.0"/>
      <point x="177.81085984064424" y="192.0" type="curve"/>
    </contour>
  </outline>
</glyph>
<glyph name="c" format="1">
  <advance width="416"/>
  <unicode hex="0063"/>
  <outline>
    <contour>
      <point x="19.62703634919569" y="257.0" type="curve" smooth="yes"/>
      <point x="-15.01347717202026" y="94.02919708029196"/>
      <point x="57.44932125995973" y="-12.0"/>
      <point x="193.44932125995973" y="-12.0" type="curve"/>
      <point x="260.44932125995973" y="-12.0"/>
      <point x="320.70045249336016" y="8.0"/>
      <point x="361.43947965845075" y="35.0" type="curve"/>
      <point x="329.1830317571431" y="142.0" type="line"/>
      <point x="305.41979645543285" y="129.0"/>
      <point x="277.29423083873263" y="119.0"/>
      <point x="241.29423083873263" y="119.0" type="curve" smooth="yes"/>
      <point x="177.29423083873263" y="119.0"/>
      <point x="141.28413803073371" y="170.70344827586206"/>
      <point x="161.54004540422588" y="266.0" type="curve" smooth="yes"/>
      <point x="181.30780563953795" y="359.0"/>
      <point x="238.18257942264438" y="406.0"/>
      <point x="297.29796403802897" y="406.0" type="curve" smooth="yes"/>
      <point x="321.29796403802897" y="406.0"/>
      <point x="344.3849549829988" y="397.0"/>
      <point x="359.6217196812885" y="384.0" type="curve"/>
      <point x="438.640611150001" y="497.0" type="line"/>
      <point x="405.7801198078172" y="521.1794871794872"/>
      <point x="368.14287361680186" y="537.0"/>
      <point x="316.14287361680186" y="537.0" type="curve" smooth="yes"/>
      <point x="178.14287361680186" y="537.0"/>
      <point x="55.9834499844073" y="428.04347826086956"/>
    </contour>
    <contour>
      <point x="307.80475143843165" y="526.0" type="move" name="top"/>
    </contour>
    <contour>
      <point x="183.0" y="0.0" type="move" name="bottom"/>
    </contour>
  </outline>
</glyph>
<glyph name="d" format="1">
  <advance width="517"/>
  <unicode hex="0064"/>
  <outline>
    <contour>
      <point x="20.71402729416549" y="248.0" type="curve" smooth="yes"/>
      <point x="-13.507579134708074" y="87.0"/>
      <point x="42.449321259959746" y="-12.0"/>
      <point x="144.44932125995973" y="-12.0" type="curve"/>
      <point x="202.66187782162973" y="-11.0"/>
      <point x="243.82601811006037" y="18.0"/>
      <point x="285.1157240151913" y="57.0" type="curve"/>
      <point x="307.22160642887354" y="161.0" type="line"/>
      <point x="278.54536207213306" y="139.0"/>
      <point x="246.93190052374268" y="122.0"/>
      <point x="212.93190052374268" y="122.0" type="curve" smooth="yes"/>
      <point x="157.93190052374268" y="122.0"/>
      <point x="142.7722851689138" y="173.0"/>
      <point x="161.6898191575458" y="262.0" type="curve" smooth="yes"/>
      <point x="182.732918762878" y="361.0"/>
      <point x="232.0611993397393" y="419.0"/>
      <point x="277.0611993397393" y="419.0" type="curve" smooth="yes"/>
      <point x="323.0611993397393" y="419.0"/>
      <point x="341.6217196812885" y="384.0"/>
      <point x="332.0566744061375" y="339.0" type="curve"/>
      <point x="380.24502283118784" y="354.0" type="line"/>
      <point x="404.2639142999003" y="467.0"/>
      <point x="364.14287361680186" y="537.0"/>
      <point x="273.14287361680186" y="537.0" type="curve" smooth="yes"/>
      <point x="179.14287361680186" y="537.0"/>
      <point x="64.28812243652003" y="453.0"/>
    </contour>
    <contour>
      <point x="275.0" y="0.0" type="line"/>
      <point x="409.0" y="0.0" type="line"/>
      <point x="413.4152715218311" y="49.0" type="line" smooth="yes"/>
      <point x="414.5794118102617" y="78.0"/>
      <point x="417.61798648199215" y="97.0"/>
      <point x="423.5695702087528" y="125.0" type="curve" smooth="yes"/>
      <point x="553.2290728274663" y="735.0" type="line"/>
      <point x="411.9779415940658" y="715.0" type="line"/>
      <point x="277.0045249336018" y="80.0" type="line"/>
    </contour>
    <contour>
      <point x="610.0407244024159" y="720.0" type="move" name="caron.alt"/>
    </contour>
  </outline>
</glyph>
<glyph name="e" format="1">
  <advance width="479"/>
  <unicode hex="0065"/>
  <outline>
    <contour>
      <point x="23.62703634919569" y="257.0" type="curve" smooth="yes"/>
      <point x="-10.15979529444374" y="98.04545454545453"/>
      <point x="50.44932125995973" y="-12.0"/>
      <point x="205.44932125995973" y="-12.0" type="curve" smooth="yes"/>
      <point x="269.48879494417025" y="-12.0"/>
      <point x="324.9130090550302" y="9.0"/>
      <point x="371.8018099734407" y="32.0" type="curve"/>
      <point x="350.33280551046306" y="138.0" type="line"/>
      <point x="323.35701364708274" y="124.0"/>
      <point x="280.2091629607571" y="111.0"/>
      <point x="251.59377834537247" y="111.0" type="curve" smooth="yes"/>
      <point x="164.95811943064376" y="111.0"/>
      <point x="133.7337104971834" y="154.0"/>
      <point x="156.90237571921583" y="263.0" type="curve" smooth="yes"/>
      <point x="183.4719459279686" y="388.0"/>
      <point x="233.48631246307934" y="421.0"/>
      <point x="278.48631246307934" y="421.0" type="curve" smooth="yes"/>
      <point x="321.48631246307934" y="421.0"/>
      <point x="344.2593893662986" y="387.0"/>
      <point x="321.9409503909462" y="282.0" type="curve"/>
      <point x="349.742760364387" y="314.0" type="line"/>
      <point x="130.74276036438695" y="314.0" type="line"/>
      <point x="110.1247738823948" y="217.0" type="line"/>
      <point x="427.1247738823948" y="217.0" type="line"/>
      <point x="431.67545262243505" y="229.0"/>
      <point x="439.3516969791756" y="251.0"/>
      <point x="444.45305445925607" y="275.0" type="curve" smooth="yes"/>
      <point x="481.0127830664999" y="447.0"/>
      <point x="424.14287361680186" y="537.0"/>
      <point x="304.14287361680186" y="537.0" type="curve" smooth="yes"/>
      <point x="175.14287361680186" y="537.0"/>
      <point x="61.42717370268868" y="434.8356643356643"/>
    </contour>
    <contour>
      <point x="301.80475143843165" y="526.0" type="move" name="top"/>
    </contour>
    <contour>
      <point x="260.0" y="0.0" type="move" name="ogonek"/>
    </contour>
    <contour>
      <point x="190.0" y="0.0" type="move" name="bottom"/>
    </contour>
  </outline>
</glyph>
<glyph name="f" format="1">
  <advance width="334"/>
  <unicode hex="0066"/>
  <outline>
    <contour>
      <point x="39.78585996971914" y="413.0" type="line"/>
      <point x="362.7858599697191" y="413.0" type="line"/>
      <point x="386.5921948767616" y="525.0" type="line"/>
      <point x="63.59219487676161" y="525.0" type="line"/>
    </contour>
    <contour>
      <point x="27.0" y="0.0" type="line"/>
      <point x="164.0" y="0.0" type="line"/>
      <point x="274.74196863008154" y="521.0" type="line" smooth="yes"/>
      <point x="286.6451360836028" y="577.0"/>
      <point x="313.28382388626585" y="611.0"/>
      <point x="359.87205918038353" y="611.0" type="curve" smooth="yes"/>
      <point x="375.6037664974567" y="611.0"/>
      <point x="387.5278452703641" y="607.8888888888889"/>
      <point x="401.38416324869337" y="604.0" type="curve"/>
      <point x="443.4030547174059" y="717.0" type="line"/>
      <point x="417.3651152866676" y="726.2307692307693"/>
      <point x="384.5914031424562" y="732.0"/>
      <point x="355.5914031424562" y="732.0" type="curve" smooth="yes"/>
      <point x="245.59140314245622" y="732.0"/>
      <point x="165.37432164718442" y="651.0"/>
      <point x="137.3168555067415" y="519.0" type="curve" smooth="yes"/>
    </contour>
  </outline>
</glyph>
<glyph name="g" format="1">
  <advance width="517"/>
  <unicode hex="0067"/>
  <outline>
    <contour>
      <point x="27.090724144266147" y="278.0" type="curve" smooth="yes"/>
      <point x="-5.005316667907195" y="127.0"/>
      <point x="52.01436653511071" y="33.0"/>
      <point x="150.01436653511072" y="33.0" type="curve"/>
      <point x="216.22692309678075" y="34.0"/>
      <point x="252.96595026187134" y="61.0"/>
      <point x="294.2556561670022" y="100.0" type="curve"/>
      <point x="314.87364264899435" y="197.0" type="line"/>
      <point x="286.6512352752791" y="177.13513513513513"/>
      <point x="255.4341629905436" y="162.0"/>
      <point x="221.4341629905436" y="162.0" type="curve" smooth="yes"/>
      <point x="166.4341629905436" y="162.0"/>
      <point x="149.63819950222327" y="205.3015873015873"/>
      <point x="166.79117663762634" y="286.0" type="curve" smooth="yes"/>
      <point x="184.9185194389812" y="371.2824427480916"/>
      <point x="231.0611993397393" y="419.0"/>
      <point x="277.0611993397393" y="419.0" type="curve" smooth="yes"/>
      <point x="323.0611993397393" y="419.0"/>
      <point x="341.5957981493775" y="383.8780487804878"/>
      <point x="332.0566744061375" y="339.0" type="curve"/>
      <point x="380.24502283118784" y="354.0" type="line"/>
      <point x="404.2639142999003" y="467.0"/>
      <point x="364.14287361680186" y="537.0"/>
      <point x="273.14287361680186" y="537.0" type="curve" smooth="yes"/>
      <point x="179.14287361680186" y="537.0"/>
      <point x="65.9885749298802" y="461.0"/>
    </contour>
    <contour>
      <point x="-37.646719552213604" y="-163.0" type="line"/>
      <point x="0.5272623377259933" y="-181.0"/>
      <point x="44.12635735100565" y="-197.0"/>
      <point x="112.12635735100565" y="-197.0" type="curve" smooth="yes"/>
      <point x="255.12635735100565" y="-197.0"/>
      <point x="372.3434388462774" y="-116.0"/>
      <point x="411.2412896318915" y="67.0" type="curve" smooth="yes"/>
      <point x="482.2351812296789" y="401.0" type="line"/>
      <point x="488.18676495643945" y="429.0"/>
      <point x="494.0127830664999" y="447.0"/>
      <point x="504.1769233549305" y="476.0" type="curve" smooth="yes"/>
      <point x="520.5921948767616" y="525.0" type="line"/>
      <point x="386.5921948767616" y="525.0" type="line"/>
      <point x="350.54909527142945" y="426.0" type="line"/>
      <point x="275.7291855635816" y="74.0" type="line" smooth="yes"/>
      <point x="252.98563346488925" y="-33.0"/>
      <point x="204.90848412142844" y="-71.0"/>
      <point x="129.90848412142844" y="-71.0" type="curve" smooth="yes"/>
      <point x="89.90848412142844" y="-71.0"/>
      <point x="47.67171942313871" y="-58.0"/>
      <point x="19.072624409859074" y="-42.0" type="curve"/>
    </contour>
    <contour>
      <point x="289.4666292600614" y="515.0" type="move" name="top"/>
    </contour>
  </outline>
</glyph>
<glyph name="h" format="1">
  <advance width="538"/>
  <unicode hex="0068"/>
  <outline>
    <contour>
      <point x="0.0" y="0.0" type="line"/>
      <point x="137.0" y="0.0" type="line"/>
      <point x="293.22907282746627" y="735.0" type="line"/>
      <point x="151.9779415940658" y="715.0" type="line"/>
    </contour>
    <contour>
      <point x="203.0082581328981" y="367.0" type="line"/>
      <point x="231.3221721746487" y="392.0"/>
      <point x="270.08540747635897" y="405.0"/>
      <point x="301.08540747635897" y="405.0" type="curve" smooth="yes"/>
      <point x="342.08540747635897" y="405.0"/>
      <point x="365.7714934346084" y="380.0"/>
      <point x="348.3418553776666" y="298.0" type="curve" smooth="yes"/>
      <point x="285.0" y="0.0" type="line"/>
      <point x="422.0" y="0.0" type="line"/>
      <point x="492.5687784744473" y="332.0" type="line" smooth="yes"/>
      <point x="524.2397061632806" y="481.0"/>
      <point x="457.1428736168019" y="537.0"/>
      <point x="381.14287361680186" y="537.0" type="curve" smooth="yes"/>
      <point x="319.14287361680186" y="537.0"/>
      <point x="265.7661767667012" y="507.0"/>
      <point x="223.41368805322026" y="463.0" type="curve"/>
    </contour>
    <contour>
      <point x="222.0407244024159" y="720.0" type="move" name="top"/>
    </contour>
  </outline>
</glyph>
<glyph name="i" format="1">
  <advance width="257"/>
  <unicode hex="0069"/>
  <outline>
    <contour>
      <point x="0.0" y="0.0" type="line"/>
      <point x="137.0" y="0.0" type="line"/>
      <point x="248.5921948767616" y="525.0" type="line"/>
      <point x="111.5921948767616" y="525.0" type="line"/>
    </contour>
    <contour>
      <point x="131.113348812275" y="678.0" type="curve" smooth="yes"/>
      <point x="121.54830353712401" y="633.0"/>
      <point x="150.47115419366315" y="595.0"/>
      <point x="195.47115419366315" y="595.0" type="curve" smooth="yes"/>
      <point x="240.47115419366315" y="595.0"/>
      <point x="285.548303537124" y="633.0"/>
      <point x="295.11334881227504" y="678.0" type="curve" smooth="yes"/>
      <point x="304.465837525756" y="722.0"/>
      <point x="275.5429868692168" y="760.0"/>
      <point x="230.5429868692168" y="760.0" type="curve" smooth="yes"/>
      <point x="185.5429868692168" y="760.0"/>
      <point x="140.46583752575597" y="722.0"/>
    </contour>
    <contour>
      <point x="0.0" y="0.0" type="move" name="ogonek"/>
    </contour>
    <contour>
      <point x="69.0" y="0.0" type="move" name="bottom"/>
    </contour>
  </outline>
</glyph>
<glyph name="j" format="1">
  <advance width="257"/>
  <unicode hex="006A"/>
  <outline>
    <contour>
      <point x="-152.5355204706241" y="-186.0" type="line"/>
      <point x="-132.64141187037598" y="-192.1875"/>
      <point x="-103.26870437738941" y="-197.0"/>
      <point x="-78.87364264899435" y="-197.0" type="curve" smooth="yes"/>
      <point x="26.14410883029558" y="-197.0"/>
      <point x="109.58020354456715" y="-129.0"/>
      <point x="139.55067874004027" y="12.0" type="curve" smooth="yes"/>
      <point x="248.5921948767616" y="525.0" type="line"/>
      <point x="111.5921948767616" y="525.0" type="line"/>
      <point x="2.7632353017102886" y="13.0" type="line" smooth="yes"/>
      <point x="-9.139932151810953" y="-43.0"/>
      <point x="-39.02873307022146" y="-66.0"/>
      <point x="-73.02873307022146" y="-66.0" type="curve"/>
      <point x="-84.02873307022146" y="-66.0"/>
      <point x="-94.81617650855144" y="-65.0"/>
      <point x="-113.17850682354137" y="-62.0" type="curve"/>
    </contour>
    <contour>
      <point x="131.113348812275" y="678.0" type="curve" smooth="yes"/>
      <point x="121.54830353712401" y="633.0"/>
      <point x="150.47115419366315" y="595.0"/>
      <point x="195.47115419366315" y="595.0" type="curve" smooth="yes"/>
      <point x="240.47115419366315" y="595.0"/>
      <point x="285.548303537124" y="633.0"/>
      <point x="295.11334881227504" y="678.0" type="curve" smooth="yes"/>
      <point x="304.465837525756" y="722.0"/>
      <point x="275.5429868692168" y="760.0"/>
      <point x="230.5429868692168" y="760.0" type="curve" smooth="yes"/>
      <point x="185.5429868692168" y="760.0"/>
      <point x="140.46583752575597" y="722.0"/>
    </contour>
  </outline>
</glyph>
<glyph name="k" format="1">
  <advance width="491"/>
  <unicode hex="006B"/>
  <outline>
    <contour>
      <point x="0.0" y="0.0" type="line"/>
      <point x="136.0" y="0.0" type="line"/>
      <point x="292.22907282746627" y="735.0" type="line"/>
      <point x="151.9779415940658" y="715.0" type="line"/>
    </contour>
    <contour>
      <point x="101.1928733586521" y="95.0" type="line"/>
      <point x="534.5921948767616" y="525.0" type="line"/>
      <point x="378.5921948767616" y="525.0" type="line"/>
      <point x="139.87816758259612" y="277.0" type="line"/>
    </contour>
    <contour>
      <point x="202.39027165090596" y="270.0" type="line"/>
      <point x="283.0" y="0.0" type="line"/>
      <point x="434.0" y="0.0" type="line"/>
      <point x="313.58314500955805" y="365.0" type="line"/>
    </contour>
    <contour>
      <point x="205.0" y="0.0" type="move" name="bottom"/>
    </contour>
  </outline>
</glyph>
<glyph name="l" format="1">
  <advance width="257"/>
  <unicode hex="006C"/>
  <outline>
    <contour>
      <point x="0.0" y="0.0" type="line"/>
      <point x="137.0" y="0.0" type="line"/>
      <point x="293.22907282746627" y="735.0" type="line"/>
      <point x="151.9779415940658" y="715.0" type="line"/>
    </contour>
    <contour>
      <point x="222.0407244024159" y="720.0" type="move" name="top"/>
    </contour>
    <contour>
      <point x="350.0407244024159" y="720.0" type="move" name="caron.alt"/>
    </contour>
    <contour>
      <point x="69.0" y="0.0" type="move" name="bottom"/>
    </contour>
  </outline>
</glyph>
<glyph name="m" format="1">
  <advance width="796"/>
  <unicode hex="006D"/>
  <outline>
    <contour>
      <point x="99.5921948767616" y="525.0" type="line"/>
      <point x="95.17692335493052" y="476.0" type="line" smooth="yes"/>
      <point x="93.01278306649988" y="447.0"/>
      <point x="91.1867649564395" y="429.0"/>
      <point x="85.23518122967886" y="401.0" type="curve" smooth="yes"/>
      <point x="0.0" y="0.0" type="line"/>
      <point x="137.0" y="0.0" type="line"/>
      <point x="231.80022650482988" y="446.0" type="line"/>
      <point x="233.5921948767616" y="525.0" type="line"/>
    </contour>
    <contour>
      <point x="203.0082581328981" y="367.0" type="line"/>
      <point x="227.3221721746487" y="392.0"/>
      <point x="261.08540747635897" y="405.0"/>
      <point x="287.08540747635897" y="405.0" type="curve" smooth="yes"/>
      <point x="328.08540747635897" y="405.0"/>
      <point x="351.7714934346084" y="380.0"/>
      <point x="334.3418553776666" y="298.0" type="curve" smooth="yes"/>
      <point x="271.0" y="0.0" type="line"/>
      <point x="408.0" y="0.0" type="line"/>
      <point x="478.5687784744473" y="332.0" type="line" smooth="yes"/>
      <point x="510.23970616328063" y="481.0"/>
      <point x="446.14287361680186" y="537.0"/>
      <point x="370.14287361680186" y="537.0" type="curve" smooth="yes"/>
      <point x="318.14287361680186" y="537.0"/>
      <point x="262.34106364336117" y="505.0"/>
      <point x="223.41368805322026" y="463.0" type="curve"/>
    </contour>
    <contour>
      <point x="464.5876699431599" y="445.0" type="curve"/>
      <point x="475.00825813289816" y="367.0" type="line"/>
      <point x="499.3221721746487" y="392.0"/>
      <point x="533.085407476359" y="405.0"/>
      <point x="559.085407476359" y="405.0" type="curve" smooth="yes"/>
      <point x="600.085407476359" y="405.0"/>
      <point x="623.7714934346084" y="380.0"/>
      <point x="606.3418553776665" y="298.0" type="curve" smooth="yes"/>
      <point x="543.0" y="0.0" type="line"/>
      <point x="680.0" y="0.0" type="line"/>
      <point x="750.5687784744473" y="332.0" type="line" smooth="yes"/>
      <point x="782.2397061632806" y="481.0"/>
      <point x="715.1428736168019" y="537.0"/>
      <point x="639.1428736168019" y="537.0" type="curve" smooth="yes"/>
      <point x="575.1428736168019" y="537.0"/>
      <point x="501.94015865664085" y="489.0"/>
    </contour>
  </outline>
</glyph>
<glyph name="n" format="1">
  <advance width="538"/>
  <unicode hex="006E"/>
  <outline>
    <contour>
      <point x="99.5921948767616" y="525.0" type="line"/>
      <point x="95.17692335493052" y="476.0" type="line" smooth="yes"/>
      <point x="93.01278306649988" y="447.0"/>
      <point x="91.1867649564395" y="429.0"/>
      <point x="85.23518122967886" y="401.0" type="curve" smooth="yes"/>
      <point x="0.0" y="0.0" type="line"/>
      <point x="137.0" y="0.0" type="line"/>
      <point x="231.80022650482988" y="446.0" type="line"/>
      <point x="233.5921948767616" y="525.0" type="line"/>
    </contour>
    <contour>
      <point x="203.0082581328981" y="367.0" type="line"/>
      <point x="231.3221721746487" y="392.0"/>
      <point x="270.08540747635897" y="405.0"/>
      <point x="301.08540747635897" y="405.0" type="curve" smooth="yes"/>
      <point x="342.08540747635897" y="405.0"/>
      <point x="365.8056543105911" y="380.1607142857143"/>
      <point x="348.3418553776666" y="298.0" type="curve" smooth="yes"/>
      <point x="285.0" y="0.0" type="line"/>
      <point x="422.0" y="0.0" type="line"/>
      <point x="492.5687784744473" y="332.0" type="line" smooth="yes"/>
      <point x="524.2397061632806" y="481.0"/>
      <point x="457.1428736168019" y="537.0"/>
      <point x="381.14287361680186" y="537.0" type="curve" smooth="yes"/>
      <point x="319.14287361680186" y="537.0"/>
      <point x="265.7794615518056" y="507.0625"/>
      <point x="223.41368805322026" y="463.0" type="curve"/>
    </contour>
    <contour>
      <point x="326.80475143843165" y="526.0" type="move" name="top"/>
    </contour>
    <contour>
      <point x="212.0" y="0.0" type="move" name="bottom"/>
    </contour>
  </outline>
</glyph>
<glyph name="o" format="1">
  <advance width="501"/>
  <unicode hex="006F"/>
  <outline>
    <contour>
      <point x="24.6898191575458" y="262.0" type="curve" smooth="yes"/>
      <point x="-13.782918504728208" y="81.0"/>
      <point x="57.44932125995973" y="-12.0"/>
      <point x="188.44932125995973" y="-12.0" type="curve" smooth="yes"/>
      <point x="318.44932125995973" y="-12.0"/>
      <point x="429.21708149527177" y="81.0"/>
      <point x="467.6898191575458" y="262.0" type="curve" smooth="yes"/>
      <point x="506.3751133814899" y="444.0"/>
      <point x="435.14287361680186" y="537.0"/>
      <point x="305.14287361680186" y="537.0" type="curve" smooth="yes"/>
      <point x="174.14287361680186" y="537.0"/>
      <point x="63.375113381489825" y="444.0"/>
    </contour>
    <contour>
      <point x="162.6898191575458" y="262.0" type="curve" smooth="yes"/>
      <point x="187.7714934346084" y="380.0"/>
      <point x="228.78585996971913" y="413.0"/>
      <point x="278.7858599697191" y="413.0" type="curve" smooth="yes"/>
      <point x="327.7858599697191" y="413.0"/>
      <point x="354.7714934346084" y="380.0"/>
      <point x="329.6898191575458" y="262.0" type="curve" smooth="yes"/>
      <point x="304.8207014421532" y="145.0"/>
      <point x="264.0188914687125" y="113.0"/>
      <point x="215.01889146871252" y="113.0" type="curve" smooth="yes"/>
      <point x="165.0188914687125" y="113.0"/>
      <point x="137.82070144215322" y="145.0"/>
    </contour>
    <contour>
      <point x="302.80475143843165" y="526.0" type="move" name="top"/>
    </contour>
    <contour>
      <point x="202.0" y="0.0" type="move" name="ogonek"/>
    </contour>
    <contour>
      <point x="191.0" y="0.0" type="move" name="bottom"/>
    </contour>
  </outline>
</glyph>
<glyph name="p" format="1">
  <advance width="517"/>
  <unicode hex="0070"/>
  <outline>
    <contour>
      <point x="99.5921948767616" y="525.0" type="line"/>
      <point x="95.17692335493052" y="476.0" type="line" smooth="yes"/>
      <point x="93.01278306649988" y="447.0"/>
      <point x="91.1867649564395" y="429.0"/>
      <point x="85.23518122967886" y="401.0" type="curve" smooth="yes"/>
      <point x="-42.51131233400442" y="-200.0" type="line"/>
      <point x="98.73981889939603" y="-180.0" type="line"/>
      <point x="231.80022650482988" y="446.0" type="line"/>
      <point x="233.5921948767616" y="525.0" type="line"/>
    </contour>
    <contour>
      <point x="128.62251141559392" y="177.0" type="line"/>
      <point x="103.96595026187134" y="61.0"/>
      <point x="147.44932125995973" y="-12.0"/>
      <point x="238.44932125995973" y="-12.0" type="curve" smooth="yes"/>
      <point x="333.44932125995973" y="-12.0"/>
      <point x="445.8547511802819" y="84.0"/>
      <point x="486.6656110209261" y="276.0" type="curve" smooth="yes"/>
      <point x="522.1625568198198" y="443.0"/>
      <point x="465.1428736168019" y="537.0"/>
      <point x="371.14287361680186" y="537.0" type="curve" smooth="yes"/>
      <point x="316.14287361680186" y="537.0"/>
      <point x="264.7661767667012" y="507.0"/>
      <point x="224.47647086157036" y="468.0" type="curve"/>
      <point x="203.64592781790816" y="370.0" type="line"/>
      <point x="230.89705905130864" y="390.0"/>
      <point x="269.08540747635897" y="405.0"/>
      <point x="301.08540747635897" y="405.0" type="curve" smooth="yes"/>
      <point x="347.08540747635897" y="405.0"/>
      <point x="369.37058844788805" y="364.0"/>
      <point x="348.7526019658959" y="267.0" type="curve"/>
      <point x="325.5839367438635" y="158.0"/>
      <point x="279.3812217837024" y="110.0"/>
      <point x="232.38122178370241" y="110.0" type="curve" smooth="yes"/>
      <point x="185.38122178370244" y="110.0"/>
      <point x="168.03325800382322" y="146.0"/>
      <point x="177.81085984064424" y="192.0" type="curve"/>
    </contour>
  </outline>
</glyph>
<glyph name="q" format="1">
  <advance width="517"/>
  <unicode hex="0071"/>
  <outline>
    <contour>
      <point x="20.71402729416549" y="248.0" type="curve" smooth="yes"/>
      <point x="-13.507579134708074" y="87.0"/>
      <point x="42.449321259959746" y="-12.0"/>
      <point x="144.44932125995973" y="-12.0" type="curve"/>
      <point x="202.66187782162973" y="-11.0"/>
      <point x="243.82601811006037" y="18.0"/>
      <point x="285.1157240151913" y="57.0" type="curve"/>
      <point x="307.22160642887354" y="161.0" type="line"/>
      <point x="278.54536207213306" y="139.0"/>
      <point x="246.93190052374268" y="122.0"/>
      <point x="212.93190052374268" y="122.0" type="curve" smooth="yes"/>
      <point x="157.93190052374268" y="122.0"/>
      <point x="142.7722851689138" y="173.0"/>
      <point x="161.6898191575458" y="262.0" type="curve" smooth="yes"/>
      <point x="182.732918762878" y="361.0"/>
      <point x="232.0611993397393" y="419.0"/>
      <point x="277.0611993397393" y="419.0" type="curve" smooth="yes"/>
      <point x="323.0611993397393" y="419.0"/>
      <point x="341.6217196812885" y="384.0"/>
      <point x="332.0566744061375" y="339.0" type="curve"/>
      <point x="380.24502283118784" y="354.0" type="line"/>
      <point x="404.2639142999003" y="467.0"/>
      <point x="364.14287361680186" y="537.0"/>
      <point x="273.14287361680186" y="537.0" type="curve" smooth="yes"/>
      <point x="179.14287361680186" y="537.0"/>
      <point x="64.28812243652003" y="453.0"/>
    </contour>
    <contour>
      <point x="217.4886876659956" y="-200.0" type="line"/>
      <point x="358.739818899396" y="-180.0" type="line"/>
      <point x="482.2351812296789" y="401.0" type="line" smooth="yes"/>
      <point x="488.18676495643945" y="429.0"/>
      <point x="494.0127830664999" y="447.0"/>
      <point x="504.1769233549305" y="476.0" type="curve" smooth="yes"/>
      <point x="520.5921948767616" y="525.0" type="line"/>
      <point x="386.5921948767616" y="525.0" type="line"/>
      <point x="350.54909527142945" y="426.0" type="line"/>
    </contour>
  </outline>
</glyph>
<glyph name="r" format="1">
  <advance width="358"/>
  <unicode hex="0072"/>
  <outline>
    <contour>
      <point x="99.5921948767616" y="525.0" type="line"/>
      <point x="95.17692335493052" y="476.0" type="line" smooth="yes"/>
      <point x="93.01278306649988" y="447.0"/>
      <point x="91.1867649564395" y="429.0"/>
      <point x="85.23518122967886" y="401.0" type="curve" smooth="yes"/>
      <point x="0.0" y="0.0" type="line"/>
      <point x="137.0" y="0.0" type="line"/>
      <point x="230.52488713480972" y="440.0" type="line"/>
      <point x="233.5921948767616" y="525.0" type="line"/>
    </contour>
    <contour>
      <point x="196.4190047211274" y="336.0" type="line"/>
      <point x="250.9906734121471" y="376.32653061224494"/>
      <point x="299.67663002439156" y="388.962962962963"/>
      <point x="365.4719459279686" y="388.0" type="curve"/>
      <point x="397.14287361680186" y="537.0" type="line"/>
      <point x="338.14287361680186" y="537.0"/>
      <point x="266.25803735294727" y="499.9047619047619"/>
      <point x="218.09977401146966" y="438.0" type="curve"/>
    </contour>
    <contour>
      <point x="275.80475143843165" y="526.0" type="move" name="top"/>
    </contour>
    <contour>
      <point x="69.0" y="0.0" type="move" name="bottom"/>
    </contour>
  </outline>
</glyph>
<glyph name="s" format="1">
  <advance width="404"/>
  <unicode hex="0073"/>
  <outline>
    <contour>
      <point x="-35.623303149899336" y="30.0" type="line"/>
      <point x="2.4666402755231545" y="6.899999999999999"/>
      <point x="54.22980906483778" y="-12.0"/>
      <point x="117.44932125995973" y="-12.0" type="curve" smooth="yes"/>
      <point x="243.69310235448705" y="-12.0"/>
      <point x="333.0429909580849" y="52.0"/>
      <point x="357.22160642887354" y="161.0" type="curve" smooth="yes"/>
      <point x="375.2261313624753" y="241.0"/>
      <point x="335.2819286880181" y="287.0"/>
      <point x="256.2306562960771" y="321.0" type="curve" smooth="yes"/>
      <point x="192.81026603991518" y="347.25"/>
      <point x="184.945475324548" y="362.0"/>
      <point x="188.98404999627843" y="381.0" type="curve" smooth="yes"/>
      <point x="193.23518122967886" y="401.0"/>
      <point x="219.63608621639924" y="417.0"/>
      <point x="255.63608621639924" y="417.0" type="curve" smooth="yes"/>
      <point x="285.63608621639924" y="417.0"/>
      <point x="325.2067236727884" y="403.30555555555554"/>
      <point x="352.4719459279686" y="388.0" type="curve"/>
      <point x="417.9159505200211" y="503.0" type="line"/>
      <point x="380.1392432795375" y="522.25"/>
      <point x="332.14287361680186" y="537.0"/>
      <point x="277.14287361680186" y="537.0" type="curve" smooth="yes"/>
      <point x="149.14287361680186" y="537.0"/>
      <point x="63.41368805322024" y="463.0"/>
      <point x="45.34638031126836" y="378.0" type="curve" smooth="yes"/>
      <point x="28.554411939336617" y="299.0"/>
      <point x="55.62703634919569" y="257.0"/>
      <point x="145.48710419738472" y="214.0" type="curve" smooth="yes"/>
      <point x="206.32296390895408" y="185.0"/>
      <point x="214.5597286072438" y="172.0"/>
      <point x="210.30859737384338" y="152.0" type="curve" smooth="yes"/>
      <point x="205.41979645543285" y="129.0"/>
      <point x="184.16866522203242" y="109.0"/>
      <point x="140.16866522203242" y="109.0" type="curve" smooth="yes"/>
      <point x="99.84079636957341" y="109.0"/>
      <point x="57.20653058738503" y="125.91428571428571"/>
      <point x="28.033258003823235" y="146.0" type="curve"/>
    </contour>
    <contour>
      <point x="270.80475143843165" y="526.0" type="move" name="top"/>
    </contour>
    <contour>
      <point x="122.0" y="0.0" type="move" name="bottom"/>
    </contour>
  </outline>
</glyph>
<glyph name="t" format="1">
  <advance width="370"/>
  <unicode hex="0074"/>
  <outline>
    <contour>
      <point x="39.78585996971914" y="413.0" type="line"/>
      <point x="366.7858599697191" y="413.0" type="line"/>
      <point x="390.5921948767616" y="525.0" type="line"/>
      <point x="63.59219487676161" y="525.0" type="line"/>
    </contour>
    <contour>
      <point x="64.19739829225387" y="175.0" type="line"/>
      <point x="35.927375590140926" y="42.0"/>
      <point x="83.44932125995973" y="-12.0"/>
      <point x="183.44932125995973" y="-12.0" type="curve"/>
      <point x="218.44932125995973" y="-12.0"/>
      <point x="255.1497737533199" y="-4.0"/>
      <point x="285.70045249336016" y="8.0" type="curve"/>
      <point x="298.0574661404429" y="132.0" type="line"/>
      <point x="279.9946833320928" y="127.0"/>
      <point x="262.35701364708274" y="124.0"/>
      <point x="248.35701364708274" y="124.0" type="curve" smooth="yes"/>
      <point x="210.35701364708274" y="124.0"/>
      <point x="194.6612840209007" y="144.25"/>
      <point x="207.5740951423545" y="205.0" type="curve" smooth="yes"/>
      <point x="304.71244382555466" y="662.0" type="line"/>
      <point x="163.4613125921542" y="642.0" type="line"/>
    </contour>
    <contour>
      <point x="463.0407244024159" y="720.0" type="move" name="caron.alt"/>
    </contour>
    <contour>
      <point x="143.0" y="0.0" type="move" name="bottom"/>
    </contour>
  </outline>
</glyph>
<glyph name="u" format="1">
  <advance width="533"/>
  <unicode hex="0075"/>
  <outline>
    <contour>
      <point x="36.17319015563419" y="189.0" type="line"/>
      <point x="6.20271496016106" y="48.0"/>
      <point x="59.44932125995973" y="-12.0"/>
      <point x="146.44932125995973" y="-12.0" type="curve" smooth="yes"/>
      <point x="203.44932125995973" y="-12.0"/>
      <point x="258.03857467173043" y="19.0"/>
      <point x="301.3910633852114" y="63.0" type="curve"/>
      <point x="321.79649330553355" y="159.0" type="line"/>
      <point x="297.120248948793" y="137.0"/>
      <point x="264.7821267704228" y="126.0"/>
      <point x="235.7821267704228" y="126.0" type="curve"/>
      <point x="183.7821267704228" y="126.0"/>
      <point x="165.30859737384336" y="152.0"/>
      <point x="180.40011325241494" y="223.0" type="curve" smooth="yes"/>
      <point x="244.5921948767616" y="525.0" type="line"/>
      <point x="107.5921948767616" y="525.0" type="line"/>
    </contour>
    <contour>
      <point x="291.0" y="0.0" type="line"/>
      <point x="425.0" y="0.0" type="line"/>
      <point x="429.4152715218311" y="49.0" type="line" smooth="yes"/>
      <point x="430.5794118102617" y="78.0"/>
      <point x="433.61798648199215" y="97.0"/>
      <point x="439.5695702087528" y="125.0" type="curve" smooth="yes"/>
      <point x="524.5921948767616" y="525.0" type="line"/>
      <point x="387.5921948767616" y="525.0" type="line"/>
      <point x="297.2556561670022" y="100.0" type="line"/>
    </contour>
    <contour>
      <point x="316.80475143843165" y="526.0" type="move" name="top"/>
    </contour>
    <contour>
      <point x="291.0" y="0.0" type="move" name="ogonek"/>
    </contour>
    <contour>
      <point x="205.0" y="0.0" type="move" name="bottom"/>
    </contour>
  </outline>
</glyph>
<glyph name="v" format="1">
  <advance width="452"/>
  <unicode hex="0076"/>
  <outline>
    <contour>
      <point x="49.59219487676161" y="525.0" type="line"/>
      <point x="97.0" y="0.0" type="line"/>
      <point x="192.0" y="0.0" type="line"/>
      <point x="213.61798648199215" y="97.0" type="line"/>
      <point x="192.5921948767616" y="525.0" type="line"/>
    </contour>
    <contour>
      <point x="164.61798648199215" y="97.0" type="line"/>
      <point x="144.0" y="0.0" type="line"/>
      <point x="235.0" y="0.0" type="line"/>
      <point x="505.5921948767616" y="525.0" type="line"/>
      <point x="365.5921948767616" y="525.0" type="line"/>
    </contour>
  </outline>
</glyph>
<glyph name="w" format="1">
  <advance width="702"/>
  <unicode hex="0077"/>
  <outline>
    <contour>
      <point x="70.5921948767616" y="525.0" type="line"/>
      <point x="90.0" y="0.0" type="line"/>
      <point x="188.0" y="0.0" type="line"/>
      <point x="210.95610866036236" y="108.0" type="line"/>
      <point x="214.5921948767616" y="525.0" type="line"/>
    </contour>
    <contour>
      <point x="159.9561086603624" y="108.0" type="line"/>
      <point x="137.0" y="0.0" type="line"/>
      <point x="217.0" y="0.0" type="line"/>
      <point x="397.89705905130864" y="390.0" type="line"/>
      <point x="426.5921948767616" y="525.0" type="line"/>
      <point x="343.5921948767616" y="525.0" type="line"/>
    </contour>
    <contour>
      <point x="349.89705905130864" y="390.0" type="line"/>
      <point x="365.0" y="0.0" type="line"/>
      <point x="450.0" y="0.0" type="line"/>
      <point x="472.95610866036236" y="108.0" type="line"/>
      <point x="465.5921948767616" y="525.0" type="line"/>
      <point x="378.5921948767616" y="525.0" type="line"/>
    </contour>
    <contour>
      <point x="421.95610866036236" y="108.0" type="line"/>
      <point x="399.0" y="0.0" type="line"/>
      <point x="492.0" y="0.0" type="line"/>
      <point x="735.5921948767616" y="525.0" type="line"/>
      <point x="594.5921948767616" y="525.0" type="line"/>
    </contour>
    <contour>
      <point x="402.80475143843165" y="526.0" type="move" name="top"/>
    </contour>
  </outline>
</glyph>
<glyph name="x" format="1">
  <advance width="449"/>
  <unicode hex="0078"/>
  <outline>
    <contour>
      <point x="-61.0" y="0.0" type="line"/>
      <point x="84.0" y="0.0" type="line"/>
      <point x="201.47273766227403" y="181.0" type="line"/>
      <point x="295.2889141708254" y="246.0" type="line"/>
      <point x="488.5921948767616" y="525.0" type="line"/>
      <point x="348.5921948767616" y="525.0" type="line"/>
      <point x="241.52036220120794" y="360.0" type="line"/>
      <point x="145.3418553776666" y="298.0" type="line"/>
    </contour>
    <contour>
      <point x="54.59219487676161" y="525.0" type="line"/>
      <point x="151.73823543078518" y="234.0" type="line"/>
      <point x="172.27454763571473" y="213.0" type="line"/>
      <point x="236.0" y="0.0" type="line"/>
      <point x="390.0" y="0.0" type="line"/>
      <point x="288.5544119393366" y="299.0" type="line"/>
      <point x="255.30780563953795" y="359.0" type="line"/>
      <point x="211.5921948767616" y="525.0" type="line"/>
    </contour>
  </outline>
</glyph>
<glyph name="y" format="1">
  <advance width="452"/>
  <unicode hex="0079"/>
  <outline>
    <contour>
      <point x="49.59219487676161" y="525.0" type="line"/>
      <point x="110.0" y="0.0" type="line"/>
      <point x="196.0" y="0.0" type="line"/>
      <point x="218.80633490704247" y="112.0" type="line"/>
      <point x="194.5921948767616" y="525.0" type="line"/>
    </contour>
    <contour>
      <point x="-83.89785078561405" y="-183.0" type="line"/>
      <point x="-64.98199011902187" y="-190.875"/>
      <point x="-36.33518111053282" y="-197.0"/>
      <point x="-13.873642648994355" y="-197.0" type="curve" smooth="yes"/>
      <point x="96.9535824818957" y="-197.0"/>
      <point x="155.2178732295772" y="-126.0"/>
      <point x="224.63766968501005" y="3.0" type="curve" smooth="yes"/>
      <point x="505.5921948767616" y="525.0" type="line"/>
      <point x="358.5921948767616" y="525.0" type="line"/>
      <point x="165.80633490704247" y="112.0" type="line"/>
      <point x="118.41527152183107" y="49.0" type="line"/>
      <point x="71.93471313503551" y="-56.76271186440678"/>
      <point x="38.90848412142843" y="-71.0"/>
      <point x="-3.0915158785715704" y="-71.0" type="curve" smooth="yes"/>
      <point x="-15.09151587857157" y="-71.0"/>
      <point x="-30.666402755231527" y="-69.0"/>
      <point x="-44.603619946881416" y="-64.0" type="curve"/>
    </contour>
    <contour>
      <point x="280.80475143843165" y="526.0" type="move" name="top"/>
    </contour>
  </outline>
</glyph>
<glyph name="z" format="1">
  <advance width="420"/>
  <unicode hex="007A"/>
  <outline>
    <contour>
      <point x="-14.507579134708074" y="87.0" type="line"/>
      <point x="59.0" y="0.0" type="line"/>
      <point x="420.09977401146966" y="438.0" type="line"/>
      <point x="346.5921948767616" y="525.0" type="line"/>
    </contour>
    <contour>
      <point x="-33.0" y="0.0" type="line"/>
      <point x="332.0" y="0.0" type="line"/>
      <point x="357.08167427706263" y="118.0" type="line"/>
      <point x="44.0816742770626" y="118.0" type="line"/>
      <point x="-14.507579134708074" y="87.0" type="line"/>
    </contour>
    <contour>
      <point x="63.51052059969901" y="407.0" type="line"/>
      <point x="363.510520599699" y="407.0" type="line"/>
      <point x="420.09977401146966" y="438.0" type="line"/>
      <point x="438.5921948767616" y="525.0" type="line"/>
      <point x="88.5921948767616" y="525.0" type="line"/>
    </contour>
    <contour>
      <point x="261.80475143843165" y="526.0" type="move" name="top"/>
    </contour>
  </outline>
</glyph>
<glyph name="braceleft" format="1">
  <advance width="308"/>
  <unicode hex="007B"/>
  <outline>
    <contour>
      <point x="34.76244356740486" y="220.0" type="line"/>
      <point x="119.14898201901448" y="203.0"/>
      <point x="127.40995485392389" y="176.0"/>
      <point x="118.05746614044293" y="132.0" type="curve"/>
      <point x="102.11572401519126" y="57.0"/>
      <point x="26.700452493360174" y="8.0"/>
      <point x="7.782918504728201" y="-81.0" type="curve" smooth="yes"/>
      <point x="-12.62251141559392" y="-177.0"/>
      <point x="31.37296365080431" y="-257.0"/>
      <point x="153.27160617072377" y="-281.0" type="curve"/>
      <point x="196.5514704743457" y="-195.0" type="line"/>
      <point x="134.71561076277632" y="-166.0"/>
      <point x="126.00531666790718" y="-127.0"/>
      <point x="135.57036194305817" y="-82.0" type="curve" smooth="yes"/>
      <point x="151.2995475066398" y="-8.0"/>
      <point x="212.56504527515102" y="45.0"/>
      <point x="232.33280551046306" y="138.0" type="curve"/>
      <point x="245.93642545734446" y="202.0"/>
      <point x="217.77681010251558" y="253.0"/>
      <point x="155.96515852756593" y="268.0" type="curve"/>
      <point x="224.15350695261628" y="283.0"/>
      <point x="274.4190047211274" y="336.0"/>
      <point x="288.02262466800886" y="400.0" type="curve"/>
      <point x="307.5778283416509" y="492.0"/>
      <point x="268.418212986822" y="543.0"/>
      <point x="284.14739855040364" y="617.0" type="curve" smooth="yes"/>
      <point x="293.71244382555466" y="662.0"/>
      <point x="319.0021497306855" y="701.0"/>
      <point x="393.16629001911616" y="730.0" type="curve"/>
      <point x="386.44615432273804" y="816.0" type="line"/>
      <point x="255.3447968426575" y="792.0"/>
      <point x="176.34027190905576" y="712.0"/>
      <point x="155.93484198873364" y="616.0" type="curve" smooth="yes"/>
      <point x="137.01730800010165" y="527.0"/>
      <point x="191.8145930399406" y="479.0"/>
      <point x="175.87285091468894" y="404.0" type="curve"/>
      <point x="166.52036220120794" y="360.0"/>
      <point x="146.78133503611735" y="333.0"/>
      <point x="55.16787348772699" y="316.0" type="curve"/>
    </contour>
  </outline>
</glyph>
<glyph name="bar" format="1">
  <advance width="266"/>
  <unicode hex="007C"/>
  <outline>
    <contour>
      <point x="-36.69966075905476" y="-215.0" type="line"/>
      <point x="91.30033924094525" y="-215.0" type="line"/>
      <point x="290.0407244024159" y="720.0" type="line"/>
      <point x="162.04072440241592" y="720.0" type="line"/>
    </contour>
  </outline>
</glyph>
<glyph name="braceright" format="1">
  <advance width="308"/>
  <unicode hex="007D"/>
  <outline>
    <contour>
      <point x="-91.44852952565432" y="-195.0" type="curve"/>
      <point x="-85.72839382927621" y="-281.0" type="line"/>
      <point x="46.37296365080431" y="-257.0"/>
      <point x="125.37748858440608" y="-177.0"/>
      <point x="145.7829185047282" y="-81.0" type="curve" smooth="yes"/>
      <point x="164.7004524933602" y="8.0"/>
      <point x="110.11572401519126" y="57.0"/>
      <point x="126.05746614044293" y="132.0" type="curve"/>
      <point x="135.4099548539239" y="176.0"/>
      <point x="155.3615385806845" y="204.0"/>
      <point x="245.7624435674049" y="220.0" type="curve"/>
      <point x="266.38043004939703" y="317.0" type="line"/>
      <point x="182.78133503611735" y="333.0"/>
      <point x="174.52036220120794" y="360.0"/>
      <point x="184.08540747635897" y="405.0" type="curve"/>
      <point x="200.02714960161063" y="480.0"/>
      <point x="275.01730800010165" y="527.0"/>
      <point x="293.93484198873364" y="616.0" type="curve" smooth="yes"/>
      <point x="314.3402719090558" y="712.0"/>
      <point x="269.3447968426575" y="792.0"/>
      <point x="147.44615432273807" y="816.0" type="curve"/>
      <point x="105.16629001911616" y="730.0" type="line"/>
      <point x="166.00214973068552" y="701.0"/>
      <point x="175.71244382555466" y="662.0"/>
      <point x="166.14739855040366" y="617.0" type="curve" smooth="yes"/>
      <point x="150.41821298682203" y="543.0"/>
      <point x="88.7903849033209" y="493.0"/>
      <point x="69.02262466800886" y="400.0" type="curve"/>
      <point x="55.419004721127436" y="336.0"/>
      <point x="84.15350695261625" y="283.0"/>
      <point x="145.96515852756593" y="268.0" type="curve"/>
      <point x="77.77681010251558" y="253.0"/>
      <point x="26.93642545734447" y="202.0"/>
      <point x="13.33280551046306" y="138.0" type="curve"/>
      <point x="-6.434954724849007" y="45.0"/>
      <point x="33.299547506639826" y="-8.0"/>
      <point x="17.570361943058188" y="-82.0" type="curve" smooth="yes"/>
      <point x="8.005316667907195" y="-127.0"/>
      <point x="-18.28438923722367" y="-166.0"/>
    </contour>
  </outline>
</glyph>
<glyph name="asciitilde" format="1">
  <advance width="500"/>
  <unicode hex="007E"/>
  <outline>
    <contour>
      <point x="59.94095039094624" y="282.0" type="curve"/>
      <point x="142.94095039094623" y="282.0" type="line"/>
      <point x="162.88911019414724" y="333.50704225352115"/>
      <point x="180.6073531461778" y="351.0"/>
      <point x="198.6073531461778" y="351.0" type="curve" smooth="yes"/>
      <point x="236.6073531461778" y="351.0"/>
      <point x="260.3032807059362" y="279.0"/>
      <point x="329.3032807059362" y="279.0" type="curve" smooth="yes"/>
      <point x="388.3032807059362" y="279.0"/>
      <point x="452.9069006528176" y="343.0"/>
      <point x="481.6020364782705" y="478.0" type="curve"/>
      <point x="399.6020364782706" y="478.0" type="line"/>
      <point x="380.54909527142945" y="426.0"/>
      <point x="361.935633723039" y="409.0"/>
      <point x="343.935633723039" y="409.0" type="curve" smooth="yes"/>
      <point x="303.935633723039" y="409.0"/>
      <point x="281.3081993139656" y="481.0"/>
      <point x="214.23970616328063" y="481.0" type="curve" smooth="yes"/>
      <point x="154.23970616328063" y="481.0"/>
      <point x="90.0009798738235" y="423.4213197969543"/>
    </contour>
  </outline>
</glyph>
<glyph name="exclamdown" format="1">
  <advance width="308"/>
  <unicode hex="00A1"/>
  <outline>
    <contour>
      <point x="-21.322963908954094" y="-185.0" type="line"/>
      <point x="130.67703609104592" y="-185.0" type="line"/>
      <point x="170.0" y="0.0" type="line"/>
      <point x="201.4772625958758" y="261.0" type="line"/>
      <point x="97.47726259587577" y="261.0" type="line"/>
      <point x="18.0" y="0.0" type="line"/>
    </contour>
    <contour>
      <point x="100.43789618983993" y="449.0" type="curve" smooth="yes"/>
      <point x="90.02262466800886" y="400.0"/>
      <point x="121.30780563953795" y="359.0"/>
      <point x="170.30780563953795" y="359.0" type="curve" smooth="yes"/>
      <point x="219.30780563953795" y="359.0"/>
      <point x="268.02262466800886" y="400.0"/>
      <point x="278.43789618983993" y="449.0" type="curve" smooth="yes"/>
      <point x="288.640611150001" y="497.0"/>
      <point x="257.3554301784719" y="538.0"/>
      <point x="208.35543017847192" y="538.0" type="curve" smooth="yes"/>
      <point x="159.35543017847192" y="538.0"/>
      <point x="110.640611150001" y="497.0"/>
    </contour>
  </outline>
</glyph>
<glyph name="cent" format="1">
  <advance width="500"/>
  <unicode hex="00A2"/>
  <outline>
    <contour>
      <point x="139.7443438329978" y="-100.0" type="line"/>
      <point x="269.7443438329978" y="-100.0" type="line"/>
      <point x="303.75339370020134" y="60.0" type="line"/>
      <point x="173.75339370020131" y="60.0" type="line"/>
    </contour>
    <contour>
      <point x="267.27828083501106" y="500.0" type="line"/>
      <point x="397.27828083501106" y="500.0" type="line"/>
      <point x="438.72681036066535" y="695.0" type="line"/>
      <point x="308.72681036066535" y="695.0" type="line"/>
    </contour>
    <contour>
      <point x="67.27907256931648" y="293.0" type="curve" smooth="yes"/>
      <point x="32.63235301710287" y="130.0"/>
      <point x="105.10135748008054" y="24.0"/>
      <point x="241.10135748008054" y="24.0" type="curve"/>
      <point x="308.10135748008054" y="24.0"/>
      <point x="368.35248871348097" y="44.0"/>
      <point x="409.09151587857156" y="71.0" type="curve"/>
      <point x="376.8350679772639" y="178.0" type="line"/>
      <point x="353.07183267555365" y="165.0"/>
      <point x="324.94626705885344" y="155.0"/>
      <point x="288.94626705885344" y="155.0" type="curve" smooth="yes"/>
      <point x="224.94626705885344" y="155.0"/>
      <point x="188.99920826569456" y="207.0"/>
      <point x="209.19208162434666" y="302.0" type="curve" smooth="yes"/>
      <point x="228.95984185965875" y="395.0"/>
      <point x="285.95000025814977" y="442.0"/>
      <point x="344.95000025814977" y="442.0" type="curve" smooth="yes"/>
      <point x="368.95000025814977" y="442.0"/>
      <point x="392.03699120311956" y="433.0"/>
      <point x="407.2737559014093" y="420.0" type="curve"/>
      <point x="486.2926473701218" y="533.0" type="line"/>
      <point x="453.39400485020235" y="557.0"/>
      <point x="415.79490983692267" y="573.0"/>
      <point x="363.79490983692267" y="573.0" type="curve" smooth="yes"/>
      <point x="225.79490983692267" y="573.0"/>
      <point x="103.62624461489025" y="464.0"/>
    </contour>
  </outline>
</glyph>
<glyph name="sterling" format="1">
  <advance width="500"/>
  <unicode hex="00A3"/>
  <outline>
    <contour>
      <point x="-20.0" y="0.0" type="line"/>
      <point x="401.0" y="0.0" type="line"/>
      <point x="427.14445708541274" y="123.0" type="line"/>
      <point x="6.144457085412725" y="123.0" type="line"/>
    </contour>
    <contour>
      <point x="-13.623303149899336" y="30.0" type="line"/>
      <point x="102.75339370020131" y="60.0"/>
      <point x="220.00904986720354" y="160.0"/>
      <point x="245.72839382927623" y="281.0" type="curve" smooth="yes"/>
      <point x="261.0691139525644" y="353.1724137931035"/>
      <point x="239.83427624295854" y="385.0"/>
      <point x="256.41368805322026" y="463.0" type="curve" smooth="yes"/>
      <point x="269.1670817534216" y="523.0"/>
      <point x="310.05290380023587" y="567.0"/>
      <point x="364.51957046690256" y="567.0" type="curve" smooth="yes"/>
      <point x="407.24588625637625" y="567.0"/>
      <point x="434.75431131650384" y="544.7777777777778"/>
      <point x="452.8917423834014" y="517.0" type="curve"/>
      <point x="550.2729641671039" y="627.0" type="line"/>
      <point x="517.8380094422548" y="672.0"/>
      <point x="446.46867454632377" y="702.0"/>
      <point x="382.2147062923556" y="702.0" type="curve" smooth="yes"/>
      <point x="263.2147062923556" y="702.0"/>
      <point x="156.5725116737437" y="619.0"/>
      <point x="128.08993240996074" y="485.0" type="curve"/>
      <point x="110.66029435301891" y="403.0"/>
      <point x="128.90690065281757" y="343.0"/>
      <point x="111.6898191575458" y="262.0" type="curve" smooth="yes"/>
      <point x="98.93642545734446" y="202.0"/>
      <point x="49.24581456549325" y="147.0"/>
      <point x="6.357013647082738" y="124.0" type="curve"/>
    </contour>
    <contour>
      <point x="36.327488842555866" y="265.0" type="line"/>
      <point x="374.32748884255585" y="265.0" type="line"/>
      <point x="398.5589368729384" y="379.0" type="line"/>
      <point x="60.55893687293839" y="379.0" type="line"/>
    </contour>
  </outline>
</glyph>
<glyph name="currency" format="1">
  <advance width="500"/>
  <unicode hex="00A4"/>
  <outline>
    <contour>
      <point x="50.33201377615764" y="345.0" type="curve" smooth="yes"/>
      <point x="24.187556690744913" y="222.0"/>
      <point x="98.78212677042279" y="126.0"/>
      <point x="218.7821267704228" y="126.0" type="curve" smooth="yes"/>
      <point x="337.7821267704228" y="126.0"/>
      <point x="453.18755669074494" y="222.0"/>
      <point x="479.3320137761576" y="345.0" type="curve" smooth="yes"/>
      <point x="505.0513577382303" y="466.0"/>
      <point x="430.2442310968824" y="561.0"/>
      <point x="311.2442310968824" y="561.0" type="curve" smooth="yes"/>
      <point x="191.2442310968824" y="561.0"/>
      <point x="76.05135773823031" y="466.0"/>
    </contour>
    <contour>
      <point x="175.33201377615762" y="345.0" type="curve" smooth="yes"/>
      <point x="187.23518122967886" y="401.0"/>
      <point x="234.16255681981977" y="443.0"/>
      <point x="286.16255681981977" y="443.0" type="curve" smooth="yes"/>
      <point x="339.16255681981977" y="443.0"/>
      <point x="364.23518122967886" y="401.0"/>
      <point x="352.3320137761576" y="345.0" type="curve" smooth="yes"/>
      <point x="339.79117663762634" y="286.0"/>
      <point x="296.65124448581537" y="243.0"/>
      <point x="243.65124448581537" y="243.0" type="curve" smooth="yes"/>
      <point x="191.65124448581537" y="243.0"/>
      <point x="162.79117663762634" y="286.0"/>
    </contour>
    <contour>
      <point x="-14.889592652715926" y="184.0" type="line"/>
      <point x="52.64219461861184" y="83.0" type="line"/>
      <point x="138.30859737384336" y="152.0" type="line"/>
      <point x="70.77681010251558" y="253.0" type="line"/>
    </contour>
    <contour>
      <point x="306.3085973738434" y="152.0" type="line"/>
      <point x="362.6421946186118" y="83.0" type="line"/>
      <point x="473.1104073472841" y="184.0" type="line"/>
      <point x="416.7768101025156" y="253.0" type="line"/>
    </contour>
    <contour>
      <point x="53.553620205031194" y="506.0" type="line"/>
      <point x="109.88721744979966" y="437.0" type="line"/>
      <point x="220.35543017847192" y="538.0" type="line"/>
      <point x="164.02183293370342" y="607.0" type="line"/>
    </contour>
    <contour>
      <point x="388.3554301784719" y="538.0" type="line"/>
      <point x="455.88721744979966" y="437.0" type="line"/>
      <point x="541.5536202050312" y="506.0" type="line"/>
      <point x="474.0218329337034" y="607.0" type="line"/>
    </contour>
  </outline>
</glyph>
<glyph name="yen" format="1">
  <advance width="500"/>
  <unicode hex="00A5"/>
  <outline>
    <contour>
      <point x="60.664027552315275" y="690.0" type="line"/>
      <point x="185.47726259587577" y="261.0" type="line"/>
      <point x="257.4772625958758" y="261.0" type="line"/>
      <point x="288.6845024896386" y="389.0" type="line"/>
      <point x="210.66402755231525" y="690.0" type="line"/>
    </contour>
    <contour>
      <point x="30.144457085412725" y="123.0" type="line"/>
      <point x="402.14445708541274" y="123.0" type="line"/>
      <point x="422.7624435674049" y="220.0" type="line"/>
      <point x="50.76244356740486" y="220.0" type="line"/>
    </contour>
    <contour>
      <point x="63.728393829276214" y="281.0" type="line"/>
      <point x="435.72839382927623" y="281.0" type="line"/>
      <point x="456.3463803112684" y="378.0" type="line"/>
      <point x="84.34638031126838" y="378.0" type="line"/>
    </contour>
    <contour>
      <point x="119.0" y="0.0" type="line"/>
      <point x="261.0" y="0.0" type="line"/>
      <point x="323.4916291309865" y="294.0" type="line"/>
      <point x="181.4916291309865" y="294.0" type="line"/>
    </contour>
    <contour>
      <point x="260.6845024896386" y="389.0" type="line"/>
      <point x="240.4772625958758" y="261.0" type="line"/>
      <point x="304.4772625958758" y="261.0" type="line"/>
      <point x="612.6640275523152" y="690.0" type="line"/>
      <point x="466.66402755231525" y="690.0" type="line"/>
    </contour>
  </outline>
</glyph>
<glyph name="brokenbar" format="1">
  <advance width="266"/>
  <unicode hex="00A6"/>
  <outline>
    <contour>
      <point x="-36.69966075905476" y="-215.0" type="line"/>
      <point x="91.30033924094525" y="-215.0" type="line"/>
      <point x="168.88348425050333" y="150.0" type="line"/>
      <point x="40.883484250503315" y="150.0" type="line"/>
    </contour>
    <contour>
      <point x="84.45757939285784" y="355.0" type="line"/>
      <point x="212.45757939285784" y="355.0" type="line"/>
      <point x="290.0407244024159" y="720.0" type="line"/>
      <point x="162.04072440241592" y="720.0" type="line"/>
    </contour>
  </outline>
</glyph>
<glyph name="section" format="1">
  <advance width="521"/>
  <unicode hex="00A7"/>
  <outline>
    <contour>
      <point x="-65.56957020875276" y="-125.0" type="line"/>
      <point x="-24.764991427144025" y="-166.14285714285714"/>
      <point x="49.3972933115968" y="-197.0"/>
      <point x="124.12635735100565" y="-197.0" type="curve" smooth="yes"/>
      <point x="265.8828790901361" y="-197.0"/>
      <point x="371.25644790130764" y="-107.0"/>
      <point x="392.51210406830984" y="-7.0" type="curve" smooth="yes"/>
      <point x="413.130090550302" y="90.0"/>
      <point x="350.0332580038232" y="146.0"/>
      <point x="241.81085984064424" y="192.0" type="curve" smooth="yes"/>
      <point x="158.25033949909502" y="227.0"/>
      <point x="151.20192322585564" y="255.0"/>
      <point x="157.36606351428628" y="284.0" type="curve"/>
      <point x="165.2306562960771" y="321.0"/>
      <point x="201.52036220120794" y="360.0"/>
      <point x="256.22081469456816" y="368.0" type="curve"/>
      <point x="185.31233057313972" y="439.0" type="line"/>
      <point x="111.96363518625304" y="409.1317365269461"/>
      <point x="43.75712689949768" y="347.0"/>
      <point x="26.752601965895906" y="267.0" type="curve" smooth="yes"/>
      <point x="7.835067977263947" y="178.0"/>
      <point x="52.024646906858464" y="117.73170731707317"/>
      <point x="176.24128963189148" y="67.0" type="curve" smooth="yes"/>
      <point x="245.07714934346086" y="38.0"/>
      <point x="254.82601811006037" y="18.0"/>
      <point x="248.66187782162973" y="-11.0" type="curve" smooth="yes"/>
      <point x="241.84540877497045" y="-43.068965517241374"/>
      <point x="208.464039676984" y="-71.0"/>
      <point x="159.90848412142844" y="-71.0" type="curve" smooth="yes"/>
      <point x="105.3443815573259" y="-71.0"/>
      <point x="57.06855200933282" y="-46.0"/>
      <point x="21.299547506639826" y="-8.0" type="curve"/>
    </contour>
    <contour>
      <point x="115.82895957505133" y="512.0" type="curve" smooth="yes"/>
      <point x="94.99841653138915" y="414.0"/>
      <point x="158.732918762878" y="361.0"/>
      <point x="266.5302038027169" y="313.0" type="curve" smooth="yes"/>
      <point x="347.8781675825961" y="277.0"/>
      <point x="357.13914041750553" y="250.0"/>
      <point x="350.1247738823948" y="217.0" type="curve"/>
      <point x="342.260181100604" y="180.0"/>
      <point x="306.8207014421532" y="145.0"/>
      <point x="252.120248948793" y="137.0" type="curve"/>
      <point x="322.02873307022145" y="66.0" type="line"/>
      <point x="385.8475458524723" y="88.67073170731707"/>
      <point x="465.22160642887354" y="161.0"/>
      <point x="482.22613136247537" y="241.0" type="curve"/>
      <point x="501.5687784744473" y="332.0"/>
      <point x="451.64929908273047" y="379.42512077294685"/>
      <point x="331.88721744979966" y="437.0" type="curve" smooth="yes"/>
      <point x="262.2971006249799" y="471.8607594936709"/>
      <point x="253.7841044721236" y="488.2658227848101"/>
      <point x="260.1042989450715" y="518.0" type="curve" smooth="yes"/>
      <point x="266.2611096968928" y="546.9655172413793"/>
      <point x="297.7985111747121" y="574.0"/>
      <point x="344.00746639859267" y="574.0" type="curve" smooth="yes"/>
      <point x="399.237280063189" y="574.0"/>
      <point x="448.4934991223292" y="548.0588235294117"/>
      <point x="486.6164030133813" y="511.0" type="curve"/>
      <point x="573.910633852114" y="630.0" type="line"/>
      <point x="531.6558181036805" y="671.1428571428571"/>
      <point x="455.2147062923556" y="702.0"/>
      <point x="377.2147062923556" y="702.0" type="curve" smooth="yes"/>
      <point x="230.21470629235557" y="702.0"/>
      <point x="136.87205918038353" y="611.0"/>
    </contour>
  </outline>
</glyph>
<glyph name="dieresis" format="1">
  <advance width="500"/>
  <unicode hex="00A8"/>
  <outline>
    <contour>
      <point x="172.68823568893495" y="676.0" type="curve" smooth="yes"/>
      <point x="164.3985297838041" y="637.0"/>
      <point x="189.38416324869337" y="604.0"/>
      <point x="228.38416324869337" y="604.0" type="curve" smooth="yes"/>
      <point x="267.38416324869337" y="604.0"/>
      <point x="305.39852978380407" y="637.0"/>
      <point x="313.6882356889349" y="676.0" type="curve" smooth="yes"/>
      <point x="321.7653850323958" y="714.0"/>
      <point x="297.56719500583654" y="746.0"/>
      <point x="258.56719500583654" y="746.0" type="curve" smooth="yes"/>
      <point x="219.56719500583654" y="746.0"/>
      <point x="180.76538503239578" y="714.0"/>
    </contour>
    <contour>
      <point x="353.6882356889349" y="676.0" type="curve" smooth="yes"/>
      <point x="345.39852978380407" y="637.0"/>
      <point x="370.38416324869337" y="604.0"/>
      <point x="409.38416324869337" y="604.0" type="curve" smooth="yes"/>
      <point x="448.38416324869337" y="604.0"/>
      <point x="486.39852978380407" y="637.0"/>
      <point x="494.6882356889349" y="676.0" type="curve" smooth="yes"/>
      <point x="502.7653850323958" y="714.0"/>
      <point x="478.56719500583654" y="746.0"/>
      <point x="439.56719500583654" y="746.0" type="curve" smooth="yes"/>
      <point x="400.56719500583654" y="746.0"/>
      <point x="361.7653850323958" y="714.0"/>
    </contour>
    <contour>
      <point x="301.80475143843165" y="526.0" type="move" name="_top"/>
    </contour>
  </outline>
</glyph>
<glyph name="copyright" format="1">
  <advance width="810"/>
  <unicode hex="00A9"/>
  <outline>
    <contour>
      <point x="342.8744343832998" y="-10.0" type="curve" smooth="yes"/>
      <point x="542.8744343832998" y="-10.0"/>
      <point x="730.8207014421532" y="145.0"/>
      <point x="773.3320137761576" y="345.0" type="curve" smooth="yes"/>
      <point x="815.843326110162" y="545.0"/>
      <point x="693.7895931690155" y="700.0"/>
      <point x="493.78959316901546" y="700.0" type="curve" smooth="yes"/>
      <point x="293.78959316901546" y="700.0"/>
      <point x="105.84332611016205" y="545.0"/>
      <point x="63.33201377615764" y="345.0" type="curve" smooth="yes"/>
      <point x="20.820701442153208" y="145.0"/>
      <point x="142.87443438329979" y="-10.0"/>
    </contour>
    <contour>
      <point x="357.75339370020134" y="60.0" type="curve" smooth="yes"/>
      <point x="197.75339370020134" y="60.0"/>
      <point x="101.32296390895408" y="185.0"/>
      <point x="135.33201377615762" y="345.0" type="curve" smooth="yes"/>
      <point x="169.34106364336117" y="505.0"/>
      <point x="318.91063385211396" y="630.0"/>
      <point x="478.91063385211396" y="630.0" type="curve" smooth="yes"/>
      <point x="638.910633852114" y="630.0"/>
      <point x="735.3410636433612" y="505.0"/>
      <point x="701.3320137761576" y="345.0" type="curve" smooth="yes"/>
      <point x="667.3229639089541" y="185.0"/>
      <point x="517.7533937002013" y="60.0"/>
    </contour>
    <contour>
      <point x="233.33201377615762" y="345.0" type="curve" smooth="yes"/>
      <point x="204.63687795070462" y="210.0"/>
      <point x="278.695135825453" y="135.0"/>
      <point x="378.695135825453" y="135.0" type="curve" smooth="yes"/>
      <point x="435.695135825453" y="135.0"/>
      <point x="483.94626705885344" y="155.0"/>
      <point x="527.5983032789742" y="191.0" type="curve"/>
      <point x="476.027941335916" y="273.0" type="line"/>
      <point x="456.2019232258557" y="255.0"/>
      <point x="432.0763576091554" y="245.0"/>
      <point x="407.0763576091554" y="245.0" type="curve" smooth="yes"/>
      <point x="365.0763576091554" y="245.0"/>
      <point x="340.57862007595634" y="285.0"/>
      <point x="353.3320137761576" y="345.0" type="curve" smooth="yes"/>
      <point x="366.08540747635897" y="405.0"/>
      <point x="407.5876699431599" y="445.0"/>
      <point x="449.5876699431599" y="445.0" type="curve" smooth="yes"/>
      <point x="471.5876699431599" y="445.0"/>
      <point x="490.88721744979966" y="437.0"/>
      <point x="504.06119933973923" y="419.0" type="curve"/>
      <point x="588.2782808350111" y="500.0" type="line"/>
      <point x="559.7177604934618" y="535.0"/>
      <point x="520.9688917268622" y="555.0"/>
      <point x="467.96889172686224" y="555.0" type="curve" smooth="yes"/>
      <point x="367.9688917268623" y="555.0"/>
      <point x="262.02714960161063" y="480.0"/>
    </contour>
  </outline>
</glyph>
<glyph name="ordfeminine" format="1">
  <advance width="370"/>
  <unicode hex="00AA"/>
  <outline>
    <contour>
      <point x="50.022624668008845" y="400.0" type="curve" smooth="yes"/>
      <point x="34.67313415903436" y="327.7863247863248"/>
      <point x="76.72839382927623" y="281.0"/>
      <point x="137.72839382927623" y="281.0" type="curve" smooth="yes"/>
      <point x="178.72839382927623" y="281.0"/>
      <point x="219.19208162434666" y="302.0"/>
      <point x="243.9938915977874" y="334.0" type="curve"/>
      <point x="258.23518122967886" y="401.0" type="line"/>
      <point x="235.98404999627843" y="381.0"/>
      <point x="208.43337125623816" y="369.0"/>
      <point x="182.43337125623816" y="369.0" type="curve" smooth="yes"/>
      <point x="161.67727369526256" y="369.0"/>
      <point x="148.62171968128848" y="384.0"/>
      <point x="153.51052059969902" y="407.0" type="curve" smooth="yes"/>
      <point x="159.2495477647896" y="434.0"/>
      <point x="186.1730920792495" y="454.11538461538464"/>
      <point x="231.1383486832001" y="457.0" type="curve" smooth="yes"/>
      <point x="285.9885749298802" y="461.0" type="line"/>
      <point x="301.93031705513187" y="536.0" type="line"/>
      <point x="239.5052039317918" y="534.0" type="line" smooth="yes"/>
      <point x="132.42631835361823" y="528.9242424242424"/>
      <point x="66.8145930399406" y="479.0"/>
    </contour>
    <contour>
      <point x="132.113348812275" y="678.0" type="curve"/>
      <point x="138.92047545362288" y="583.0" type="line"/>
      <point x="162.04604107032313" y="593.0"/>
      <point x="199.1716066870233" y="603.0"/>
      <point x="225.1716066870233" y="603.0" type="curve" smooth="yes"/>
      <point x="273.1716066870233" y="603.0"/>
      <point x="283.4325795219328" y="576.0"/>
      <point x="274.5052039317918" y="534.0" type="curve" smooth="yes"/>
      <point x="239.0082581328981" y="367.0" type="line"/>
      <point x="236.64140288430644" y="290.0" type="line"/>
      <point x="335.64140288430644" y="290.0" type="line"/>
      <point x="338.71855222776725" y="328.0" type="line" smooth="yes"/>
      <point x="340.39479658450773" y="350.0"/>
      <point x="342.37058844788805" y="364.0"/>
      <point x="347.04683280462854" y="386.0" type="curve"/>
      <point x="381.0558826718321" y="546.0" type="line" smooth="yes"/>
      <point x="403.5868782088544" y="652.0"/>
      <point x="362.2147062923556" y="702.0"/>
      <point x="263.2147062923556" y="702.0" type="curve" smooth="yes"/>
      <point x="216.21470629235557" y="702.0"/>
      <point x="164.45147099064525" y="689.0"/>
    </contour>
  </outline>
</glyph>
<glyph name="guillemetleft" format="1">
  <advance width="467"/>
  <unicode hex="00AB"/>
  <outline>
    <contour>
      <point x="14.013574800805316" y="240.0" type="line"/>
      <point x="58.704977426961946" y="88.0" type="line"/>
      <point x="202.70497742696193" y="88.0" type="line"/>
      <point x="137.91674225432655" y="296.0" type="line"/>
      <point x="28.89253411770686" y="310.0" type="line"/>
    </contour>
    <contour>
      <point x="14.438687924145356" y="242.0" type="line"/>
      <point x="128.77681010251558" y="253.0" type="line"/>
      <point x="282.41368805322026" y="463.0" type="line"/>
      <point x="138.41368805322026" y="463.0" type="line"/>
      <point x="29.3176472410469" y="312.0" type="line"/>
    </contour>
    <contour>
      <point x="227.01357480080532" y="240.0" type="line"/>
      <point x="271.70497742696193" y="88.0" type="line"/>
      <point x="415.70497742696193" y="88.0" type="line"/>
      <point x="351.3418553776666" y="298.0" type="line"/>
      <point x="241.89253411770687" y="310.0" type="line"/>
    </contour>
    <contour>
      <point x="227.43868792414537" y="242.0" type="line"/>
      <point x="341.7768101025156" y="253.0" type="line"/>
      <point x="495.4136880532202" y="463.0" type="line"/>
      <point x="351.41368805322026" y="463.0" type="line"/>
      <point x="242.31764724104687" y="312.0" type="line"/>
    </contour>
  </outline>
</glyph>
<glyph name="logicalnot" format="1">
  <advance width="500"/>
  <unicode hex="00AC"/>
  <outline>
    <contour>
      <point x="30.612669814084953" y="224.0" type="line"/>
      <point x="444.61266981408494" y="224.0" type="line"/>
      <point x="472.67013595452784" y="356.0" type="line"/>
      <point x="58.67013595452788" y="356.0" type="line"/>
    </contour>
    <contour>
      <point x="279.4780543301812" y="54.0" type="line"/>
      <point x="408.4780543301812" y="54.0" type="line"/>
      <point x="472.67013595452784" y="356.0" type="line"/>
      <point x="343.6701359545279" y="356.0" type="line"/>
    </contour>
  </outline>
</glyph>
<glyph name="registered" format="1">
  <advance width="810"/>
  <unicode hex="00AE"/>
  <outline>
    <contour>
      <point x="342.8744343832998" y="-10.0" type="curve" smooth="yes"/>
      <point x="542.8744343832998" y="-10.0"/>
      <point x="730.8207014421532" y="145.0"/>
      <point x="773.3320137761576" y="345.0" type="curve" smooth="yes"/>
      <point x="815.843326110162" y="545.0"/>
      <point x="693.7895931690155" y="700.0"/>
      <point x="493.78959316901546" y="700.0" type="curve" smooth="yes"/>
      <point x="293.78959316901546" y="700.0"/>
      <point x="105.84332611016205" y="545.0"/>
      <point x="63.33201377615764" y="345.0" type="curve" smooth="yes"/>
      <point x="20.820701442153208" y="145.0"/>
      <point x="142.87443438329979" y="-10.0"/>
    </contour>
    <contour>
      <point x="357.75339370020134" y="60.0" type="curve" smooth="yes"/>
      <point x="197.75339370020134" y="60.0"/>
      <point x="101.32296390895408" y="185.0"/>
      <point x="135.33201377615762" y="345.0" type="curve" smooth="yes"/>
      <point x="169.34106364336117" y="505.0"/>
      <point x="318.91063385211396" y="630.0"/>
      <point x="478.91063385211396" y="630.0" type="curve" smooth="yes"/>
      <point x="638.910633852114" y="630.0"/>
      <point x="735.3410636433612" y="505.0"/>
      <point x="701.3320137761576" y="345.0" type="curve" smooth="yes"/>
      <point x="667.3229639089541" y="185.0"/>
      <point x="517.7533937002013" y="60.0"/>
    </contour>
    <contour>
      <point x="217.33280551046306" y="138.0" type="line"/>
      <point x="327.33280551046306" y="138.0" type="line"/>
      <point x="415.33122204185224" y="552.0" type="line"/>
      <point x="305.33122204185224" y="552.0" type="line"/>
    </contour>
    <contour>
      <point x="298.24049789758607" y="274.0" type="line"/>
      <point x="407.24049789758607" y="274.0" type="line" smooth="yes"/>
      <point x="493.240497897586" y="274.0"/>
      <point x="573.4432128577471" y="322.0"/>
      <point x="592.7858599697191" y="413.0" type="curve" smooth="yes"/>
      <point x="611.7033939583512" y="502.0"/>
      <point x="552.3312220418522" y="552.0"/>
      <point x="466.33122204185224" y="552.0" type="curve" smooth="yes"/>
      <point x="357.33122204185224" y="552.0" type="line"/>
      <point x="338.2011314915502" y="462.0" type="line"/>
      <point x="438.2011314915502" y="462.0" type="line" smooth="yes"/>
      <point x="471.2011314915502" y="462.0"/>
      <point x="489.5876699431599" y="445.0"/>
      <point x="482.7858599697191" y="413.0" type="curve" smooth="yes"/>
      <point x="475.7714934346084" y="380.0"/>
      <point x="448.945475324548" y="362.0"/>
      <point x="416.945475324548" y="362.0" type="curve" smooth="yes"/>
      <point x="316.945475324548" y="362.0" type="line"/>
    </contour>
    <contour>
      <point x="382.31764724104687" y="312.0" type="line"/>
      <point x="425.33280551046306" y="138.0" type="line"/>
      <point x="547.332805510463" y="138.0" type="line"/>
      <point x="488.31764724104687" y="312.0" type="line"/>
    </contour>
  </outline>
</glyph>
<glyph name="macron" format="1">
  <advance width="500"/>
  <unicode hex="00AF"/>
  <outline>
    <contour>
      <point x="175.6352944820938" y="624.0" type="line"/>
      <point x="469.63529448209374" y="624.0" type="line"/>
      <point x="493.2290728274663" y="735.0" type="line"/>
      <point x="199.22907282746627" y="735.0" type="line"/>
    </contour>
    <contour>
      <point x="301.80475143843165" y="526.0" type="move" name="_top"/>
    </contour>
  </outline>
</glyph>
<glyph name="degree" format="1">
  <advance width="343"/>
  <unicode hex="00B0"/>
  <outline>
    <contour>
      <point x="62.14287361680188" y="537.0" type="curve" smooth="yes"/>
      <point x="42.1625568198198" y="443.0"/>
      <point x="98.64592781790819" y="370.0"/>
      <point x="190.6459278179082" y="370.0" type="curve" smooth="yes"/>
      <point x="281.64592781790816" y="370.0"/>
      <point x="370.16255681981977" y="443.0"/>
      <point x="390.14287361680186" y="537.0" type="curve" smooth="yes"/>
      <point x="409.6980772904439" y="629.0"/>
      <point x="352.2147062923556" y="702.0"/>
      <point x="261.2147062923556" y="702.0" type="curve" smooth="yes"/>
      <point x="169.21470629235554" y="702.0"/>
      <point x="81.6980772904439" y="629.0"/>
    </contour>
    <contour>
      <point x="166.14287361680186" y="537.0" type="curve" smooth="yes"/>
      <point x="174.0074663985927" y="574.0"/>
      <point x="204.74649356368332" y="601.0"/>
      <point x="239.74649356368332" y="601.0" type="curve" smooth="yes"/>
      <point x="274.7464935636833" y="601.0"/>
      <point x="292.00746639859267" y="574.0"/>
      <point x="284.14287361680186" y="537.0" type="curve" smooth="yes"/>
      <point x="275.853167711671" y="498.0"/>
      <point x="246.90158398491042" y="470.0"/>
      <point x="211.90158398491042" y="470.0" type="curve" smooth="yes"/>
      <point x="176.90158398491042" y="470.0"/>
      <point x="157.853167711671" y="498.0"/>
    </contour>
  </outline>
</glyph>
<glyph name="plusminus" format="1">
  <advance width="500"/>
  <unicode hex="00B1"/>
  <outline>
    <contour>
      <point x="-5.521945669818805" y="54.0" type="line"/>
      <point x="408.4780543301812" y="54.0" type="line"/>
      <point x="436.53552047062414" y="186.0" type="line"/>
      <point x="22.535520470624107" y="186.0" type="line"/>
    </contour>
    <contour>
      <point x="41.24049789758607" y="274.0" type="line"/>
      <point x="455.240497897586" y="274.0" type="line"/>
      <point x="483.297964038029" y="406.0" type="line"/>
      <point x="69.29796403802897" y="406.0" type="line"/>
    </contour>
    <contour>
      <point x="137.47805433018118" y="54.0" type="line"/>
      <point x="265.4780543301812" y="54.0" type="line"/>
      <point x="365.1670817534216" y="523.0" type="line"/>
      <point x="237.1670817534216" y="523.0" type="line"/>
    </contour>
  </outline>
</glyph>
<glyph name="twosuperior" format="1">
  <advance width="370"/>
  <unicode hex="00B2"/>
  <outline>
    <contour>
      <point x="53.641402884306416" y="290.0" type="line"/>
      <point x="309.64140288430644" y="290.0" type="line"/>
      <point x="329.1966065579485" y="382.0" type="line"/>
      <point x="116.19660655794846" y="382.0" type="line"/>
      <point x="68.732918762878" y="361.0" type="line"/>
    </contour>
    <contour>
      <point x="68.732918762878" y="361.0" type="line"/>
      <point x="103.64140288430642" y="290.0" type="line"/>
      <point x="241.0611993397393" y="419.0" type="line" smooth="yes"/>
      <point x="311.4522627249507" y="482.0"/>
      <point x="350.3796383150916" y="524.0"/>
      <point x="362.4953623302829" y="581.0" type="curve" smooth="yes"/>
      <point x="377.1617650855144" y="650.0"/>
      <point x="338.2147062923556" y="702.0"/>
      <point x="266.2147062923556" y="702.0" type="curve" smooth="yes"/>
      <point x="205.08183915948842" y="702.0"/>
      <point x="153.5046688281288" y="668.0958904109589"/>
      <point x="109.27296416710388" y="627.0" type="curve"/>
      <point x="151.0316745352124" y="560.0" type="line"/>
      <point x="176.11946457518633" y="583.936170212766"/>
      <point x="203.59671981036342" y="605.0"/>
      <point x="229.59671981036342" y="605.0" type="curve" smooth="yes"/>
      <point x="253.59671981036342" y="605.0"/>
      <point x="266.19581482364305" y="589.0"/>
      <point x="260.88190078189245" y="564.0" type="curve" smooth="yes"/>
      <point x="255.78054330181192" y="540.0"/>
      <point x="235.74196863008154" y="521.0"/>
      <point x="193.02714960161063" y="480.0" type="curve" smooth="yes"/>
    </contour>
  </outline>
</glyph>
<glyph name="threesuperior" format="1">
  <advance width="370"/>
  <unicode hex="00B3"/>
  <outline>
    <contour>
      <point x="56.35622191277733" y="331.0" type="line"/>
      <point x="81.3418553776666" y="298.0"/>
      <point x="119.09072414426615" y="278.0"/>
      <point x="171.09072414426615" y="278.0" type="curve" smooth="yes"/>
      <point x="243.09072414426618" y="278.0"/>
      <point x="317.0808825427572" y="325.0"/>
      <point x="336.42352965472924" y="416.0" type="curve" smooth="yes"/>
      <point x="353.42805458833095" y="496.0"/>
      <point x="305.5052039317918" y="534.0"/>
      <point x="230.5052039317918" y="534.0" type="curve"/>
      <point x="195.5052039317918" y="534.0" type="line"/>
      <point x="155.46662926006138" y="515.0" type="line"/>
      <point x="143.56346180654015" y="459.0" type="line"/>
      <point x="187.56346180654015" y="459.0" type="line"/>
      <point x="228.56346180654015" y="459.0"/>
      <point x="243.58766994315988" y="445.0"/>
      <point x="237.84864277806923" y="418.0" type="curve" smooth="yes"/>
      <point x="231.04683280462854" y="386.0"/>
      <point x="207.7411659131463" y="370.0"/>
      <point x="183.6459278179082" y="370.0" type="curve" smooth="yes"/>
      <point x="153.45112262310298" y="370.0"/>
      <point x="132.66646843111377" y="384.2105263157895"/>
      <point x="116.29796403802897" y="406.0" type="curve"/>
    </contour>
    <contour>
      <point x="127.17160668702334" y="603.0" type="line"/>
      <point x="338.1716066870233" y="603.0" type="line"/>
      <point x="363.35995511207364" y="618.0" type="line"/>
      <point x="378.66402755231525" y="690.0" type="line"/>
      <point x="145.66402755231528" y="690.0" type="line"/>
    </contour>
    <contour>
      <point x="155.46662926006138" y="515.0" type="line"/>
      <point x="252.46662926006138" y="515.0" type="line"/>
      <point x="363.35995511207364" y="618.0" type="line"/>
      <point x="338.66402755231525" y="690.0" type="line"/>
    </contour>
  </outline>
</glyph>
<glyph name="acute" format="1">
  <advance width="500"/>
  <unicode hex="00B4"/>
  <outline>
    <contour>
      <point x="258.7464935636833" y="601.0" type="line"/>
      <point x="373.7464935636833" y="601.0" type="line"/>
      <point x="517.6299778141866" y="751.0" type="line"/>
      <point x="367.62997781418665" y="751.0" type="line"/>
    </contour>
    <contour>
      <point x="301.80475143843165" y="526.0" type="move" name="_top"/>
    </contour>
  </outline>
</glyph>
<glyph name="paragraph" format="1">
  <advance width="693"/>
  <unicode hex="00B6"/>
  <outline>
    <contour>
      <point x="64.18676495643949" y="429.0" type="curve" smooth="yes"/>
      <point x="30.17771508923596" y="269.0"/>
      <point x="96.92205892223373" y="169.0"/>
      <point x="221.92205892223376" y="169.0" type="curve"/>
      <point x="254.92205892223376" y="169.0" type="line"/>
      <point x="172.66266955593517" y="-218.0" type="line"/>
      <point x="301.66266955593517" y="-218.0" type="line"/>
      <point x="494.66402755231525" y="690.0" type="line"/>
      <point x="332.66402755231525" y="690.0" type="line"/>
      <point x="207.66402755231525" y="690.0"/>
      <point x="98.19581482364305" y="589.0"/>
    </contour>
    <contour>
      <point x="389.66266955593517" y="-218.0" type="line"/>
      <point x="517.6626695559352" y="-218.0" type="line"/>
      <point x="710.6640275523152" y="690.0" type="line"/>
      <point x="582.6640275523152" y="690.0" type="line"/>
    </contour>
  </outline>
</glyph>
<glyph name="cedilla" format="1">
  <advance width="500"/>
  <unicode hex="00B8"/>
  <outline>
    <contour>
      <point x="71.74966050090498" y="-227.0" type="line"/>
      <point x="93.74966050090498" y="-227.0" type="line" smooth="yes"/>
      <point x="192.74966050090498" y="-227.0"/>
      <point x="247.88959265271592" y="-184.0"/>
      <point x="260.2178732295772" y="-126.0" type="curve" smooth="yes"/>
      <point x="268.082466011368" y="-89.0"/>
      <point x="253.4591628614687" y="-59.0"/>
      <point x="207.58472847816893" y="-49.0" type="curve"/>
      <point x="228.91300905503022" y="9.0" type="line"/>
      <point x="160.18834842505032" y="15.0" type="line"/>
      <point x="116.59457007967788" y="-96.0" type="line"/>
      <point x="131.16945695633783" y="-98.0" type="line"/>
      <point x="154.37236985007524" y="-101.75"/>
      <point x="164.18038030785314" y="-112.0625"/>
      <point x="160.79276010623715" y="-128.0" type="curve" smooth="yes"/>
      <point x="156.5770549664484" y="-147.83333333333334"/>
      <point x="137.5658370094564" y="-162.0"/>
      <point x="98.5658370094564" y="-162.0" type="curve"/>
    </contour>
    <contour>
      <point x="190.0" y="0.0" type="move" name="_bottom"/>
    </contour>
  </outline>
</glyph>
<glyph name="onesuperior" format="1">
  <advance width="370"/>
  <unicode hex="00B9"/>
  <outline>
    <contour>
      <point x="68.64140288430642" y="290.0" type="line"/>
      <point x="320.64140288430644" y="290.0" type="line"/>
      <point x="339.1338237495983" y="377.0" type="line"/>
      <point x="87.13382374959832" y="377.0" type="line"/>
    </contour>
    <contour>
      <point x="120.4855207287739" y="628.0" type="line"/>
      <point x="141.69355235684213" y="549.0" type="line"/>
      <point x="276.5097288653936" y="614.0" type="line"/>
      <point x="250.66402755231525" y="690.0" type="line"/>
    </contour>
    <contour>
      <point x="143.64140288430642" y="290.0" type="line"/>
      <point x="241.64140288430644" y="290.0" type="line"/>
      <point x="326.66402755231525" y="690.0" type="line"/>
      <point x="250.66402755231525" y="690.0" type="line"/>
      <point x="217.39852978380407" y="637.0" type="line"/>
    </contour>
  </outline>
</glyph>
<glyph name="ordmasculine" format="1">
  <advance width="403"/>
  <unicode hex="00BA"/>
  <outline>
    <contour>
      <point x="74.15271521831085" y="490.0" type="curve" smooth="yes"/>
      <point x="44.60735314617777" y="351.0"/>
      <point x="100.30328070593617" y="279.0"/>
      <point x="201.30328070593617" y="279.0" type="curve" smooth="yes"/>
      <point x="301.3032807059362" y="279.0"/>
      <point x="387.6073531461778" y="351.0"/>
      <point x="417.15271521831085" y="490.0" type="curve" smooth="yes"/>
      <point x="447.12319041378396" y="631.0"/>
      <point x="391.42726285402557" y="703.0"/>
      <point x="291.42726285402557" y="703.0" type="curve" smooth="yes"/>
      <point x="190.42726285402554" y="703.0"/>
      <point x="104.12319041378396" y="631.0"/>
    </contour>
    <contour>
      <point x="182.15271521831085" y="490.0" type="curve" smooth="yes"/>
      <point x="200.43257952193278" y="576.0"/>
      <point x="230.53393700201326" y="600.0"/>
      <point x="269.53393700201326" y="600.0" type="curve" smooth="yes"/>
      <point x="307.53393700201326" y="600.0"/>
      <point x="327.4325795219328" y="576.0"/>
      <point x="309.15271521831085" y="490.0" type="curve" smooth="yes"/>
      <point x="291.29796403802897" y="406.0"/>
      <point x="261.1966065579485" y="382.0"/>
      <point x="223.19660655794848" y="382.0" type="curve" smooth="yes"/>
      <point x="184.19660655794846" y="382.0"/>
      <point x="164.29796403802897" y="406.0"/>
    </contour>
  </outline>
</glyph>
<glyph name="guillemetright" format="1">
  <advance width="467"/>
  <unicode hex="00BB"/>
  <outline>
    <contour>
      <point x="-31.295022573038054" y="88.0" type="line"/>
      <point x="113.70497742696193" y="88.0" type="line"/>
      <point x="223.01357480080532" y="240.0" type="line"/>
      <point x="237.89253411770687" y="310.0" type="line"/>
      <point x="122.3418553776666" y="298.0" type="line"/>
    </contour>
    <contour>
      <point x="48.41368805322024" y="463.0" type="line"/>
      <point x="112.77681010251558" y="253.0" type="line"/>
      <point x="223.43868792414537" y="242.0" type="line"/>
      <point x="238.31764724104687" y="312.0" type="line"/>
      <point x="193.41368805322026" y="463.0" type="line"/>
    </contour>
    <contour>
      <point x="181.70497742696193" y="88.0" type="line"/>
      <point x="325.70497742696193" y="88.0" type="line"/>
      <point x="435.0135748008053" y="240.0" type="line"/>
      <point x="449.8925341177069" y="310.0" type="line"/>
      <point x="334.91674225432655" y="296.0" type="line"/>
    </contour>
    <contour>
      <point x="261.41368805322026" y="463.0" type="line"/>
      <point x="325.7768101025156" y="253.0" type="line"/>
      <point x="435.43868792414537" y="242.0" type="line"/>
      <point x="450.31764724104687" y="312.0" type="line"/>
      <point x="405.41368805322026" y="463.0" type="line"/>
    </contour>
  </outline>
</glyph>
<glyph name="questiondown" format="1">
  <advance width="437"/>
  <unicode hex="00BF"/>
  <outline>
    <contour>
      <point x="-17.18834842505033" y="-15.0" type="curve" smooth="yes"/>
      <point x="-39.29423083873263" y="-119.0"/>
      <point x="22.12635735100565" y="-197.0"/>
      <point x="138.12635735100565" y="-197.0" type="curve" smooth="yes"/>
      <point x="215.12635735100565" y="-197.0"/>
      <point x="303.11651574949667" y="-150.0"/>
      <point x="362.869909449698" y="-90.0" type="curve"/>
      <point x="296.1255656167002" y="10.0" type="line"/>
      <point x="252.15833567124616" y="-32.1875"/>
      <point x="217.37217191649887" y="-50.0"/>
      <point x="184.3721719164989" y="-50.0" type="curve" smooth="yes"/>
      <point x="143.3721719164989" y="-50.0"/>
      <point x="126.75224268027685" y="-19.98412698412698"/>
      <point x="133.33812217837024" y="11.0" type="curve" smooth="yes"/>
      <point x="140.49002531220864" y="44.64705882352941"/>
      <point x="165.60171073476755" y="67.07843137254902"/>
      <point x="217.44400459205252" y="115.0" type="curve" smooth="yes"/>
      <point x="261.94626705885344" y="155.0"/>
      <point x="281.02957162170605" y="196.5272727272727"/>
      <point x="283.52567886911515" y="233.0" type="curve"/>
      <point x="285.0907241442662" y="278.0" type="line"/>
      <point x="177.09072414426615" y="278.0" type="line"/>
      <point x="169.77681010251558" y="253.0" type="line" smooth="yes"/>
      <point x="163.31312230744513" y="232.0"/>
      <point x="153.99920826569456" y="207.0"/>
      <point x="123.04762453893397" y="179.0" type="curve" smooth="yes"/>
      <point x="61.144457085412725" y="123.0"/>
      <point x="-0.1838234914485639" y="65.0"/>
    </contour>
    <contour>
      <point x="174.43789618983993" y="449.0" type="curve" smooth="yes"/>
      <point x="164.23518122967886" y="401.0"/>
      <point x="195.52036220120794" y="360.0"/>
      <point x="244.52036220120794" y="360.0" type="curve" smooth="yes"/>
      <point x="293.52036220120794" y="360.0"/>
      <point x="342.23518122967886" y="401.0"/>
      <point x="352.43789618983993" y="449.0" type="curve" smooth="yes"/>
      <point x="362.853167711671" y="498.0"/>
      <point x="331.5679867401419" y="539.0"/>
      <point x="282.5679867401419" y="539.0" type="curve" smooth="yes"/>
      <point x="233.56798674014192" y="539.0"/>
      <point x="184.853167711671" y="498.0"/>
    </contour>
  </outline>
</glyph>
<glyph name="AE" format="1">
  <advance width="821"/>
  <unicode hex="00C6"/>
  <outline>
    <contour>
      <point x="-61.0" y="0.0" type="line"/>
      <point x="90.0" y="0.0" type="line"/>
      <point x="400.25859763199315" y="594.0" type="line"/>
      <point x="389.66402755231525" y="690.0" type="line"/>
      <point x="309.66402755231525" y="690.0" type="line"/>
    </contour>
    <contour>
      <point x="114.82070144215322" y="145.0" type="line"/>
      <point x="384.8207014421532" y="145.0" type="line"/>
      <point x="410.5400454042259" y="266.0" type="line"/>
      <point x="140.54004540422588" y="266.0" type="line"/>
    </contour>
    <contour>
      <point x="295.0" y="0.0" type="line"/>
      <point x="437.0" y="0.0" type="line"/>
      <point x="583.6640275523152" y="690.0" type="line"/>
      <point x="441.66402755231525" y="690.0" type="line"/>
    </contour>
    <contour>
      <point x="360.0" y="0.0" type="line"/>
      <point x="711.0" y="0.0" type="line"/>
      <point x="739.0574661404429" y="132.0" type="line"/>
      <point x="388.0574661404429" y="132.0" type="line"/>
    </contour>
    <contour>
      <point x="420.79117663762634" y="286.0" type="line"/>
      <point x="728.7911766376263" y="286.0" type="line"/>
      <point x="755.3607468463791" y="411.0" type="line"/>
      <point x="447.36074684637913" y="411.0" type="line"/>
    </contour>
    <contour>
      <point x="336.60656141187235" y="558.0" type="line"/>
      <point x="825.6065614118723" y="558.0" type="line"/>
      <point x="853.6640275523152" y="690.0" type="line"/>
      <point x="364.66402755231525" y="690.0" type="line"/>
    </contour>
    <contour>
      <point x="578.6640275523152" y="690.0" type="move" name="top"/>
    </contour>
  </outline>
</glyph>
<glyph name="multiply" format="1">
  <advance width="500"/>
  <unicode hex="00D7"/>
  <outline>
    <contour>
      <point x="69.67466088812967" y="436.0" type="line"/>
      <point x="317.8403846451711" y="51.0" type="line"/>
      <point x="433.60814488048317" y="144.0" type="line"/>
      <point x="185.4424211234417" y="529.0" type="line"/>
    </contour>
    <contour>
      <point x="7.608144880483195" y="144.0" type="line"/>
      <point x="83.84038464517113" y="51.0" type="line"/>
      <point x="495.67466088812967" y="436.0" type="line"/>
      <point x="419.4424211234417" y="529.0" type="line"/>
    </contour>
  </outline>
</glyph>
<glyph name="Oslash" format="1">
  <advance width="627"/>
  <unicode hex="00D8"/>
  <outline>
    <contour>
      <point x="49.33201377615764" y="345.0" type="curve" smooth="yes"/>
      <point x="1.7193439620726778" y="121.0"/>
      <point x="98.44932125995973" y="-12.0"/>
      <point x="251.44932125995973" y="-12.0" type="curve" smooth="yes"/>
      <point x="403.44932125995973" y="-12.0"/>
      <point x="556.7193439620727" y="121.0"/>
      <point x="604.3320137761576" y="345.0" type="curve" smooth="yes"/>
      <point x="651.9446835902426" y="569.0"/>
      <point x="555.2147062923556" y="702.0"/>
      <point x="403.2147062923556" y="702.0" type="curve" smooth="yes"/>
      <point x="250.21470629235557" y="702.0"/>
      <point x="96.94468359024259" y="569.0"/>
    </contour>
    <contour>
      <point x="191.33201377615762" y="345.0" type="curve" smooth="yes"/>
      <point x="223.640611150001" y="497.0"/>
      <point x="297.3697967135826" y="571.0"/>
      <point x="375.3697967135826" y="571.0" type="curve" smooth="yes"/>
      <point x="453.3697967135827" y="571.0"/>
      <point x="494.64061115000095" y="497.0"/>
      <point x="462.3320137761576" y="345.0" type="curve" smooth="yes"/>
      <point x="430.0234164023143" y="193.0"/>
      <point x="357.29423083873263" y="119.0"/>
      <point x="279.29423083873263" y="119.0" type="curve" smooth="yes"/>
      <point x="201.29423083873263" y="119.0"/>
      <point x="159.02341640231427" y="193.0"/>
    </contour>
    <contour>
      <point x="-26.971266929778537" y="66.0" type="line"/>
      <point x="31.44932125995973" y="-12.0" type="line"/>
      <point x="680.6352944820937" y="624.0" type="line"/>
      <point x="622.2147062923556" y="702.0" type="line"/>
    </contour>
    <contour>
      <point x="400.66402755231525" y="690.0" type="move" name="top"/>
    </contour>
  </outline>
</glyph>
<glyph name="Thorn" format="1">
  <advance width="552"/>
  <unicode hex="00DE"/>
  <outline>
    <contour>
      <point x="10.0" y="0.0" type="line"/>
      <point x="152.0" y="0.0" type="line"/>
      <point x="298.66402755231525" y="690.0" type="line"/>
      <point x="156.66402755231528" y="690.0" type="line"/>
    </contour>
    <contour>
      <point x="97.53099553702233" y="106.0" type="line"/>
      <point x="226.53099553702236" y="106.0" type="line" smooth="yes"/>
      <point x="378.53099553702236" y="106.0"/>
      <point x="500.2350737115635" y="189.29113924050634"/>
      <point x="532.4817875294775" y="341.0" type="curve" smooth="yes"/>
      <point x="567.4148436069161" y="505.34710743801656"/>
      <point x="491.3455885769629" y="585.0"/>
      <point x="338.34558857696294" y="585.0" type="curve" smooth="yes"/>
      <point x="199.34558857696294" y="585.0" type="line"/>
      <point x="171.28812243652004" y="453.0" type="line"/>
      <point x="296.28812243652004" y="453.0" type="line" smooth="yes"/>
      <point x="376.28812243652004" y="453.0"/>
      <point x="403.77521414767415" y="417.6545454545454"/>
      <point x="388.3320137761576" y="345.0" type="curve" smooth="yes"/>
      <point x="372.95304045227994" y="272.64761904761906"/>
      <point x="330.58846167746526" y="238.0"/>
      <point x="250.58846167746526" y="238.0" type="curve" smooth="yes"/>
      <point x="125.58846167746526" y="238.0" type="line"/>
    </contour>
  </outline>
</glyph>
<glyph name="germandbls" format="1">
  <advance width="519"/>
  <unicode hex="00DF"/>
  <outline>
    <contour>
      <point x="0.0" y="0.0" type="line"/>
      <point x="137.0" y="0.0" type="line"/>
      <point x="242.640611150001" y="497.0" type="line" smooth="yes"/>
      <point x="258.5823532752527" y="572.0"/>
      <point x="288.8962673170032" y="597.0"/>
      <point x="319.8962673170032" y="597.0" type="curve" smooth="yes"/>
      <point x="349.8962673170032" y="597.0"/>
      <point x="363.4325795219328" y="576.0"/>
      <point x="355.3554301784719" y="538.0" type="curve" smooth="yes"/>
      <point x="344.7276020949708" y="488.0"/>
      <point x="314.43789618983993" y="449.0"/>
      <point x="258.02262466800886" y="400.0" type="curve"/>
      <point x="234.2162897609664" y="288.0" type="line"/>
      <point x="281.4144797875257" y="256.0" type="line" smooth="yes"/>
      <point x="325.037782937425" y="226.0"/>
      <point x="341.1352507248959" y="198.23076923076923"/>
      <point x="334.92205892223376" y="169.0" type="curve" smooth="yes"/>
      <point x="327.66157426308405" y="134.8421052631579"/>
      <point x="301.3812217837024" y="110.0"/>
      <point x="271.3812217837024" y="110.0" type="curve" smooth="yes"/>
      <point x="252.38122178370241" y="110.0"/>
      <point x="237.58340342967824" y="117.0"/>
      <point x="222.9946833320928" y="127.0" type="curve"/>
      <point x="160.25113123340043" y="20.0" type="line"/>
      <point x="179.94214259767253" y="4.432432432432432"/>
      <point x="217.44932125995973" y="-12.0"/>
      <point x="270.44932125995973" y="-12.0" type="curve"/>
      <point x="362.44932125995973" y="-12.0"/>
      <point x="448.96595026187134" y="61.0"/>
      <point x="470.43416299054354" y="162.0" type="curve" smooth="yes"/>
      <point x="485.31312230744516" y="232.0"/>
      <point x="461.64140288430644" y="290.0"/>
      <point x="396.2064481594574" y="335.0" type="curve" smooth="yes"/>
      <point x="361.30780563953795" y="359.0" type="line"/>
      <point x="408.17239842132875" y="396.0"/>
      <point x="470.6513857135824" y="464.1182795698925"/>
      <point x="488.26843923350214" y="547.0" type="curve" smooth="yes"/>
      <point x="512.9250003872246" y="663.0"/>
      <point x="454.4001463118551" y="732.0"/>
      <point x="346.5914031424562" y="732.0" type="curve" smooth="yes"/>
      <point x="228.35330790436092" y="732.0"/>
      <point x="139.01199133219447" y="654.0"/>
      <point x="106.06572427334106" y="499.0" type="curve" smooth="yes"/>
    </contour>
  </outline>
</glyph>
<glyph name="ae" format="1">
  <advance width="722"/>
  <unicode hex="00E6"/>
  <outline>
    <contour>
      <point x="-8.179298557846792" y="145.0" type="curve" smooth="yes"/>
      <point x="-28.290527674268024" y="50.384105960264904"/>
      <point x="21.56737681551529" y="-12.0"/>
      <point x="107.44932125995973" y="-12.0" type="curve" smooth="yes"/>
      <point x="194.0439158545543" y="-12.0"/>
      <point x="251.21415029379204" y="28.090909090909086"/>
      <point x="306.5794118102617" y="78.0" type="curve"/>
      <point x="265.60814488048317" y="144.0" type="line"/>
      <point x="237.24241958431065" y="120.0"/>
      <point x="199.46276887225952" y="105.0"/>
      <point x="165.3184389753523" y="105.0" type="curve" smooth="yes"/>
      <point x="132.57375812428847" y="105.0"/>
      <point x="111.99441715952801" y="122.29411764705883"/>
      <point x="118.73371049718341" y="154.0" type="curve" smooth="yes"/>
      <point x="125.74807703229413" y="187.0"/>
      <point x="158.1524986513083" y="217.1304347826087"/>
      <point x="225.7624435674049" y="220.0" type="curve" smooth="yes"/>
      <point x="297.61266981408494" y="224.0" type="line"/>
      <point x="317.59298661106703" y="318.0" type="line"/>
      <point x="235.95531692605698" y="315.0" type="line" smooth="yes"/>
      <point x="97.06223687894467" y="309.1379310344828"/>
      <point x="11.941112336599616" y="239.65909090909088"/>
    </contour>
    <contour>
      <point x="95.27828083501106" y="500.0" type="curve"/>
      <point x="106.62171968128848" y="384.0" type="line"/>
      <point x="138.81006810633886" y="399.00000000000006"/>
      <point x="181.21097309305918" y="415.0"/>
      <point x="224.21097309305918" y="415.0" type="curve" smooth="yes"/>
      <point x="281.2109730930592" y="415.0"/>
      <point x="299.6510447163287" y="379.43333333333334"/>
      <point x="286.59298661106703" y="318.0" type="curve" smooth="yes"/>
      <point x="278.9409503909462" y="282.0" type="line"/>
      <point x="404.9409503909462" y="282.0" type="line"/>
      <point x="414.2934391044272" y="326.0" type="line" smooth="yes"/>
      <point x="443.62624461489025" y="464.0"/>
      <point x="390.3554301784719" y="538.0"/>
      <point x="272.3554301784719" y="538.0" type="curve" smooth="yes"/>
      <point x="204.377776547187" y="538.0"/>
      <point x="140.9526752892853" y="519.4418604651163"/>
    </contour>
    <contour>
      <point x="272.5642535408456" y="252.0" type="curve" smooth="yes"/>
      <point x="239.40542992032215" y="96.0"/>
      <point x="289.44932125995973" y="-12.0"/>
      <point x="449.44932125995973" y="-12.0" type="curve" smooth="yes"/>
      <point x="513.0809002073281" y="-12.0"/>
      <point x="567.8231613501133" y="8.948717948717949"/>
      <point x="614.5892534117706" y="31.0" type="curve"/>
      <point x="592.7579186338031" y="140.0" type="line"/>
      <point x="562.1444570854127" y="123.0"/>
      <point x="522.8063349070425" y="112.0"/>
      <point x="492.80633490704247" y="112.0" type="curve" smooth="yes"/>
      <point x="407.80633490704247" y="112.0"/>
      <point x="376.79649330553355" y="159.0"/>
      <point x="398.9023757192158" y="263.0" type="curve" smooth="yes"/>
      <point x="423.1338237495983" y="377.0"/>
      <point x="470.69886902474934" y="422.0"/>
      <point x="519.6988690247493" y="422.0" type="curve" smooth="yes"/>
      <point x="567.6988690247493" y="422.0"/>
      <point x="583.5731073103831" y="379.0666666666666"/>
      <point x="562.9409503909462" y="282.0" type="curve"/>
      <point x="597.742760364387" y="314.0" type="line"/>
      <point x="374.742760364387" y="314.0" type="line"/>
      <point x="354.1247738823948" y="217.0" type="line"/>
      <point x="670.1247738823948" y="217.0" type="line"/>
      <point x="674.675452622435" y="229.0"/>
      <point x="682.3516969791756" y="251.0"/>
      <point x="687.4530544592561" y="275.0" type="curve" smooth="yes"/>
      <point x="721.8872174497997" y="437.0"/>
      <point x="669.2459774421535" y="538.0"/>
      <point x="547.3554301784719" y="538.0" type="curve" smooth="yes"/>
      <point x="413.3554301784719" y="538.0"/>
      <point x="308.91142558641934" y="423.0"/>
    </contour>
    <contour>
      <point x="411.4666292600614" y="515.0" type="move" name="top"/>
    </contour>
  </outline>
</glyph>
<glyph name="eth" format="1">
  <advance width="488"/>
  <unicode hex="00F0"/>
  <outline>
    <contour>
      <point x="25.95079199245521" y="235.0" type="curve" smooth="yes"/>
      <point x="-8.058257874748342" y="75.0"/>
      <point x="67.36108596584211" y="-12.0"/>
      <point x="179.44932125995973" y="-12.0" type="curve" smooth="yes"/>
      <point x="293.3435520291905" y="-12.0"/>
      <point x="406.2798643036219" y="86.0"/>
      <point x="448.79117663762634" y="286.0" type="curve" smooth="yes"/>
      <point x="489.81459303994063" y="479.0"/>
      <point x="413.19149193396123" y="640.730593607306"/>
      <point x="328.0407244024159" y="720.0" type="curve"/>
      <point x="166.04072440241592" y="720.0" type="line"/>
      <point x="260.91063385211396" y="630.0"/>
      <point x="363.5150455333008" y="487.0"/>
      <point x="318.24049789758607" y="274.0" type="curve" smooth="yes"/>
      <point x="298.047624538934" y="179.0"/>
      <point x="252.8412041279435" y="114.0"/>
      <point x="206.23144803038252" y="114.0" type="curve" smooth="yes"/>
      <point x="165.13555761942362" y="114.0"/>
      <point x="140.73852333416897" y="158.72727272727275"/>
      <point x="157.37590511579523" y="237.0" type="curve" smooth="yes"/>
      <point x="174.11051695521286" y="315.73015873015873"/>
      <point x="218.5411379409602" y="361.0"/>
      <point x="260.732918762878" y="361.0" type="curve" smooth="yes"/>
      <point x="298.037266588965" y="361.0"/>
      <point x="324.16101075781415" y="342.0"/>
      <point x="337.25486443269676" y="307.0" type="curve"/>
      <point x="366.95984185965875" y="395.0" type="line"/>
      <point x="353.09977401146966" y="438.0"/>
      <point x="322.4681357408237" y="482.0"/>
      <point x="261.4522627249507" y="482.0" type="curve" smooth="yes"/>
      <point x="172.47988703434294" y="482.0"/>
      <point x="59.95984185965874" y="395.0"/>
    </contour>
    <contour>
      <point x="183.95452519175154" y="522.0" type="line"/>
      <point x="472.5240954005043" y="647.0" type="line"/>
      <point x="451.16629001911616" y="730.0" type="line"/>
      <point x="163.38416324869337" y="604.0" type="line"/>
    </contour>
  </outline>
</glyph>
<glyph name="divide" format="1">
  <advance width="500"/>
  <unicode hex="00F7"/>
  <outline>
    <contour>
      <point x="30.612669814084953" y="224.0" type="line"/>
      <point x="444.61266981408494" y="224.0" type="line"/>
      <point x="472.67013595452784" y="356.0" type="line"/>
      <point x="58.67013595452788" y="356.0" type="line"/>
    </contour>
    <contour>
      <point x="119.2798643036219" y="86.0" type="curve" smooth="yes"/>
      <point x="108.8645927817908" y="37.0"/>
      <point x="140.14977375331992" y="-4.0"/>
      <point x="189.14977375331992" y="-4.0" type="curve" smooth="yes"/>
      <point x="238.1497737533199" y="-4.0"/>
      <point x="286.8645927817908" y="37.0"/>
      <point x="297.2798643036219" y="86.0" type="curve" smooth="yes"/>
      <point x="307.48257926378295" y="134.0"/>
      <point x="276.19739829225387" y="175.0"/>
      <point x="227.19739829225387" y="175.0" type="curve" smooth="yes"/>
      <point x="178.19739829225387" y="175.0"/>
      <point x="129.48257926378295" y="134.0"/>
    </contour>
    <contour>
      <point x="206.21549802666095" y="495.0" type="curve" smooth="yes"/>
      <point x="195.80022650482988" y="446.0"/>
      <point x="227.08540747635897" y="405.0"/>
      <point x="276.08540747635897" y="405.0" type="curve" smooth="yes"/>
      <point x="325.08540747635897" y="405.0"/>
      <point x="373.8002265048299" y="446.0"/>
      <point x="384.21549802666095" y="495.0" type="curve" smooth="yes"/>
      <point x="394.418212986822" y="543.0"/>
      <point x="363.13303201529294" y="584.0"/>
      <point x="314.13303201529294" y="584.0" type="curve" smooth="yes"/>
      <point x="265.13303201529294" y="584.0"/>
      <point x="216.41821298682203" y="543.0"/>
    </contour>
  </outline>
</glyph>
<glyph name="oslash" format="1">
  <advance width="501"/>
  <unicode hex="00F8"/>
  <outline>
    <contour>
      <point x="24.6898191575458" y="262.0" type="curve" smooth="yes"/>
      <point x="-11.01968320301792" y="94.0"/>
      <point x="57.44932125995973" y="-12.0"/>
      <point x="188.44932125995973" y="-12.0" type="curve" smooth="yes"/>
      <point x="318.44932125995973" y="-12.0"/>
      <point x="431.9803167969821" y="94.0"/>
      <point x="467.6898191575458" y="262.0" type="curve" smooth="yes"/>
      <point x="503.61187807977956" y="431.0"/>
      <point x="435.3554301784719" y="538.0"/>
      <point x="305.3554301784719" y="538.0" type="curve" smooth="yes"/>
      <point x="174.35543017847192" y="538.0"/>
      <point x="60.61187807977953" y="431.0"/>
    </contour>
    <contour>
      <point x="159.6898191575458" y="262.0" type="curve" smooth="yes"/>
      <point x="182.85848437957821" y="371.0"/>
      <point x="226.84864277806923" y="418.0"/>
      <point x="279.84864277806923" y="418.0" type="curve" smooth="yes"/>
      <point x="331.84864277806923" y="418.0"/>
      <point x="355.8584843795782" y="371.0"/>
      <point x="332.6898191575458" y="262.0" type="curve" smooth="yes"/>
      <point x="309.73371049718344" y="154.0"/>
      <point x="265.74355209869236" y="107.0"/>
      <point x="213.74355209869236" y="107.0" type="curve" smooth="yes"/>
      <point x="160.74355209869236" y="107.0"/>
      <point x="136.7337104971834" y="154.0"/>
    </contour>
    <contour>
      <point x="-17.82149317645863" y="62.0" type="line"/>
      <point x="33.44932125995973" y="-12.0" type="line"/>
      <point x="510.6262446148903" y="464.0" type="line"/>
      <point x="459.3554301784719" y="538.0" type="line"/>
    </contour>
    <contour>
      <point x="302.80475143843165" y="526.0" type="move" name="top"/>
    </contour>
  </outline>
</glyph>
<glyph name="Dcroat" format="1">
  <advance width="614"/>
  <unicode hex="0110"/>
  <outline>
    <contour>
      <point x="28.090724144266147" y="278.0" type="line"/>
      <point x="322.0907241442662" y="278.0" type="line"/>
      <point x="348.8728509146889" y="404.0" type="line"/>
      <point x="54.87285091468894" y="404.0" type="line"/>
    </contour>
    <contour>
      <point x="13.0" y="0.0" type="line"/>
      <point x="155.0" y="0.0" type="line"/>
      <point x="301.66402755231525" y="690.0" type="line"/>
      <point x="159.66402755231528" y="690.0" type="line"/>
    </contour>
    <contour>
      <point x="78.0" y="0.0" type="line"/>
      <point x="238.0" y="0.0" type="line" smooth="yes"/>
      <point x="396.0" y="0.0"/>
      <point x="544.9946833320928" y="127.0"/>
      <point x="591.3320137761576" y="345.0" type="curve" smooth="yes"/>
      <point x="637.6693442202225" y="563.0"/>
      <point x="542.6640275523152" y="690.0"/>
      <point x="384.66402755231525" y="690.0" type="curve" smooth="yes"/>
      <point x="224.66402755231525" y="690.0" type="line"/>
      <point x="196.60656141187235" y="558.0" type="line"/>
      <point x="342.60656141187235" y="558.0" type="line" smooth="yes"/>
      <point x="432.60656141187235" y="558.0"/>
      <point x="477.30248897163074" y="486.0"/>
      <point x="447.3320137761576" y="345.0" type="curve" smooth="yes"/>
      <point x="417.3615385806845" y="204.0"/>
      <point x="342.0574661404429" y="132.0"/>
      <point x="252.0574661404429" y="132.0" type="curve" smooth="yes"/>
      <point x="106.05746614044293" y="132.0" type="line"/>
    </contour>
  </outline>
</glyph>
